<?xml version="1.0" encoding="utf-8" standalone="no"?>
<!DOCTYPE svg PUBLIC "-//W3C//DTD SVG 1.1//EN"
  "http://www.w3.org/Graphics/SVG/1.1/DTD/svg11.dtd">
<svg xmlns:xlink="http://www.w3.org/1999/xlink" width="460.8pt" height="345.6pt" viewBox="0 0 460.8 345.6" xmlns="http://www.w3.org/2000/svg" version="1.1">
 <metadata>
  <rdf:RDF xmlns:dc="http://purl.org/dc/elements/1.1/" xmlns:cc="http://creativecommons.org/ns#" xmlns:rdf="http://www.w3.org/1999/02/22-rdf-syntax-ns#">
   <cc:Work>
    <dc:type rdf:resource="http://purl.org/dc/dcmitype/StillImage"/>
    <dc:date>2025-11-16T14:04:33.584950</dc:date>
    <dc:format>image/svg+xml</dc:format>
    <dc:creator>
     <cc:Agent>
      <dc:title>Matplotlib v3.10.7, https://matplotlib.org/</dc:title>
     </cc:Agent>
    </dc:creator>
   </cc:Work>
  </rdf:RDF>
 </metadata>
 <defs>
  <style type="text/css">*{stroke-linejoin: round; stroke-linecap: butt}</style>
 </defs>
 <g id="figure_1">
  <g id="patch_1">
   <path d="M 0 345.6 
L 460.8 345.6 
L 460.8 0 
L 0 0 
z
" style="fill: #ffffff"/>
  </g>
  <g id="axes_1">
   <g id="patch_2">
    <path d="M 47.72 303.64 
L 450 303.64 
L 450 26.88 
L 47.72 26.88 
z
" style="fill: #ffffff"/>
   </g>
   <g id="matplotlib.axis_1">
    <g id="xtick_1">
     <g id="line2d_1">
      <path d="M 99.251736 303.64 
L 99.251736 26.88 
" clip-path="url(#p7681ec7dc0)" style="fill: none; stroke: #b0b0b0; stroke-width: 0.8; stroke-linecap: square"/>
     </g>
     <g id="line2d_2">
      <defs>
       <path id="m804b7075a4" d="M 0 0 
L 0 3.5 
" style="stroke: #000000; stroke-width: 0.8"/>
      </defs>
      <g>
       <use xlink:href="#m804b7075a4" x="99.251736" y="303.64" style="stroke: #000000; stroke-width: 0.8"/>
      </g>
     </g>
     <g id="text_1">
      <!-- 2 -->
      <g transform="translate(96.070486 318.238437) scale(0.1 -0.1)">
       <defs>
        <path id="DejaVuSans-32" d="M 1228 531 
L 3431 531 
L 3431 0 
L 469 0 
L 469 531 
Q 828 903 1448 1529 
Q 2069 2156 2228 2338 
Q 2531 2678 2651 2914 
Q 2772 3150 2772 3378 
Q 2772 3750 2511 3984 
Q 2250 4219 1831 4219 
Q 1534 4219 1204 4116 
Q 875 4013 500 3803 
L 500 4441 
Q 881 4594 1212 4672 
Q 1544 4750 1819 4750 
Q 2544 4750 2975 4387 
Q 3406 4025 3406 3419 
Q 3406 3131 3298 2873 
Q 3191 2616 2906 2266 
Q 2828 2175 2409 1742 
Q 1991 1309 1228 531 
z
" transform="scale(0.015625)"/>
       </defs>
       <use xlink:href="#DejaVuSans-32"/>
      </g>
     </g>
    </g>
    <g id="xtick_2">
     <g id="line2d_3">
      <path d="M 165.744298 303.64 
L 165.744298 26.88 
" clip-path="url(#p7681ec7dc0)" style="fill: none; stroke: #b0b0b0; stroke-width: 0.8; stroke-linecap: square"/>
     </g>
     <g id="line2d_4">
      <g>
       <use xlink:href="#m804b7075a4" x="165.744298" y="303.64" style="stroke: #000000; stroke-width: 0.8"/>
      </g>
     </g>
     <g id="text_2">
      <!-- 4 -->
      <g transform="translate(162.563048 318.238437) scale(0.1 -0.1)">
       <defs>
        <path id="DejaVuSans-34" d="M 2419 4116 
L 825 1625 
L 2419 1625 
L 2419 4116 
z
M 2253 4666 
L 3047 4666 
L 3047 1625 
L 3713 1625 
L 3713 1100 
L 3047 1100 
L 3047 0 
L 2419 0 
L 2419 1100 
L 313 1100 
L 313 1709 
L 2253 4666 
z
" transform="scale(0.015625)"/>
       </defs>
       <use xlink:href="#DejaVuSans-34"/>
      </g>
     </g>
    </g>
    <g id="xtick_3">
     <g id="line2d_5">
      <path d="M 232.23686 303.64 
L 232.23686 26.88 
" clip-path="url(#p7681ec7dc0)" style="fill: none; stroke: #b0b0b0; stroke-width: 0.8; stroke-linecap: square"/>
     </g>
     <g id="line2d_6">
      <g>
       <use xlink:href="#m804b7075a4" x="232.23686" y="303.64" style="stroke: #000000; stroke-width: 0.8"/>
      </g>
     </g>
     <g id="text_3">
      <!-- 6 -->
      <g transform="translate(229.05561 318.238437) scale(0.1 -0.1)">
       <defs>
        <path id="DejaVuSans-36" d="M 2113 2584 
Q 1688 2584 1439 2293 
Q 1191 2003 1191 1497 
Q 1191 994 1439 701 
Q 1688 409 2113 409 
Q 2538 409 2786 701 
Q 3034 994 3034 1497 
Q 3034 2003 2786 2293 
Q 2538 2584 2113 2584 
z
M 3366 4563 
L 3366 3988 
Q 3128 4100 2886 4159 
Q 2644 4219 2406 4219 
Q 1781 4219 1451 3797 
Q 1122 3375 1075 2522 
Q 1259 2794 1537 2939 
Q 1816 3084 2150 3084 
Q 2853 3084 3261 2657 
Q 3669 2231 3669 1497 
Q 3669 778 3244 343 
Q 2819 -91 2113 -91 
Q 1303 -91 875 529 
Q 447 1150 447 2328 
Q 447 3434 972 4092 
Q 1497 4750 2381 4750 
Q 2619 4750 2861 4703 
Q 3103 4656 3366 4563 
z
" transform="scale(0.015625)"/>
       </defs>
       <use xlink:href="#DejaVuSans-36"/>
      </g>
     </g>
    </g>
    <g id="xtick_4">
     <g id="line2d_7">
      <path d="M 298.729421 303.64 
L 298.729421 26.88 
" clip-path="url(#p7681ec7dc0)" style="fill: none; stroke: #b0b0b0; stroke-width: 0.8; stroke-linecap: square"/>
     </g>
     <g id="line2d_8">
      <g>
       <use xlink:href="#m804b7075a4" x="298.729421" y="303.64" style="stroke: #000000; stroke-width: 0.8"/>
      </g>
     </g>
     <g id="text_4">
      <!-- 8 -->
      <g transform="translate(295.548171 318.238437) scale(0.1 -0.1)">
       <defs>
        <path id="DejaVuSans-38" d="M 2034 2216 
Q 1584 2216 1326 1975 
Q 1069 1734 1069 1313 
Q 1069 891 1326 650 
Q 1584 409 2034 409 
Q 2484 409 2743 651 
Q 3003 894 3003 1313 
Q 3003 1734 2745 1975 
Q 2488 2216 2034 2216 
z
M 1403 2484 
Q 997 2584 770 2862 
Q 544 3141 544 3541 
Q 544 4100 942 4425 
Q 1341 4750 2034 4750 
Q 2731 4750 3128 4425 
Q 3525 4100 3525 3541 
Q 3525 3141 3298 2862 
Q 3072 2584 2669 2484 
Q 3125 2378 3379 2068 
Q 3634 1759 3634 1313 
Q 3634 634 3220 271 
Q 2806 -91 2034 -91 
Q 1263 -91 848 271 
Q 434 634 434 1313 
Q 434 1759 690 2068 
Q 947 2378 1403 2484 
z
M 1172 3481 
Q 1172 3119 1398 2916 
Q 1625 2713 2034 2713 
Q 2441 2713 2670 2916 
Q 2900 3119 2900 3481 
Q 2900 3844 2670 4047 
Q 2441 4250 2034 4250 
Q 1625 4250 1398 4047 
Q 1172 3844 1172 3481 
z
" transform="scale(0.015625)"/>
       </defs>
       <use xlink:href="#DejaVuSans-38"/>
      </g>
     </g>
    </g>
    <g id="xtick_5">
     <g id="line2d_9">
      <path d="M 365.221983 303.64 
L 365.221983 26.88 
" clip-path="url(#p7681ec7dc0)" style="fill: none; stroke: #b0b0b0; stroke-width: 0.8; stroke-linecap: square"/>
     </g>
     <g id="line2d_10">
      <g>
       <use xlink:href="#m804b7075a4" x="365.221983" y="303.64" style="stroke: #000000; stroke-width: 0.8"/>
      </g>
     </g>
     <g id="text_5">
      <!-- 10 -->
      <g transform="translate(358.859483 318.238437) scale(0.1 -0.1)">
       <defs>
        <path id="DejaVuSans-31" d="M 794 531 
L 1825 531 
L 1825 4091 
L 703 3866 
L 703 4441 
L 1819 4666 
L 2450 4666 
L 2450 531 
L 3481 531 
L 3481 0 
L 794 0 
L 794 531 
z
" transform="scale(0.015625)"/>
        <path id="DejaVuSans-30" d="M 2034 4250 
Q 1547 4250 1301 3770 
Q 1056 3291 1056 2328 
Q 1056 1369 1301 889 
Q 1547 409 2034 409 
Q 2525 409 2770 889 
Q 3016 1369 3016 2328 
Q 3016 3291 2770 3770 
Q 2525 4250 2034 4250 
z
M 2034 4750 
Q 2819 4750 3233 4129 
Q 3647 3509 3647 2328 
Q 3647 1150 3233 529 
Q 2819 -91 2034 -91 
Q 1250 -91 836 529 
Q 422 1150 422 2328 
Q 422 3509 836 4129 
Q 1250 4750 2034 4750 
z
" transform="scale(0.015625)"/>
       </defs>
       <use xlink:href="#DejaVuSans-31"/>
       <use xlink:href="#DejaVuSans-30" transform="translate(63.623047 0)"/>
      </g>
     </g>
    </g>
    <g id="xtick_6">
     <g id="line2d_11">
      <path d="M 431.714545 303.64 
L 431.714545 26.88 
" clip-path="url(#p7681ec7dc0)" style="fill: none; stroke: #b0b0b0; stroke-width: 0.8; stroke-linecap: square"/>
     </g>
     <g id="line2d_12">
      <g>
       <use xlink:href="#m804b7075a4" x="431.714545" y="303.64" style="stroke: #000000; stroke-width: 0.8"/>
      </g>
     </g>
     <g id="text_6">
      <!-- 12 -->
      <g transform="translate(425.352045 318.238437) scale(0.1 -0.1)">
       <use xlink:href="#DejaVuSans-31"/>
       <use xlink:href="#DejaVuSans-32" transform="translate(63.623047 0)"/>
      </g>
     </g>
    </g>
    <g id="text_7">
     <!-- OMP_NUM_THREADS -->
     <g transform="translate(196.988906 331.74) scale(0.1 -0.1)">
      <defs>
       <path id="DejaVuSans-4f" d="M 2522 4238 
Q 1834 4238 1429 3725 
Q 1025 3213 1025 2328 
Q 1025 1447 1429 934 
Q 1834 422 2522 422 
Q 3209 422 3611 934 
Q 4013 1447 4013 2328 
Q 4013 3213 3611 3725 
Q 3209 4238 2522 4238 
z
M 2522 4750 
Q 3503 4750 4090 4092 
Q 4678 3434 4678 2328 
Q 4678 1225 4090 567 
Q 3503 -91 2522 -91 
Q 1538 -91 948 565 
Q 359 1222 359 2328 
Q 359 3434 948 4092 
Q 1538 4750 2522 4750 
z
" transform="scale(0.015625)"/>
       <path id="DejaVuSans-4d" d="M 628 4666 
L 1569 4666 
L 2759 1491 
L 3956 4666 
L 4897 4666 
L 4897 0 
L 4281 0 
L 4281 4097 
L 3078 897 
L 2444 897 
L 1241 4097 
L 1241 0 
L 628 0 
L 628 4666 
z
" transform="scale(0.015625)"/>
       <path id="DejaVuSans-50" d="M 1259 4147 
L 1259 2394 
L 2053 2394 
Q 2494 2394 2734 2622 
Q 2975 2850 2975 3272 
Q 2975 3691 2734 3919 
Q 2494 4147 2053 4147 
L 1259 4147 
z
M 628 4666 
L 2053 4666 
Q 2838 4666 3239 4311 
Q 3641 3956 3641 3272 
Q 3641 2581 3239 2228 
Q 2838 1875 2053 1875 
L 1259 1875 
L 1259 0 
L 628 0 
L 628 4666 
z
" transform="scale(0.015625)"/>
       <path id="DejaVuSans-5f" d="M 3263 -1063 
L 3263 -1509 
L -63 -1509 
L -63 -1063 
L 3263 -1063 
z
" transform="scale(0.015625)"/>
       <path id="DejaVuSans-4e" d="M 628 4666 
L 1478 4666 
L 3547 763 
L 3547 4666 
L 4159 4666 
L 4159 0 
L 3309 0 
L 1241 3903 
L 1241 0 
L 628 0 
L 628 4666 
z
" transform="scale(0.015625)"/>
       <path id="DejaVuSans-55" d="M 556 4666 
L 1191 4666 
L 1191 1831 
Q 1191 1081 1462 751 
Q 1734 422 2344 422 
Q 2950 422 3222 751 
Q 3494 1081 3494 1831 
L 3494 4666 
L 4128 4666 
L 4128 1753 
Q 4128 841 3676 375 
Q 3225 -91 2344 -91 
Q 1459 -91 1007 375 
Q 556 841 556 1753 
L 556 4666 
z
" transform="scale(0.015625)"/>
       <path id="DejaVuSans-54" d="M -19 4666 
L 3928 4666 
L 3928 4134 
L 2272 4134 
L 2272 0 
L 1638 0 
L 1638 4134 
L -19 4134 
L -19 4666 
z
" transform="scale(0.015625)"/>
       <path id="DejaVuSans-48" d="M 628 4666 
L 1259 4666 
L 1259 2753 
L 3553 2753 
L 3553 4666 
L 4184 4666 
L 4184 0 
L 3553 0 
L 3553 2222 
L 1259 2222 
L 1259 0 
L 628 0 
L 628 4666 
z
" transform="scale(0.015625)"/>
       <path id="DejaVuSans-52" d="M 2841 2188 
Q 3044 2119 3236 1894 
Q 3428 1669 3622 1275 
L 4263 0 
L 3584 0 
L 2988 1197 
Q 2756 1666 2539 1819 
Q 2322 1972 1947 1972 
L 1259 1972 
L 1259 0 
L 628 0 
L 628 4666 
L 2053 4666 
Q 2853 4666 3247 4331 
Q 3641 3997 3641 3322 
Q 3641 2881 3436 2590 
Q 3231 2300 2841 2188 
z
M 1259 4147 
L 1259 2491 
L 2053 2491 
Q 2509 2491 2742 2702 
Q 2975 2913 2975 3322 
Q 2975 3731 2742 3939 
Q 2509 4147 2053 4147 
L 1259 4147 
z
" transform="scale(0.015625)"/>
       <path id="DejaVuSans-45" d="M 628 4666 
L 3578 4666 
L 3578 4134 
L 1259 4134 
L 1259 2753 
L 3481 2753 
L 3481 2222 
L 1259 2222 
L 1259 531 
L 3634 531 
L 3634 0 
L 628 0 
L 628 4666 
z
" transform="scale(0.015625)"/>
       <path id="DejaVuSans-41" d="M 2188 4044 
L 1331 1722 
L 3047 1722 
L 2188 4044 
z
M 1831 4666 
L 2547 4666 
L 4325 0 
L 3669 0 
L 3244 1197 
L 1141 1197 
L 716 0 
L 50 0 
L 1831 4666 
z
" transform="scale(0.015625)"/>
       <path id="DejaVuSans-44" d="M 1259 4147 
L 1259 519 
L 2022 519 
Q 2988 519 3436 956 
Q 3884 1394 3884 2338 
Q 3884 3275 3436 3711 
Q 2988 4147 2022 4147 
L 1259 4147 
z
M 628 4666 
L 1925 4666 
Q 3281 4666 3915 4102 
Q 4550 3538 4550 2338 
Q 4550 1131 3912 565 
Q 3275 0 1925 0 
L 628 0 
L 628 4666 
z
" transform="scale(0.015625)"/>
       <path id="DejaVuSans-53" d="M 3425 4513 
L 3425 3897 
Q 3066 4069 2747 4153 
Q 2428 4238 2131 4238 
Q 1616 4238 1336 4038 
Q 1056 3838 1056 3469 
Q 1056 3159 1242 3001 
Q 1428 2844 1947 2747 
L 2328 2669 
Q 3034 2534 3370 2195 
Q 3706 1856 3706 1288 
Q 3706 609 3251 259 
Q 2797 -91 1919 -91 
Q 1588 -91 1214 -16 
Q 841 59 441 206 
L 441 856 
Q 825 641 1194 531 
Q 1563 422 1919 422 
Q 2459 422 2753 634 
Q 3047 847 3047 1241 
Q 3047 1584 2836 1778 
Q 2625 1972 2144 2069 
L 1759 2144 
Q 1053 2284 737 2584 
Q 422 2884 422 3419 
Q 422 4038 858 4394 
Q 1294 4750 2059 4750 
Q 2388 4750 2728 4690 
Q 3069 4631 3425 4513 
z
" transform="scale(0.015625)"/>
      </defs>
      <use xlink:href="#DejaVuSans-4f"/>
      <use xlink:href="#DejaVuSans-4d" transform="translate(78.710938 0)"/>
      <use xlink:href="#DejaVuSans-50" transform="translate(164.990234 0)"/>
      <use xlink:href="#DejaVuSans-5f" transform="translate(225.292969 0)"/>
      <use xlink:href="#DejaVuSans-4e" transform="translate(275.292969 0)"/>
      <use xlink:href="#DejaVuSans-55" transform="translate(350.097656 0)"/>
      <use xlink:href="#DejaVuSans-4d" transform="translate(423.291016 0)"/>
      <use xlink:href="#DejaVuSans-5f" transform="translate(509.570312 0)"/>
      <use xlink:href="#DejaVuSans-54" transform="translate(559.570312 0)"/>
      <use xlink:href="#DejaVuSans-48" transform="translate(620.654297 0)"/>
      <use xlink:href="#DejaVuSans-52" transform="translate(695.849609 0)"/>
      <use xlink:href="#DejaVuSans-45" transform="translate(765.332031 0)"/>
      <use xlink:href="#DejaVuSans-41" transform="translate(828.515625 0)"/>
      <use xlink:href="#DejaVuSans-44" transform="translate(896.923828 0)"/>
      <use xlink:href="#DejaVuSans-53" transform="translate(973.925781 0)"/>
     </g>
    </g>
   </g>
   <g id="matplotlib.axis_2">
    <g id="ytick_1">
     <g id="line2d_13">
      <path d="M 47.72 254.244855 
L 450 254.244855 
" clip-path="url(#p7681ec7dc0)" style="fill: none; stroke: #b0b0b0; stroke-width: 0.8; stroke-linecap: square"/>
     </g>
     <g id="line2d_14">
      <defs>
       <path id="m7f32faeb9d" d="M 0 0 
L -3.5 0 
" style="stroke: #000000; stroke-width: 0.8"/>
      </defs>
      <g>
       <use xlink:href="#m7f32faeb9d" x="47.72" y="254.244855" style="stroke: #000000; stroke-width: 0.8"/>
      </g>
     </g>
     <g id="text_8">
      <!-- 0.2 -->
      <g transform="translate(24.816875 258.044074) scale(0.1 -0.1)">
       <defs>
        <path id="DejaVuSans-2e" d="M 684 794 
L 1344 794 
L 1344 0 
L 684 0 
L 684 794 
z
" transform="scale(0.015625)"/>
       </defs>
       <use xlink:href="#DejaVuSans-30"/>
       <use xlink:href="#DejaVuSans-2e" transform="translate(63.623047 0)"/>
       <use xlink:href="#DejaVuSans-32" transform="translate(95.410156 0)"/>
      </g>
     </g>
    </g>
    <g id="ytick_2">
     <g id="line2d_15">
      <path d="M 47.72 200.548642 
L 450 200.548642 
" clip-path="url(#p7681ec7dc0)" style="fill: none; stroke: #b0b0b0; stroke-width: 0.8; stroke-linecap: square"/>
     </g>
     <g id="line2d_16">
      <g>
       <use xlink:href="#m7f32faeb9d" x="47.72" y="200.548642" style="stroke: #000000; stroke-width: 0.8"/>
      </g>
     </g>
     <g id="text_9">
      <!-- 0.4 -->
      <g transform="translate(24.816875 204.34786) scale(0.1 -0.1)">
       <use xlink:href="#DejaVuSans-30"/>
       <use xlink:href="#DejaVuSans-2e" transform="translate(63.623047 0)"/>
       <use xlink:href="#DejaVuSans-34" transform="translate(95.410156 0)"/>
      </g>
     </g>
    </g>
    <g id="ytick_3">
     <g id="line2d_17">
      <path d="M 47.72 146.852428 
L 450 146.852428 
" clip-path="url(#p7681ec7dc0)" style="fill: none; stroke: #b0b0b0; stroke-width: 0.8; stroke-linecap: square"/>
     </g>
     <g id="line2d_18">
      <g>
       <use xlink:href="#m7f32faeb9d" x="47.72" y="146.852428" style="stroke: #000000; stroke-width: 0.8"/>
      </g>
     </g>
     <g id="text_10">
      <!-- 0.6 -->
      <g transform="translate(24.816875 150.651646) scale(0.1 -0.1)">
       <use xlink:href="#DejaVuSans-30"/>
       <use xlink:href="#DejaVuSans-2e" transform="translate(63.623047 0)"/>
       <use xlink:href="#DejaVuSans-36" transform="translate(95.410156 0)"/>
      </g>
     </g>
    </g>
    <g id="ytick_4">
     <g id="line2d_19">
      <path d="M 47.72 93.156214 
L 450 93.156214 
" clip-path="url(#p7681ec7dc0)" style="fill: none; stroke: #b0b0b0; stroke-width: 0.8; stroke-linecap: square"/>
     </g>
     <g id="line2d_20">
      <g>
       <use xlink:href="#m7f32faeb9d" x="47.72" y="93.156214" style="stroke: #000000; stroke-width: 0.8"/>
      </g>
     </g>
     <g id="text_11">
      <!-- 0.8 -->
      <g transform="translate(24.816875 96.955433) scale(0.1 -0.1)">
       <use xlink:href="#DejaVuSans-30"/>
       <use xlink:href="#DejaVuSans-2e" transform="translate(63.623047 0)"/>
       <use xlink:href="#DejaVuSans-38" transform="translate(95.410156 0)"/>
      </g>
     </g>
    </g>
    <g id="ytick_5">
     <g id="line2d_21">
      <path d="M 47.72 39.46 
L 450 39.46 
" clip-path="url(#p7681ec7dc0)" style="fill: none; stroke: #b0b0b0; stroke-width: 0.8; stroke-linecap: square"/>
     </g>
     <g id="line2d_22">
      <g>
       <use xlink:href="#m7f32faeb9d" x="47.72" y="39.46" style="stroke: #000000; stroke-width: 0.8"/>
      </g>
     </g>
     <g id="text_12">
      <!-- 1.0 -->
      <g transform="translate(24.816875 43.259219) scale(0.1 -0.1)">
       <use xlink:href="#DejaVuSans-31"/>
       <use xlink:href="#DejaVuSans-2e" transform="translate(63.623047 0)"/>
       <use xlink:href="#DejaVuSans-30" transform="translate(95.410156 0)"/>
      </g>
     </g>
    </g>
    <g id="text_13">
     <!-- Efficiency -->
     <g transform="translate(18.737188 189.420937) rotate(-90) scale(0.1 -0.1)">
      <defs>
       <path id="DejaVuSans-66" d="M 2375 4863 
L 2375 4384 
L 1825 4384 
Q 1516 4384 1395 4259 
Q 1275 4134 1275 3809 
L 1275 3500 
L 2222 3500 
L 2222 3053 
L 1275 3053 
L 1275 0 
L 697 0 
L 697 3053 
L 147 3053 
L 147 3500 
L 697 3500 
L 697 3744 
Q 697 4328 969 4595 
Q 1241 4863 1831 4863 
L 2375 4863 
z
" transform="scale(0.015625)"/>
       <path id="DejaVuSans-69" d="M 603 3500 
L 1178 3500 
L 1178 0 
L 603 0 
L 603 3500 
z
M 603 4863 
L 1178 4863 
L 1178 4134 
L 603 4134 
L 603 4863 
z
" transform="scale(0.015625)"/>
       <path id="DejaVuSans-63" d="M 3122 3366 
L 3122 2828 
Q 2878 2963 2633 3030 
Q 2388 3097 2138 3097 
Q 1578 3097 1268 2742 
Q 959 2388 959 1747 
Q 959 1106 1268 751 
Q 1578 397 2138 397 
Q 2388 397 2633 464 
Q 2878 531 3122 666 
L 3122 134 
Q 2881 22 2623 -34 
Q 2366 -91 2075 -91 
Q 1284 -91 818 406 
Q 353 903 353 1747 
Q 353 2603 823 3093 
Q 1294 3584 2113 3584 
Q 2378 3584 2631 3529 
Q 2884 3475 3122 3366 
z
" transform="scale(0.015625)"/>
       <path id="DejaVuSans-65" d="M 3597 1894 
L 3597 1613 
L 953 1613 
Q 991 1019 1311 708 
Q 1631 397 2203 397 
Q 2534 397 2845 478 
Q 3156 559 3463 722 
L 3463 178 
Q 3153 47 2828 -22 
Q 2503 -91 2169 -91 
Q 1331 -91 842 396 
Q 353 884 353 1716 
Q 353 2575 817 3079 
Q 1281 3584 2069 3584 
Q 2775 3584 3186 3129 
Q 3597 2675 3597 1894 
z
M 3022 2063 
Q 3016 2534 2758 2815 
Q 2500 3097 2075 3097 
Q 1594 3097 1305 2825 
Q 1016 2553 972 2059 
L 3022 2063 
z
" transform="scale(0.015625)"/>
       <path id="DejaVuSans-6e" d="M 3513 2113 
L 3513 0 
L 2938 0 
L 2938 2094 
Q 2938 2591 2744 2837 
Q 2550 3084 2163 3084 
Q 1697 3084 1428 2787 
Q 1159 2491 1159 1978 
L 1159 0 
L 581 0 
L 581 3500 
L 1159 3500 
L 1159 2956 
Q 1366 3272 1645 3428 
Q 1925 3584 2291 3584 
Q 2894 3584 3203 3211 
Q 3513 2838 3513 2113 
z
" transform="scale(0.015625)"/>
       <path id="DejaVuSans-79" d="M 2059 -325 
Q 1816 -950 1584 -1140 
Q 1353 -1331 966 -1331 
L 506 -1331 
L 506 -850 
L 844 -850 
Q 1081 -850 1212 -737 
Q 1344 -625 1503 -206 
L 1606 56 
L 191 3500 
L 800 3500 
L 1894 763 
L 2988 3500 
L 3597 3500 
L 2059 -325 
z
" transform="scale(0.015625)"/>
      </defs>
      <use xlink:href="#DejaVuSans-45"/>
      <use xlink:href="#DejaVuSans-66" transform="translate(63.183594 0)"/>
      <use xlink:href="#DejaVuSans-66" transform="translate(98.388672 0)"/>
      <use xlink:href="#DejaVuSans-69" transform="translate(133.59375 0)"/>
      <use xlink:href="#DejaVuSans-63" transform="translate(161.376953 0)"/>
      <use xlink:href="#DejaVuSans-69" transform="translate(216.357422 0)"/>
      <use xlink:href="#DejaVuSans-65" transform="translate(244.140625 0)"/>
      <use xlink:href="#DejaVuSans-6e" transform="translate(305.664062 0)"/>
      <use xlink:href="#DejaVuSans-63" transform="translate(369.042969 0)"/>
      <use xlink:href="#DejaVuSans-79" transform="translate(424.023438 0)"/>
     </g>
    </g>
   </g>
   <g id="line2d_23">
    <path d="M 66.005455 39.46 
L 99.251736 170.686628 
L 165.744298 239.459483 
L 232.23686 263.299253 
L 298.729421 276.924412 
L 365.221983 280.709484 
L 431.714545 285.097185 
" clip-path="url(#p7681ec7dc0)" style="fill: none; stroke: #1f77b4; stroke-width: 1.5; stroke-linecap: square"/>
    <defs>
     <path id="m11bb36b357" d="M 0 3 
C 0.795609 3 1.55874 2.683901 2.12132 2.12132 
C 2.683901 1.55874 3 0.795609 3 0 
C 3 -0.795609 2.683901 -1.55874 2.12132 -2.12132 
C 1.55874 -2.683901 0.795609 -3 0 -3 
C -0.795609 -3 -1.55874 -2.683901 -2.12132 -2.12132 
C -2.683901 -1.55874 -3 -0.795609 -3 0 
C -3 0.795609 -2.683901 1.55874 -2.12132 2.12132 
C -1.55874 2.683901 -0.795609 3 0 3 
z
" style="stroke: #1f77b4"/>
    </defs>
    <g clip-path="url(#p7681ec7dc0)">
     <use xlink:href="#m11bb36b357" x="66.005455" y="39.46" style="fill: #1f77b4; stroke: #1f77b4"/>
     <use xlink:href="#m11bb36b357" x="99.251736" y="170.686628" style="fill: #1f77b4; stroke: #1f77b4"/>
     <use xlink:href="#m11bb36b357" x="165.744298" y="239.459483" style="fill: #1f77b4; stroke: #1f77b4"/>
     <use xlink:href="#m11bb36b357" x="232.23686" y="263.299253" style="fill: #1f77b4; stroke: #1f77b4"/>
     <use xlink:href="#m11bb36b357" x="298.729421" y="276.924412" style="fill: #1f77b4; stroke: #1f77b4"/>
     <use xlink:href="#m11bb36b357" x="365.221983" y="280.709484" style="fill: #1f77b4; stroke: #1f77b4"/>
     <use xlink:href="#m11bb36b357" x="431.714545" y="285.097185" style="fill: #1f77b4; stroke: #1f77b4"/>
    </g>
   </g>
   <g id="line2d_24">
    <path d="M 66.005455 39.46 
L 99.251736 167.825209 
L 165.744298 239.436684 
L 232.23686 263.708415 
L 298.729421 273.401043 
L 365.221983 280.739103 
L 431.714545 285.051313 
" clip-path="url(#p7681ec7dc0)" style="fill: none; stroke: #ff7f0e; stroke-width: 1.5; stroke-linecap: square"/>
    <defs>
     <path id="mc6e49ef484" d="M 0 3 
C 0.795609 3 1.55874 2.683901 2.12132 2.12132 
C 2.683901 1.55874 3 0.795609 3 0 
C 3 -0.795609 2.683901 -1.55874 2.12132 -2.12132 
C 1.55874 -2.683901 0.795609 -3 0 -3 
C -0.795609 -3 -1.55874 -2.683901 -2.12132 -2.12132 
C -2.683901 -1.55874 -3 -0.795609 -3 0 
C -3 0.795609 -2.683901 1.55874 -2.12132 2.12132 
C -1.55874 2.683901 -0.795609 3 0 3 
z
" style="stroke: #ff7f0e"/>
    </defs>
    <g clip-path="url(#p7681ec7dc0)">
     <use xlink:href="#mc6e49ef484" x="66.005455" y="39.46" style="fill: #ff7f0e; stroke: #ff7f0e"/>
     <use xlink:href="#mc6e49ef484" x="99.251736" y="167.825209" style="fill: #ff7f0e; stroke: #ff7f0e"/>
     <use xlink:href="#mc6e49ef484" x="165.744298" y="239.436684" style="fill: #ff7f0e; stroke: #ff7f0e"/>
     <use xlink:href="#mc6e49ef484" x="232.23686" y="263.708415" style="fill: #ff7f0e; stroke: #ff7f0e"/>
     <use xlink:href="#mc6e49ef484" x="298.729421" y="273.401043" style="fill: #ff7f0e; stroke: #ff7f0e"/>
     <use xlink:href="#mc6e49ef484" x="365.221983" y="280.739103" style="fill: #ff7f0e; stroke: #ff7f0e"/>
     <use xlink:href="#mc6e49ef484" x="431.714545" y="285.051313" style="fill: #ff7f0e; stroke: #ff7f0e"/>
    </g>
   </g>
   <g id="line2d_25">
    <path d="M 66.005455 39.46 
L 99.251736 160.02989 
L 165.744298 237.134468 
L 232.23686 267.143879 
L 298.729421 273.514998 
L 365.221983 280.150068 
L 431.714545 286.555905 
" clip-path="url(#p7681ec7dc0)" style="fill: none; stroke: #2ca02c; stroke-width: 1.5; stroke-linecap: square"/>
    <defs>
     <path id="m60979f5e5b" d="M 0 3 
C 0.795609 3 1.55874 2.683901 2.12132 2.12132 
C 2.683901 1.55874 3 0.795609 3 0 
C 3 -0.795609 2.683901 -1.55874 2.12132 -2.12132 
C 1.55874 -2.683901 0.795609 -3 0 -3 
C -0.795609 -3 -1.55874 -2.683901 -2.12132 -2.12132 
C -2.683901 -1.55874 -3 -0.795609 -3 0 
C -3 0.795609 -2.683901 1.55874 -2.12132 2.12132 
C -1.55874 2.683901 -0.795609 3 0 3 
z
" style="stroke: #2ca02c"/>
    </defs>
    <g clip-path="url(#p7681ec7dc0)">
     <use xlink:href="#m60979f5e5b" x="66.005455" y="39.46" style="fill: #2ca02c; stroke: #2ca02c"/>
     <use xlink:href="#m60979f5e5b" x="99.251736" y="160.02989" style="fill: #2ca02c; stroke: #2ca02c"/>
     <use xlink:href="#m60979f5e5b" x="165.744298" y="237.134468" style="fill: #2ca02c; stroke: #2ca02c"/>
     <use xlink:href="#m60979f5e5b" x="232.23686" y="267.143879" style="fill: #2ca02c; stroke: #2ca02c"/>
     <use xlink:href="#m60979f5e5b" x="298.729421" y="273.514998" style="fill: #2ca02c; stroke: #2ca02c"/>
     <use xlink:href="#m60979f5e5b" x="365.221983" y="280.150068" style="fill: #2ca02c; stroke: #2ca02c"/>
     <use xlink:href="#m60979f5e5b" x="431.714545" y="286.555905" style="fill: #2ca02c; stroke: #2ca02c"/>
    </g>
   </g>
   <g id="line2d_26">
    <path d="M 66.005455 39.46 
L 99.251736 162.148472 
L 165.744298 244.371015 
L 232.23686 266.914969 
L 298.729421 276.968171 
L 365.221983 283.184562 
L 431.714545 288.029294 
" clip-path="url(#p7681ec7dc0)" style="fill: none; stroke: #d62728; stroke-width: 1.5; stroke-linecap: square"/>
    <defs>
     <path id="m7073c6abf2" d="M 0 3 
C 0.795609 3 1.55874 2.683901 2.12132 2.12132 
C 2.683901 1.55874 3 0.795609 3 0 
C 3 -0.795609 2.683901 -1.55874 2.12132 -2.12132 
C 1.55874 -2.683901 0.795609 -3 0 -3 
C -0.795609 -3 -1.55874 -2.683901 -2.12132 -2.12132 
C -2.683901 -1.55874 -3 -0.795609 -3 0 
C -3 0.795609 -2.683901 1.55874 -2.12132 2.12132 
C -1.55874 2.683901 -0.795609 3 0 3 
z
" style="stroke: #d62728"/>
    </defs>
    <g clip-path="url(#p7681ec7dc0)">
     <use xlink:href="#m7073c6abf2" x="66.005455" y="39.46" style="fill: #d62728; stroke: #d62728"/>
     <use xlink:href="#m7073c6abf2" x="99.251736" y="162.148472" style="fill: #d62728; stroke: #d62728"/>
     <use xlink:href="#m7073c6abf2" x="165.744298" y="244.371015" style="fill: #d62728; stroke: #d62728"/>
     <use xlink:href="#m7073c6abf2" x="232.23686" y="266.914969" style="fill: #d62728; stroke: #d62728"/>
     <use xlink:href="#m7073c6abf2" x="298.729421" y="276.968171" style="fill: #d62728; stroke: #d62728"/>
     <use xlink:href="#m7073c6abf2" x="365.221983" y="283.184562" style="fill: #d62728; stroke: #d62728"/>
     <use xlink:href="#m7073c6abf2" x="431.714545" y="288.029294" style="fill: #d62728; stroke: #d62728"/>
    </g>
   </g>
   <g id="line2d_27">
    <path d="M 66.005455 39.46 
L 99.251736 167.478592 
L 165.744298 249.415037 
L 232.23686 273.15673 
L 298.729421 279.780631 
L 365.221983 285.227681 
L 431.714545 289.440618 
" clip-path="url(#p7681ec7dc0)" style="fill: none; stroke: #9467bd; stroke-width: 1.5; stroke-linecap: square"/>
    <defs>
     <path id="mdc0dae4a62" d="M 0 3 
C 0.795609 3 1.55874 2.683901 2.12132 2.12132 
C 2.683901 1.55874 3 0.795609 3 0 
C 3 -0.795609 2.683901 -1.55874 2.12132 -2.12132 
C 1.55874 -2.683901 0.795609 -3 0 -3 
C -0.795609 -3 -1.55874 -2.683901 -2.12132 -2.12132 
C -2.683901 -1.55874 -3 -0.795609 -3 0 
C -3 0.795609 -2.683901 1.55874 -2.12132 2.12132 
C -1.55874 2.683901 -0.795609 3 0 3 
z
" style="stroke: #9467bd"/>
    </defs>
    <g clip-path="url(#p7681ec7dc0)">
     <use xlink:href="#mdc0dae4a62" x="66.005455" y="39.46" style="fill: #9467bd; stroke: #9467bd"/>
     <use xlink:href="#mdc0dae4a62" x="99.251736" y="167.478592" style="fill: #9467bd; stroke: #9467bd"/>
     <use xlink:href="#mdc0dae4a62" x="165.744298" y="249.415037" style="fill: #9467bd; stroke: #9467bd"/>
     <use xlink:href="#mdc0dae4a62" x="232.23686" y="273.15673" style="fill: #9467bd; stroke: #9467bd"/>
     <use xlink:href="#mdc0dae4a62" x="298.729421" y="279.780631" style="fill: #9467bd; stroke: #9467bd"/>
     <use xlink:href="#mdc0dae4a62" x="365.221983" y="285.227681" style="fill: #9467bd; stroke: #9467bd"/>
     <use xlink:href="#mdc0dae4a62" x="431.714545" y="289.440618" style="fill: #9467bd; stroke: #9467bd"/>
    </g>
   </g>
   <g id="line2d_28">
    <path d="M 66.005455 39.46 
L 99.251736 166.358547 
L 165.744298 249.402902 
L 232.23686 276.821492 
L 298.729421 279.513234 
L 365.221983 285.45488 
L 431.714545 289.411225 
" clip-path="url(#p7681ec7dc0)" style="fill: none; stroke: #8c564b; stroke-width: 1.5; stroke-linecap: square"/>
    <defs>
     <path id="m49b7cf1a9b" d="M 0 3 
C 0.795609 3 1.55874 2.683901 2.12132 2.12132 
C 2.683901 1.55874 3 0.795609 3 0 
C 3 -0.795609 2.683901 -1.55874 2.12132 -2.12132 
C 1.55874 -2.683901 0.795609 -3 0 -3 
C -0.795609 -3 -1.55874 -2.683901 -2.12132 -2.12132 
C -2.683901 -1.55874 -3 -0.795609 -3 0 
C -3 0.795609 -2.683901 1.55874 -2.12132 2.12132 
C -1.55874 2.683901 -0.795609 3 0 3 
z
" style="stroke: #8c564b"/>
    </defs>
    <g clip-path="url(#p7681ec7dc0)">
     <use xlink:href="#m49b7cf1a9b" x="66.005455" y="39.46" style="fill: #8c564b; stroke: #8c564b"/>
     <use xlink:href="#m49b7cf1a9b" x="99.251736" y="166.358547" style="fill: #8c564b; stroke: #8c564b"/>
     <use xlink:href="#m49b7cf1a9b" x="165.744298" y="249.402902" style="fill: #8c564b; stroke: #8c564b"/>
     <use xlink:href="#m49b7cf1a9b" x="232.23686" y="276.821492" style="fill: #8c564b; stroke: #8c564b"/>
     <use xlink:href="#m49b7cf1a9b" x="298.729421" y="279.513234" style="fill: #8c564b; stroke: #8c564b"/>
     <use xlink:href="#m49b7cf1a9b" x="365.221983" y="285.45488" style="fill: #8c564b; stroke: #8c564b"/>
     <use xlink:href="#m49b7cf1a9b" x="431.714545" y="289.411225" style="fill: #8c564b; stroke: #8c564b"/>
    </g>
   </g>
   <g id="line2d_29">
    <path d="M 66.005455 39.46 
L 99.251736 166.803773 
L 165.744298 249.461728 
L 232.23686 279.567839 
L 298.729421 279.282416 
L 365.221983 286.171307 
L 431.714545 289.512745 
" clip-path="url(#p7681ec7dc0)" style="fill: none; stroke: #e377c2; stroke-width: 1.5; stroke-linecap: square"/>
    <defs>
     <path id="m2f683b7c62" d="M 0 3 
C 0.795609 3 1.55874 2.683901 2.12132 2.12132 
C 2.683901 1.55874 3 0.795609 3 0 
C 3 -0.795609 2.683901 -1.55874 2.12132 -2.12132 
C 1.55874 -2.683901 0.795609 -3 0 -3 
C -0.795609 -3 -1.55874 -2.683901 -2.12132 -2.12132 
C -2.683901 -1.55874 -3 -0.795609 -3 0 
C -3 0.795609 -2.683901 1.55874 -2.12132 2.12132 
C -1.55874 2.683901 -0.795609 3 0 3 
z
" style="stroke: #e377c2"/>
    </defs>
    <g clip-path="url(#p7681ec7dc0)">
     <use xlink:href="#m2f683b7c62" x="66.005455" y="39.46" style="fill: #e377c2; stroke: #e377c2"/>
     <use xlink:href="#m2f683b7c62" x="99.251736" y="166.803773" style="fill: #e377c2; stroke: #e377c2"/>
     <use xlink:href="#m2f683b7c62" x="165.744298" y="249.461728" style="fill: #e377c2; stroke: #e377c2"/>
     <use xlink:href="#m2f683b7c62" x="232.23686" y="279.567839" style="fill: #e377c2; stroke: #e377c2"/>
     <use xlink:href="#m2f683b7c62" x="298.729421" y="279.282416" style="fill: #e377c2; stroke: #e377c2"/>
     <use xlink:href="#m2f683b7c62" x="365.221983" y="286.171307" style="fill: #e377c2; stroke: #e377c2"/>
     <use xlink:href="#m2f683b7c62" x="431.714545" y="289.512745" style="fill: #e377c2; stroke: #e377c2"/>
    </g>
   </g>
   <g id="line2d_30">
    <path d="M 66.005455 39.46 
L 99.251736 172.473793 
L 165.744298 253.725848 
L 232.23686 275.18604 
L 298.729421 281.789876 
L 365.221983 287.544424 
L 431.714545 291.06 
" clip-path="url(#p7681ec7dc0)" style="fill: none; stroke: #7f7f7f; stroke-width: 1.5; stroke-linecap: square"/>
    <defs>
     <path id="m60e0022d42" d="M 0 3 
C 0.795609 3 1.55874 2.683901 2.12132 2.12132 
C 2.683901 1.55874 3 0.795609 3 0 
C 3 -0.795609 2.683901 -1.55874 2.12132 -2.12132 
C 1.55874 -2.683901 0.795609 -3 0 -3 
C -0.795609 -3 -1.55874 -2.683901 -2.12132 -2.12132 
C -2.683901 -1.55874 -3 -0.795609 -3 0 
C -3 0.795609 -2.683901 1.55874 -2.12132 2.12132 
C -1.55874 2.683901 -0.795609 3 0 3 
z
" style="stroke: #7f7f7f"/>
    </defs>
    <g clip-path="url(#p7681ec7dc0)">
     <use xlink:href="#m60e0022d42" x="66.005455" y="39.46" style="fill: #7f7f7f; stroke: #7f7f7f"/>
     <use xlink:href="#m60e0022d42" x="99.251736" y="172.473793" style="fill: #7f7f7f; stroke: #7f7f7f"/>
     <use xlink:href="#m60e0022d42" x="165.744298" y="253.725848" style="fill: #7f7f7f; stroke: #7f7f7f"/>
     <use xlink:href="#m60e0022d42" x="232.23686" y="275.18604" style="fill: #7f7f7f; stroke: #7f7f7f"/>
     <use xlink:href="#m60e0022d42" x="298.729421" y="281.789876" style="fill: #7f7f7f; stroke: #7f7f7f"/>
     <use xlink:href="#m60e0022d42" x="365.221983" y="287.544424" style="fill: #7f7f7f; stroke: #7f7f7f"/>
     <use xlink:href="#m60e0022d42" x="431.714545" y="291.06" style="fill: #7f7f7f; stroke: #7f7f7f"/>
    </g>
   </g>
   <g id="line2d_31">
    <path d="M 66.005455 39.46 
L 99.251736 171.710446 
L 165.744298 251.438485 
L 232.23686 274.297161 
L 298.729421 280.48775 
L 365.221983 286.002247 
L 431.714545 290.01853 
" clip-path="url(#p7681ec7dc0)" style="fill: none; stroke: #bcbd22; stroke-width: 1.5; stroke-linecap: square"/>
    <defs>
     <path id="m33f0c9e0ea" d="M 0 3 
C 0.795609 3 1.55874 2.683901 2.12132 2.12132 
C 2.683901 1.55874 3 0.795609 3 0 
C 3 -0.795609 2.683901 -1.55874 2.12132 -2.12132 
C 1.55874 -2.683901 0.795609 -3 0 -3 
C -0.795609 -3 -1.55874 -2.683901 -2.12132 -2.12132 
C -2.683901 -1.55874 -3 -0.795609 -3 0 
C -3 0.795609 -2.683901 1.55874 -2.12132 2.12132 
C -1.55874 2.683901 -0.795609 3 0 3 
z
" style="stroke: #bcbd22"/>
    </defs>
    <g clip-path="url(#p7681ec7dc0)">
     <use xlink:href="#m33f0c9e0ea" x="66.005455" y="39.46" style="fill: #bcbd22; stroke: #bcbd22"/>
     <use xlink:href="#m33f0c9e0ea" x="99.251736" y="171.710446" style="fill: #bcbd22; stroke: #bcbd22"/>
     <use xlink:href="#m33f0c9e0ea" x="165.744298" y="251.438485" style="fill: #bcbd22; stroke: #bcbd22"/>
     <use xlink:href="#m33f0c9e0ea" x="232.23686" y="274.297161" style="fill: #bcbd22; stroke: #bcbd22"/>
     <use xlink:href="#m33f0c9e0ea" x="298.729421" y="280.48775" style="fill: #bcbd22; stroke: #bcbd22"/>
     <use xlink:href="#m33f0c9e0ea" x="365.221983" y="286.002247" style="fill: #bcbd22; stroke: #bcbd22"/>
     <use xlink:href="#m33f0c9e0ea" x="431.714545" y="290.01853" style="fill: #bcbd22; stroke: #bcbd22"/>
    </g>
   </g>
   <g id="line2d_32">
    <path d="M 66.005455 39.46 
L 99.251736 157.555389 
L 165.744298 236.604272 
L 232.23686 261.687785 
L 298.729421 271.091598 
L 365.221983 278.045729 
L 431.714545 283.12827 
" clip-path="url(#p7681ec7dc0)" style="fill: none; stroke: #17becf; stroke-width: 1.5; stroke-linecap: square"/>
    <defs>
     <path id="mcb6c6a9c7f" d="M 0 3 
C 0.795609 3 1.55874 2.683901 2.12132 2.12132 
C 2.683901 1.55874 3 0.795609 3 0 
C 3 -0.795609 2.683901 -1.55874 2.12132 -2.12132 
C 1.55874 -2.683901 0.795609 -3 0 -3 
C -0.795609 -3 -1.55874 -2.683901 -2.12132 -2.12132 
C -2.683901 -1.55874 -3 -0.795609 -3 0 
C -3 0.795609 -2.683901 1.55874 -2.12132 2.12132 
C -1.55874 2.683901 -0.795609 3 0 3 
z
" style="stroke: #17becf"/>
    </defs>
    <g clip-path="url(#p7681ec7dc0)">
     <use xlink:href="#mcb6c6a9c7f" x="66.005455" y="39.46" style="fill: #17becf; stroke: #17becf"/>
     <use xlink:href="#mcb6c6a9c7f" x="99.251736" y="157.555389" style="fill: #17becf; stroke: #17becf"/>
     <use xlink:href="#mcb6c6a9c7f" x="165.744298" y="236.604272" style="fill: #17becf; stroke: #17becf"/>
     <use xlink:href="#mcb6c6a9c7f" x="232.23686" y="261.687785" style="fill: #17becf; stroke: #17becf"/>
     <use xlink:href="#mcb6c6a9c7f" x="298.729421" y="271.091598" style="fill: #17becf; stroke: #17becf"/>
     <use xlink:href="#mcb6c6a9c7f" x="365.221983" y="278.045729" style="fill: #17becf; stroke: #17becf"/>
     <use xlink:href="#mcb6c6a9c7f" x="431.714545" y="283.12827" style="fill: #17becf; stroke: #17becf"/>
    </g>
   </g>
   <g id="patch_3">
    <path d="M 47.72 303.64 
L 47.72 26.88 
" style="fill: none; stroke: #000000; stroke-width: 0.8; stroke-linejoin: miter; stroke-linecap: square"/>
   </g>
   <g id="patch_4">
    <path d="M 450 303.64 
L 450 26.88 
" style="fill: none; stroke: #000000; stroke-width: 0.8; stroke-linejoin: miter; stroke-linecap: square"/>
   </g>
   <g id="patch_5">
    <path d="M 47.72 303.64 
L 450 303.64 
" style="fill: none; stroke: #000000; stroke-width: 0.8; stroke-linejoin: miter; stroke-linecap: square"/>
   </g>
   <g id="patch_6">
    <path d="M 47.72 26.88 
L 450 26.88 
" style="fill: none; stroke: #000000; stroke-width: 0.8; stroke-linejoin: miter; stroke-linecap: square"/>
   </g>
   <g id="text_14">
    <!-- Efficiency -->
    <g transform="translate(219.866875 20.88) scale(0.12 -0.12)">
     <use xlink:href="#DejaVuSans-45"/>
     <use xlink:href="#DejaVuSans-66" transform="translate(63.183594 0)"/>
     <use xlink:href="#DejaVuSans-66" transform="translate(98.388672 0)"/>
     <use xlink:href="#DejaVuSans-69" transform="translate(133.59375 0)"/>
     <use xlink:href="#DejaVuSans-63" transform="translate(161.376953 0)"/>
     <use xlink:href="#DejaVuSans-69" transform="translate(216.357422 0)"/>
     <use xlink:href="#DejaVuSans-65" transform="translate(244.140625 0)"/>
     <use xlink:href="#DejaVuSans-6e" transform="translate(305.664062 0)"/>
     <use xlink:href="#DejaVuSans-63" transform="translate(369.042969 0)"/>
     <use xlink:href="#DejaVuSans-79" transform="translate(424.023438 0)"/>
    </g>
   </g>
   <g id="legend_1">
    <g id="patch_7">
     <path d="M 348.4 181.66125 
L 443 181.66125 
Q 445 181.66125 445 179.66125 
L 445 33.88 
Q 445 31.88 443 31.88 
L 348.4 31.88 
Q 346.4 31.88 346.4 33.88 
L 346.4 179.66125 
Q 346.4 181.66125 348.4 181.66125 
z
" style="fill: #ffffff; opacity: 0.8; stroke: #cccccc; stroke-linejoin: miter"/>
    </g>
    <g id="line2d_33">
     <path d="M 350.4 39.978437 
L 360.4 39.978437 
L 370.4 39.978437 
" style="fill: none; stroke: #1f77b4; stroke-width: 1.5; stroke-linecap: square"/>
     <g>
      <use xlink:href="#m11bb36b357" x="360.4" y="39.978437" style="fill: #1f77b4; stroke: #1f77b4"/>
     </g>
    </g>
    <g id="text_15">
     <!-- DQSZ=4 -->
     <g transform="translate(378.4 43.478437) scale(0.1 -0.1)">
      <defs>
       <path id="DejaVuSans-51" d="M 2522 4238 
Q 1834 4238 1429 3725 
Q 1025 3213 1025 2328 
Q 1025 1447 1429 934 
Q 1834 422 2522 422 
Q 3209 422 3611 934 
Q 4013 1447 4013 2328 
Q 4013 3213 3611 3725 
Q 3209 4238 2522 4238 
z
M 3406 84 
L 4238 -825 
L 3475 -825 
L 2784 -78 
Q 2681 -84 2626 -87 
Q 2572 -91 2522 -91 
Q 1538 -91 948 567 
Q 359 1225 359 2328 
Q 359 3434 948 4092 
Q 1538 4750 2522 4750 
Q 3503 4750 4090 4092 
Q 4678 3434 4678 2328 
Q 4678 1516 4351 937 
Q 4025 359 3406 84 
z
" transform="scale(0.015625)"/>
       <path id="DejaVuSans-5a" d="M 359 4666 
L 4025 4666 
L 4025 4184 
L 1075 531 
L 4097 531 
L 4097 0 
L 288 0 
L 288 481 
L 3238 4134 
L 359 4134 
L 359 4666 
z
" transform="scale(0.015625)"/>
       <path id="DejaVuSans-3d" d="M 678 2906 
L 4684 2906 
L 4684 2381 
L 678 2381 
L 678 2906 
z
M 678 1631 
L 4684 1631 
L 4684 1100 
L 678 1100 
L 678 1631 
z
" transform="scale(0.015625)"/>
      </defs>
      <use xlink:href="#DejaVuSans-44"/>
      <use xlink:href="#DejaVuSans-51" transform="translate(77.001953 0)"/>
      <use xlink:href="#DejaVuSans-53" transform="translate(155.712891 0)"/>
      <use xlink:href="#DejaVuSans-5a" transform="translate(219.189453 0)"/>
      <use xlink:href="#DejaVuSans-3d" transform="translate(287.695312 0)"/>
      <use xlink:href="#DejaVuSans-34" transform="translate(371.484375 0)"/>
     </g>
    </g>
    <g id="line2d_34">
     <path d="M 350.4 54.656563 
L 360.4 54.656563 
L 370.4 54.656563 
" style="fill: none; stroke: #ff7f0e; stroke-width: 1.5; stroke-linecap: square"/>
     <g>
      <use xlink:href="#mc6e49ef484" x="360.4" y="54.656563" style="fill: #ff7f0e; stroke: #ff7f0e"/>
     </g>
    </g>
    <g id="text_16">
     <!-- DQSZ=8 -->
     <g transform="translate(378.4 58.156563) scale(0.1 -0.1)">
      <use xlink:href="#DejaVuSans-44"/>
      <use xlink:href="#DejaVuSans-51" transform="translate(77.001953 0)"/>
      <use xlink:href="#DejaVuSans-53" transform="translate(155.712891 0)"/>
      <use xlink:href="#DejaVuSans-5a" transform="translate(219.189453 0)"/>
      <use xlink:href="#DejaVuSans-3d" transform="translate(287.695312 0)"/>
      <use xlink:href="#DejaVuSans-38" transform="translate(371.484375 0)"/>
     </g>
    </g>
    <g id="line2d_35">
     <path d="M 350.4 69.334688 
L 360.4 69.334688 
L 370.4 69.334688 
" style="fill: none; stroke: #2ca02c; stroke-width: 1.5; stroke-linecap: square"/>
     <g>
      <use xlink:href="#m60979f5e5b" x="360.4" y="69.334688" style="fill: #2ca02c; stroke: #2ca02c"/>
     </g>
    </g>
    <g id="text_17">
     <!-- DQSZ=16 -->
     <g transform="translate(378.4 72.834688) scale(0.1 -0.1)">
      <use xlink:href="#DejaVuSans-44"/>
      <use xlink:href="#DejaVuSans-51" transform="translate(77.001953 0)"/>
      <use xlink:href="#DejaVuSans-53" transform="translate(155.712891 0)"/>
      <use xlink:href="#DejaVuSans-5a" transform="translate(219.189453 0)"/>
      <use xlink:href="#DejaVuSans-3d" transform="translate(287.695312 0)"/>
      <use xlink:href="#DejaVuSans-31" transform="translate(371.484375 0)"/>
      <use xlink:href="#DejaVuSans-36" transform="translate(435.107422 0)"/>
     </g>
    </g>
    <g id="line2d_36">
     <path d="M 350.4 84.012812 
L 360.4 84.012812 
L 370.4 84.012812 
" style="fill: none; stroke: #d62728; stroke-width: 1.5; stroke-linecap: square"/>
     <g>
      <use xlink:href="#m7073c6abf2" x="360.4" y="84.012812" style="fill: #d62728; stroke: #d62728"/>
     </g>
    </g>
    <g id="text_18">
     <!-- DQSZ=32 -->
     <g transform="translate(378.4 87.512812) scale(0.1 -0.1)">
      <defs>
       <path id="DejaVuSans-33" d="M 2597 2516 
Q 3050 2419 3304 2112 
Q 3559 1806 3559 1356 
Q 3559 666 3084 287 
Q 2609 -91 1734 -91 
Q 1441 -91 1130 -33 
Q 819 25 488 141 
L 488 750 
Q 750 597 1062 519 
Q 1375 441 1716 441 
Q 2309 441 2620 675 
Q 2931 909 2931 1356 
Q 2931 1769 2642 2001 
Q 2353 2234 1838 2234 
L 1294 2234 
L 1294 2753 
L 1863 2753 
Q 2328 2753 2575 2939 
Q 2822 3125 2822 3475 
Q 2822 3834 2567 4026 
Q 2313 4219 1838 4219 
Q 1578 4219 1281 4162 
Q 984 4106 628 3988 
L 628 4550 
Q 988 4650 1302 4700 
Q 1616 4750 1894 4750 
Q 2613 4750 3031 4423 
Q 3450 4097 3450 3541 
Q 3450 3153 3228 2886 
Q 3006 2619 2597 2516 
z
" transform="scale(0.015625)"/>
      </defs>
      <use xlink:href="#DejaVuSans-44"/>
      <use xlink:href="#DejaVuSans-51" transform="translate(77.001953 0)"/>
      <use xlink:href="#DejaVuSans-53" transform="translate(155.712891 0)"/>
      <use xlink:href="#DejaVuSans-5a" transform="translate(219.189453 0)"/>
      <use xlink:href="#DejaVuSans-3d" transform="translate(287.695312 0)"/>
      <use xlink:href="#DejaVuSans-33" transform="translate(371.484375 0)"/>
      <use xlink:href="#DejaVuSans-32" transform="translate(435.107422 0)"/>
     </g>
    </g>
    <g id="line2d_37">
     <path d="M 350.4 98.690938 
L 360.4 98.690938 
L 370.4 98.690938 
" style="fill: none; stroke: #9467bd; stroke-width: 1.5; stroke-linecap: square"/>
     <g>
      <use xlink:href="#mdc0dae4a62" x="360.4" y="98.690938" style="fill: #9467bd; stroke: #9467bd"/>
     </g>
    </g>
    <g id="text_19">
     <!-- DQSZ=64 -->
     <g transform="translate(378.4 102.190938) scale(0.1 -0.1)">
      <use xlink:href="#DejaVuSans-44"/>
      <use xlink:href="#DejaVuSans-51" transform="translate(77.001953 0)"/>
      <use xlink:href="#DejaVuSans-53" transform="translate(155.712891 0)"/>
      <use xlink:href="#DejaVuSans-5a" transform="translate(219.189453 0)"/>
      <use xlink:href="#DejaVuSans-3d" transform="translate(287.695312 0)"/>
      <use xlink:href="#DejaVuSans-36" transform="translate(371.484375 0)"/>
      <use xlink:href="#DejaVuSans-34" transform="translate(435.107422 0)"/>
     </g>
    </g>
    <g id="line2d_38">
     <path d="M 350.4 113.369062 
L 360.4 113.369062 
L 370.4 113.369062 
" style="fill: none; stroke: #8c564b; stroke-width: 1.5; stroke-linecap: square"/>
     <g>
      <use xlink:href="#m49b7cf1a9b" x="360.4" y="113.369062" style="fill: #8c564b; stroke: #8c564b"/>
     </g>
    </g>
    <g id="text_20">
     <!-- DQSZ=128 -->
     <g transform="translate(378.4 116.869062) scale(0.1 -0.1)">
      <use xlink:href="#DejaVuSans-44"/>
      <use xlink:href="#DejaVuSans-51" transform="translate(77.001953 0)"/>
      <use xlink:href="#DejaVuSans-53" transform="translate(155.712891 0)"/>
      <use xlink:href="#DejaVuSans-5a" transform="translate(219.189453 0)"/>
      <use xlink:href="#DejaVuSans-3d" transform="translate(287.695312 0)"/>
      <use xlink:href="#DejaVuSans-31" transform="translate(371.484375 0)"/>
      <use xlink:href="#DejaVuSans-32" transform="translate(435.107422 0)"/>
      <use xlink:href="#DejaVuSans-38" transform="translate(498.730469 0)"/>
     </g>
    </g>
    <g id="line2d_39">
     <path d="M 350.4 128.047188 
L 360.4 128.047188 
L 370.4 128.047188 
" style="fill: none; stroke: #e377c2; stroke-width: 1.5; stroke-linecap: square"/>
     <g>
      <use xlink:href="#m2f683b7c62" x="360.4" y="128.047188" style="fill: #e377c2; stroke: #e377c2"/>
     </g>
    </g>
    <g id="text_21">
     <!-- DQSZ=256 -->
     <g transform="translate(378.4 131.547188) scale(0.1 -0.1)">
      <defs>
       <path id="DejaVuSans-35" d="M 691 4666 
L 3169 4666 
L 3169 4134 
L 1269 4134 
L 1269 2991 
Q 1406 3038 1543 3061 
Q 1681 3084 1819 3084 
Q 2600 3084 3056 2656 
Q 3513 2228 3513 1497 
Q 3513 744 3044 326 
Q 2575 -91 1722 -91 
Q 1428 -91 1123 -41 
Q 819 9 494 109 
L 494 744 
Q 775 591 1075 516 
Q 1375 441 1709 441 
Q 2250 441 2565 725 
Q 2881 1009 2881 1497 
Q 2881 1984 2565 2268 
Q 2250 2553 1709 2553 
Q 1456 2553 1204 2497 
Q 953 2441 691 2322 
L 691 4666 
z
" transform="scale(0.015625)"/>
      </defs>
      <use xlink:href="#DejaVuSans-44"/>
      <use xlink:href="#DejaVuSans-51" transform="translate(77.001953 0)"/>
      <use xlink:href="#DejaVuSans-53" transform="translate(155.712891 0)"/>
      <use xlink:href="#DejaVuSans-5a" transform="translate(219.189453 0)"/>
      <use xlink:href="#DejaVuSans-3d" transform="translate(287.695312 0)"/>
      <use xlink:href="#DejaVuSans-32" transform="translate(371.484375 0)"/>
      <use xlink:href="#DejaVuSans-35" transform="translate(435.107422 0)"/>
      <use xlink:href="#DejaVuSans-36" transform="translate(498.730469 0)"/>
     </g>
    </g>
    <g id="line2d_40">
     <path d="M 350.4 142.725312 
L 360.4 142.725312 
L 370.4 142.725312 
" style="fill: none; stroke: #7f7f7f; stroke-width: 1.5; stroke-linecap: square"/>
     <g>
      <use xlink:href="#m60e0022d42" x="360.4" y="142.725312" style="fill: #7f7f7f; stroke: #7f7f7f"/>
     </g>
    </g>
    <g id="text_22">
     <!-- DQSZ=512 -->
     <g transform="translate(378.4 146.225312) scale(0.1 -0.1)">
      <use xlink:href="#DejaVuSans-44"/>
      <use xlink:href="#DejaVuSans-51" transform="translate(77.001953 0)"/>
      <use xlink:href="#DejaVuSans-53" transform="translate(155.712891 0)"/>
      <use xlink:href="#DejaVuSans-5a" transform="translate(219.189453 0)"/>
      <use xlink:href="#DejaVuSans-3d" transform="translate(287.695312 0)"/>
      <use xlink:href="#DejaVuSans-35" transform="translate(371.484375 0)"/>
      <use xlink:href="#DejaVuSans-31" transform="translate(435.107422 0)"/>
      <use xlink:href="#DejaVuSans-32" transform="translate(498.730469 0)"/>
     </g>
    </g>
    <g id="line2d_41">
     <path d="M 350.4 157.403437 
L 360.4 157.403437 
L 370.4 157.403437 
" style="fill: none; stroke: #bcbd22; stroke-width: 1.5; stroke-linecap: square"/>
     <g>
      <use xlink:href="#m33f0c9e0ea" x="360.4" y="157.403437" style="fill: #bcbd22; stroke: #bcbd22"/>
     </g>
    </g>
    <g id="text_23">
     <!-- DQSZ=1024 -->
     <g transform="translate(378.4 160.903437) scale(0.1 -0.1)">
      <use xlink:href="#DejaVuSans-44"/>
      <use xlink:href="#DejaVuSans-51" transform="translate(77.001953 0)"/>
      <use xlink:href="#DejaVuSans-53" transform="translate(155.712891 0)"/>
      <use xlink:href="#DejaVuSans-5a" transform="translate(219.189453 0)"/>
      <use xlink:href="#DejaVuSans-3d" transform="translate(287.695312 0)"/>
      <use xlink:href="#DejaVuSans-31" transform="translate(371.484375 0)"/>
      <use xlink:href="#DejaVuSans-30" transform="translate(435.107422 0)"/>
      <use xlink:href="#DejaVuSans-32" transform="translate(498.730469 0)"/>
      <use xlink:href="#DejaVuSans-34" transform="translate(562.353516 0)"/>
     </g>
    </g>
    <g id="line2d_42">
     <path d="M 350.4 172.081562 
L 360.4 172.081562 
L 370.4 172.081562 
" style="fill: none; stroke: #17becf; stroke-width: 1.5; stroke-linecap: square"/>
     <g>
      <use xlink:href="#mcb6c6a9c7f" x="360.4" y="172.081562" style="fill: #17becf; stroke: #17becf"/>
     </g>
    </g>
    <g id="text_24">
     <!-- DQSZ=2048 -->
     <g transform="translate(378.4 175.581562) scale(0.1 -0.1)">
      <use xlink:href="#DejaVuSans-44"/>
      <use xlink:href="#DejaVuSans-51" transform="translate(77.001953 0)"/>
      <use xlink:href="#DejaVuSans-53" transform="translate(155.712891 0)"/>
      <use xlink:href="#DejaVuSans-5a" transform="translate(219.189453 0)"/>
      <use xlink:href="#DejaVuSans-3d" transform="translate(287.695312 0)"/>
      <use xlink:href="#DejaVuSans-32" transform="translate(371.484375 0)"/>
      <use xlink:href="#DejaVuSans-30" transform="translate(435.107422 0)"/>
      <use xlink:href="#DejaVuSans-34" transform="translate(498.730469 0)"/>
      <use xlink:href="#DejaVuSans-38" transform="translate(562.353516 0)"/>
     </g>
    </g>
   </g>
  </g>
 </g>
 <defs>
  <clipPath id="p7681ec7dc0">
   <rect x="47.72" y="26.88" width="402.28" height="276.76"/>
  </clipPath>
 </defs>
</svg>
