<?xml version="1.0" encoding="utf-8" standalone="no"?>
<!DOCTYPE svg PUBLIC "-//W3C//DTD SVG 1.1//EN"
  "http://www.w3.org/Graphics/SVG/1.1/DTD/svg11.dtd">
<svg xmlns:xlink="http://www.w3.org/1999/xlink" width="460.8pt" height="345.6pt" viewBox="0 0 460.8 345.6" xmlns="http://www.w3.org/2000/svg" version="1.1">
 <metadata>
  <rdf:RDF xmlns:dc="http://purl.org/dc/elements/1.1/" xmlns:cc="http://creativecommons.org/ns#" xmlns:rdf="http://www.w3.org/1999/02/22-rdf-syntax-ns#">
   <cc:Work>
    <dc:type rdf:resource="http://purl.org/dc/dcmitype/StillImage"/>
    <dc:date>2025-11-15T15:24:11.273951</dc:date>
    <dc:format>image/svg+xml</dc:format>
    <dc:creator>
     <cc:Agent>
      <dc:title>Matplotlib v3.10.7, https://matplotlib.org/</dc:title>
     </cc:Agent>
    </dc:creator>
   </cc:Work>
  </rdf:RDF>
 </metadata>
 <defs>
  <style type="text/css">*{stroke-linejoin: round; stroke-linecap: butt}</style>
 </defs>
 <g id="figure_1">
  <g id="patch_1">
   <path d="M 0 345.6 
L 460.8 345.6 
L 460.8 0 
L 0 0 
z
" style="fill: #ffffff"/>
  </g>
  <g id="axes_1">
   <g id="patch_2">
    <path d="M 47.63 303.64 
L 450 303.64 
L 450 26.88 
L 47.63 26.88 
z
" style="fill: #ffffff"/>
   </g>
   <g id="matplotlib.axis_1">
    <g id="xtick_1">
     <g id="line2d_1">
      <path d="M 99.173264 303.64 
L 99.173264 26.88 
" clip-path="url(#pc2e827723d)" style="fill: none; stroke: #b0b0b0; stroke-width: 0.8; stroke-linecap: square"/>
     </g>
     <g id="line2d_2">
      <defs>
       <path id="m3a2ea5aca7" d="M 0 0 
L 0 3.5 
" style="stroke: #000000; stroke-width: 0.8"/>
      </defs>
      <g>
       <use xlink:href="#m3a2ea5aca7" x="99.173264" y="303.64" style="stroke: #000000; stroke-width: 0.8"/>
      </g>
     </g>
     <g id="text_1">
      <!-- 2 -->
      <g transform="translate(95.992014 318.238437) scale(0.1 -0.1)">
       <defs>
        <path id="DejaVuSans-32" d="M 1228 531 
L 3431 531 
L 3431 0 
L 469 0 
L 469 531 
Q 828 903 1448 1529 
Q 2069 2156 2228 2338 
Q 2531 2678 2651 2914 
Q 2772 3150 2772 3378 
Q 2772 3750 2511 3984 
Q 2250 4219 1831 4219 
Q 1534 4219 1204 4116 
Q 875 4013 500 3803 
L 500 4441 
Q 881 4594 1212 4672 
Q 1544 4750 1819 4750 
Q 2544 4750 2975 4387 
Q 3406 4025 3406 3419 
Q 3406 3131 3298 2873 
Q 3191 2616 2906 2266 
Q 2828 2175 2409 1742 
Q 1991 1309 1228 531 
z
" transform="scale(0.015625)"/>
       </defs>
       <use xlink:href="#DejaVuSans-32"/>
      </g>
     </g>
    </g>
    <g id="xtick_2">
     <g id="line2d_3">
      <path d="M 165.680702 303.64 
L 165.680702 26.88 
" clip-path="url(#pc2e827723d)" style="fill: none; stroke: #b0b0b0; stroke-width: 0.8; stroke-linecap: square"/>
     </g>
     <g id="line2d_4">
      <g>
       <use xlink:href="#m3a2ea5aca7" x="165.680702" y="303.64" style="stroke: #000000; stroke-width: 0.8"/>
      </g>
     </g>
     <g id="text_2">
      <!-- 4 -->
      <g transform="translate(162.499452 318.238437) scale(0.1 -0.1)">
       <defs>
        <path id="DejaVuSans-34" d="M 2419 4116 
L 825 1625 
L 2419 1625 
L 2419 4116 
z
M 2253 4666 
L 3047 4666 
L 3047 1625 
L 3713 1625 
L 3713 1100 
L 3047 1100 
L 3047 0 
L 2419 0 
L 2419 1100 
L 313 1100 
L 313 1709 
L 2253 4666 
z
" transform="scale(0.015625)"/>
       </defs>
       <use xlink:href="#DejaVuSans-34"/>
      </g>
     </g>
    </g>
    <g id="xtick_3">
     <g id="line2d_5">
      <path d="M 232.18814 303.64 
L 232.18814 26.88 
" clip-path="url(#pc2e827723d)" style="fill: none; stroke: #b0b0b0; stroke-width: 0.8; stroke-linecap: square"/>
     </g>
     <g id="line2d_6">
      <g>
       <use xlink:href="#m3a2ea5aca7" x="232.18814" y="303.64" style="stroke: #000000; stroke-width: 0.8"/>
      </g>
     </g>
     <g id="text_3">
      <!-- 6 -->
      <g transform="translate(229.00689 318.238437) scale(0.1 -0.1)">
       <defs>
        <path id="DejaVuSans-36" d="M 2113 2584 
Q 1688 2584 1439 2293 
Q 1191 2003 1191 1497 
Q 1191 994 1439 701 
Q 1688 409 2113 409 
Q 2538 409 2786 701 
Q 3034 994 3034 1497 
Q 3034 2003 2786 2293 
Q 2538 2584 2113 2584 
z
M 3366 4563 
L 3366 3988 
Q 3128 4100 2886 4159 
Q 2644 4219 2406 4219 
Q 1781 4219 1451 3797 
Q 1122 3375 1075 2522 
Q 1259 2794 1537 2939 
Q 1816 3084 2150 3084 
Q 2853 3084 3261 2657 
Q 3669 2231 3669 1497 
Q 3669 778 3244 343 
Q 2819 -91 2113 -91 
Q 1303 -91 875 529 
Q 447 1150 447 2328 
Q 447 3434 972 4092 
Q 1497 4750 2381 4750 
Q 2619 4750 2861 4703 
Q 3103 4656 3366 4563 
z
" transform="scale(0.015625)"/>
       </defs>
       <use xlink:href="#DejaVuSans-36"/>
      </g>
     </g>
    </g>
    <g id="xtick_4">
     <g id="line2d_7">
      <path d="M 298.695579 303.64 
L 298.695579 26.88 
" clip-path="url(#pc2e827723d)" style="fill: none; stroke: #b0b0b0; stroke-width: 0.8; stroke-linecap: square"/>
     </g>
     <g id="line2d_8">
      <g>
       <use xlink:href="#m3a2ea5aca7" x="298.695579" y="303.64" style="stroke: #000000; stroke-width: 0.8"/>
      </g>
     </g>
     <g id="text_4">
      <!-- 8 -->
      <g transform="translate(295.514329 318.238437) scale(0.1 -0.1)">
       <defs>
        <path id="DejaVuSans-38" d="M 2034 2216 
Q 1584 2216 1326 1975 
Q 1069 1734 1069 1313 
Q 1069 891 1326 650 
Q 1584 409 2034 409 
Q 2484 409 2743 651 
Q 3003 894 3003 1313 
Q 3003 1734 2745 1975 
Q 2488 2216 2034 2216 
z
M 1403 2484 
Q 997 2584 770 2862 
Q 544 3141 544 3541 
Q 544 4100 942 4425 
Q 1341 4750 2034 4750 
Q 2731 4750 3128 4425 
Q 3525 4100 3525 3541 
Q 3525 3141 3298 2862 
Q 3072 2584 2669 2484 
Q 3125 2378 3379 2068 
Q 3634 1759 3634 1313 
Q 3634 634 3220 271 
Q 2806 -91 2034 -91 
Q 1263 -91 848 271 
Q 434 634 434 1313 
Q 434 1759 690 2068 
Q 947 2378 1403 2484 
z
M 1172 3481 
Q 1172 3119 1398 2916 
Q 1625 2713 2034 2713 
Q 2441 2713 2670 2916 
Q 2900 3119 2900 3481 
Q 2900 3844 2670 4047 
Q 2441 4250 2034 4250 
Q 1625 4250 1398 4047 
Q 1172 3844 1172 3481 
z
" transform="scale(0.015625)"/>
       </defs>
       <use xlink:href="#DejaVuSans-38"/>
      </g>
     </g>
    </g>
    <g id="xtick_5">
     <g id="line2d_9">
      <path d="M 365.203017 303.64 
L 365.203017 26.88 
" clip-path="url(#pc2e827723d)" style="fill: none; stroke: #b0b0b0; stroke-width: 0.8; stroke-linecap: square"/>
     </g>
     <g id="line2d_10">
      <g>
       <use xlink:href="#m3a2ea5aca7" x="365.203017" y="303.64" style="stroke: #000000; stroke-width: 0.8"/>
      </g>
     </g>
     <g id="text_5">
      <!-- 10 -->
      <g transform="translate(358.840517 318.238437) scale(0.1 -0.1)">
       <defs>
        <path id="DejaVuSans-31" d="M 794 531 
L 1825 531 
L 1825 4091 
L 703 3866 
L 703 4441 
L 1819 4666 
L 2450 4666 
L 2450 531 
L 3481 531 
L 3481 0 
L 794 0 
L 794 531 
z
" transform="scale(0.015625)"/>
        <path id="DejaVuSans-30" d="M 2034 4250 
Q 1547 4250 1301 3770 
Q 1056 3291 1056 2328 
Q 1056 1369 1301 889 
Q 1547 409 2034 409 
Q 2525 409 2770 889 
Q 3016 1369 3016 2328 
Q 3016 3291 2770 3770 
Q 2525 4250 2034 4250 
z
M 2034 4750 
Q 2819 4750 3233 4129 
Q 3647 3509 3647 2328 
Q 3647 1150 3233 529 
Q 2819 -91 2034 -91 
Q 1250 -91 836 529 
Q 422 1150 422 2328 
Q 422 3509 836 4129 
Q 1250 4750 2034 4750 
z
" transform="scale(0.015625)"/>
       </defs>
       <use xlink:href="#DejaVuSans-31"/>
       <use xlink:href="#DejaVuSans-30" transform="translate(63.623047 0)"/>
      </g>
     </g>
    </g>
    <g id="xtick_6">
     <g id="line2d_11">
      <path d="M 431.710455 303.64 
L 431.710455 26.88 
" clip-path="url(#pc2e827723d)" style="fill: none; stroke: #b0b0b0; stroke-width: 0.8; stroke-linecap: square"/>
     </g>
     <g id="line2d_12">
      <g>
       <use xlink:href="#m3a2ea5aca7" x="431.710455" y="303.64" style="stroke: #000000; stroke-width: 0.8"/>
      </g>
     </g>
     <g id="text_6">
      <!-- 12 -->
      <g transform="translate(425.347955 318.238437) scale(0.1 -0.1)">
       <use xlink:href="#DejaVuSans-31"/>
       <use xlink:href="#DejaVuSans-32" transform="translate(63.623047 0)"/>
      </g>
     </g>
    </g>
    <g id="text_7">
     <!-- OMP_NUM_THREADS -->
     <g transform="translate(196.943906 331.74) scale(0.1 -0.1)">
      <defs>
       <path id="DejaVuSans-4f" d="M 2522 4238 
Q 1834 4238 1429 3725 
Q 1025 3213 1025 2328 
Q 1025 1447 1429 934 
Q 1834 422 2522 422 
Q 3209 422 3611 934 
Q 4013 1447 4013 2328 
Q 4013 3213 3611 3725 
Q 3209 4238 2522 4238 
z
M 2522 4750 
Q 3503 4750 4090 4092 
Q 4678 3434 4678 2328 
Q 4678 1225 4090 567 
Q 3503 -91 2522 -91 
Q 1538 -91 948 565 
Q 359 1222 359 2328 
Q 359 3434 948 4092 
Q 1538 4750 2522 4750 
z
" transform="scale(0.015625)"/>
       <path id="DejaVuSans-4d" d="M 628 4666 
L 1569 4666 
L 2759 1491 
L 3956 4666 
L 4897 4666 
L 4897 0 
L 4281 0 
L 4281 4097 
L 3078 897 
L 2444 897 
L 1241 4097 
L 1241 0 
L 628 0 
L 628 4666 
z
" transform="scale(0.015625)"/>
       <path id="DejaVuSans-50" d="M 1259 4147 
L 1259 2394 
L 2053 2394 
Q 2494 2394 2734 2622 
Q 2975 2850 2975 3272 
Q 2975 3691 2734 3919 
Q 2494 4147 2053 4147 
L 1259 4147 
z
M 628 4666 
L 2053 4666 
Q 2838 4666 3239 4311 
Q 3641 3956 3641 3272 
Q 3641 2581 3239 2228 
Q 2838 1875 2053 1875 
L 1259 1875 
L 1259 0 
L 628 0 
L 628 4666 
z
" transform="scale(0.015625)"/>
       <path id="DejaVuSans-5f" d="M 3263 -1063 
L 3263 -1509 
L -63 -1509 
L -63 -1063 
L 3263 -1063 
z
" transform="scale(0.015625)"/>
       <path id="DejaVuSans-4e" d="M 628 4666 
L 1478 4666 
L 3547 763 
L 3547 4666 
L 4159 4666 
L 4159 0 
L 3309 0 
L 1241 3903 
L 1241 0 
L 628 0 
L 628 4666 
z
" transform="scale(0.015625)"/>
       <path id="DejaVuSans-55" d="M 556 4666 
L 1191 4666 
L 1191 1831 
Q 1191 1081 1462 751 
Q 1734 422 2344 422 
Q 2950 422 3222 751 
Q 3494 1081 3494 1831 
L 3494 4666 
L 4128 4666 
L 4128 1753 
Q 4128 841 3676 375 
Q 3225 -91 2344 -91 
Q 1459 -91 1007 375 
Q 556 841 556 1753 
L 556 4666 
z
" transform="scale(0.015625)"/>
       <path id="DejaVuSans-54" d="M -19 4666 
L 3928 4666 
L 3928 4134 
L 2272 4134 
L 2272 0 
L 1638 0 
L 1638 4134 
L -19 4134 
L -19 4666 
z
" transform="scale(0.015625)"/>
       <path id="DejaVuSans-48" d="M 628 4666 
L 1259 4666 
L 1259 2753 
L 3553 2753 
L 3553 4666 
L 4184 4666 
L 4184 0 
L 3553 0 
L 3553 2222 
L 1259 2222 
L 1259 0 
L 628 0 
L 628 4666 
z
" transform="scale(0.015625)"/>
       <path id="DejaVuSans-52" d="M 2841 2188 
Q 3044 2119 3236 1894 
Q 3428 1669 3622 1275 
L 4263 0 
L 3584 0 
L 2988 1197 
Q 2756 1666 2539 1819 
Q 2322 1972 1947 1972 
L 1259 1972 
L 1259 0 
L 628 0 
L 628 4666 
L 2053 4666 
Q 2853 4666 3247 4331 
Q 3641 3997 3641 3322 
Q 3641 2881 3436 2590 
Q 3231 2300 2841 2188 
z
M 1259 4147 
L 1259 2491 
L 2053 2491 
Q 2509 2491 2742 2702 
Q 2975 2913 2975 3322 
Q 2975 3731 2742 3939 
Q 2509 4147 2053 4147 
L 1259 4147 
z
" transform="scale(0.015625)"/>
       <path id="DejaVuSans-45" d="M 628 4666 
L 3578 4666 
L 3578 4134 
L 1259 4134 
L 1259 2753 
L 3481 2753 
L 3481 2222 
L 1259 2222 
L 1259 531 
L 3634 531 
L 3634 0 
L 628 0 
L 628 4666 
z
" transform="scale(0.015625)"/>
       <path id="DejaVuSans-41" d="M 2188 4044 
L 1331 1722 
L 3047 1722 
L 2188 4044 
z
M 1831 4666 
L 2547 4666 
L 4325 0 
L 3669 0 
L 3244 1197 
L 1141 1197 
L 716 0 
L 50 0 
L 1831 4666 
z
" transform="scale(0.015625)"/>
       <path id="DejaVuSans-44" d="M 1259 4147 
L 1259 519 
L 2022 519 
Q 2988 519 3436 956 
Q 3884 1394 3884 2338 
Q 3884 3275 3436 3711 
Q 2988 4147 2022 4147 
L 1259 4147 
z
M 628 4666 
L 1925 4666 
Q 3281 4666 3915 4102 
Q 4550 3538 4550 2338 
Q 4550 1131 3912 565 
Q 3275 0 1925 0 
L 628 0 
L 628 4666 
z
" transform="scale(0.015625)"/>
       <path id="DejaVuSans-53" d="M 3425 4513 
L 3425 3897 
Q 3066 4069 2747 4153 
Q 2428 4238 2131 4238 
Q 1616 4238 1336 4038 
Q 1056 3838 1056 3469 
Q 1056 3159 1242 3001 
Q 1428 2844 1947 2747 
L 2328 2669 
Q 3034 2534 3370 2195 
Q 3706 1856 3706 1288 
Q 3706 609 3251 259 
Q 2797 -91 1919 -91 
Q 1588 -91 1214 -16 
Q 841 59 441 206 
L 441 856 
Q 825 641 1194 531 
Q 1563 422 1919 422 
Q 2459 422 2753 634 
Q 3047 847 3047 1241 
Q 3047 1584 2836 1778 
Q 2625 1972 2144 2069 
L 1759 2144 
Q 1053 2284 737 2584 
Q 422 2884 422 3419 
Q 422 4038 858 4394 
Q 1294 4750 2059 4750 
Q 2388 4750 2728 4690 
Q 3069 4631 3425 4513 
z
" transform="scale(0.015625)"/>
      </defs>
      <use xlink:href="#DejaVuSans-4f"/>
      <use xlink:href="#DejaVuSans-4d" transform="translate(78.710938 0)"/>
      <use xlink:href="#DejaVuSans-50" transform="translate(164.990234 0)"/>
      <use xlink:href="#DejaVuSans-5f" transform="translate(225.292969 0)"/>
      <use xlink:href="#DejaVuSans-4e" transform="translate(275.292969 0)"/>
      <use xlink:href="#DejaVuSans-55" transform="translate(350.097656 0)"/>
      <use xlink:href="#DejaVuSans-4d" transform="translate(423.291016 0)"/>
      <use xlink:href="#DejaVuSans-5f" transform="translate(509.570312 0)"/>
      <use xlink:href="#DejaVuSans-54" transform="translate(559.570312 0)"/>
      <use xlink:href="#DejaVuSans-48" transform="translate(620.654297 0)"/>
      <use xlink:href="#DejaVuSans-52" transform="translate(695.849609 0)"/>
      <use xlink:href="#DejaVuSans-45" transform="translate(765.332031 0)"/>
      <use xlink:href="#DejaVuSans-41" transform="translate(828.515625 0)"/>
      <use xlink:href="#DejaVuSans-44" transform="translate(896.923828 0)"/>
      <use xlink:href="#DejaVuSans-53" transform="translate(973.925781 0)"/>
     </g>
    </g>
   </g>
   <g id="matplotlib.axis_2">
    <g id="ytick_1">
     <g id="line2d_13">
      <path d="M 47.63 277.821111 
L 450 277.821111 
" clip-path="url(#pc2e827723d)" style="fill: none; stroke: #b0b0b0; stroke-width: 0.8; stroke-linecap: square"/>
     </g>
     <g id="line2d_14">
      <defs>
       <path id="me545953a4d" d="M 0 0 
L -3.5 0 
" style="stroke: #000000; stroke-width: 0.8"/>
      </defs>
      <g>
       <use xlink:href="#me545953a4d" x="47.63" y="277.821111" style="stroke: #000000; stroke-width: 0.8"/>
      </g>
     </g>
     <g id="text_8">
      <!-- 3.0 -->
      <g transform="translate(24.726875 281.62033) scale(0.1 -0.1)">
       <defs>
        <path id="DejaVuSans-33" d="M 2597 2516 
Q 3050 2419 3304 2112 
Q 3559 1806 3559 1356 
Q 3559 666 3084 287 
Q 2609 -91 1734 -91 
Q 1441 -91 1130 -33 
Q 819 25 488 141 
L 488 750 
Q 750 597 1062 519 
Q 1375 441 1716 441 
Q 2309 441 2620 675 
Q 2931 909 2931 1356 
Q 2931 1769 2642 2001 
Q 2353 2234 1838 2234 
L 1294 2234 
L 1294 2753 
L 1863 2753 
Q 2328 2753 2575 2939 
Q 2822 3125 2822 3475 
Q 2822 3834 2567 4026 
Q 2313 4219 1838 4219 
Q 1578 4219 1281 4162 
Q 984 4106 628 3988 
L 628 4550 
Q 988 4650 1302 4700 
Q 1616 4750 1894 4750 
Q 2613 4750 3031 4423 
Q 3450 4097 3450 3541 
Q 3450 3153 3228 2886 
Q 3006 2619 2597 2516 
z
" transform="scale(0.015625)"/>
        <path id="DejaVuSans-2e" d="M 684 794 
L 1344 794 
L 1344 0 
L 684 0 
L 684 794 
z
" transform="scale(0.015625)"/>
       </defs>
       <use xlink:href="#DejaVuSans-33"/>
       <use xlink:href="#DejaVuSans-2e" transform="translate(63.623047 0)"/>
       <use xlink:href="#DejaVuSans-30" transform="translate(95.410156 0)"/>
      </g>
     </g>
    </g>
    <g id="ytick_2">
     <g id="line2d_15">
      <path d="M 47.63 228.147773 
L 450 228.147773 
" clip-path="url(#pc2e827723d)" style="fill: none; stroke: #b0b0b0; stroke-width: 0.8; stroke-linecap: square"/>
     </g>
     <g id="line2d_16">
      <g>
       <use xlink:href="#me545953a4d" x="47.63" y="228.147773" style="stroke: #000000; stroke-width: 0.8"/>
      </g>
     </g>
     <g id="text_9">
      <!-- 3.5 -->
      <g transform="translate(24.726875 231.946992) scale(0.1 -0.1)">
       <defs>
        <path id="DejaVuSans-35" d="M 691 4666 
L 3169 4666 
L 3169 4134 
L 1269 4134 
L 1269 2991 
Q 1406 3038 1543 3061 
Q 1681 3084 1819 3084 
Q 2600 3084 3056 2656 
Q 3513 2228 3513 1497 
Q 3513 744 3044 326 
Q 2575 -91 1722 -91 
Q 1428 -91 1123 -41 
Q 819 9 494 109 
L 494 744 
Q 775 591 1075 516 
Q 1375 441 1709 441 
Q 2250 441 2565 725 
Q 2881 1009 2881 1497 
Q 2881 1984 2565 2268 
Q 2250 2553 1709 2553 
Q 1456 2553 1204 2497 
Q 953 2441 691 2322 
L 691 4666 
z
" transform="scale(0.015625)"/>
       </defs>
       <use xlink:href="#DejaVuSans-33"/>
       <use xlink:href="#DejaVuSans-2e" transform="translate(63.623047 0)"/>
       <use xlink:href="#DejaVuSans-35" transform="translate(95.410156 0)"/>
      </g>
     </g>
    </g>
    <g id="ytick_3">
     <g id="line2d_17">
      <path d="M 47.63 178.474436 
L 450 178.474436 
" clip-path="url(#pc2e827723d)" style="fill: none; stroke: #b0b0b0; stroke-width: 0.8; stroke-linecap: square"/>
     </g>
     <g id="line2d_18">
      <g>
       <use xlink:href="#me545953a4d" x="47.63" y="178.474436" style="stroke: #000000; stroke-width: 0.8"/>
      </g>
     </g>
     <g id="text_10">
      <!-- 4.0 -->
      <g transform="translate(24.726875 182.273655) scale(0.1 -0.1)">
       <use xlink:href="#DejaVuSans-34"/>
       <use xlink:href="#DejaVuSans-2e" transform="translate(63.623047 0)"/>
       <use xlink:href="#DejaVuSans-30" transform="translate(95.410156 0)"/>
      </g>
     </g>
    </g>
    <g id="ytick_4">
     <g id="line2d_19">
      <path d="M 47.63 128.801098 
L 450 128.801098 
" clip-path="url(#pc2e827723d)" style="fill: none; stroke: #b0b0b0; stroke-width: 0.8; stroke-linecap: square"/>
     </g>
     <g id="line2d_20">
      <g>
       <use xlink:href="#me545953a4d" x="47.63" y="128.801098" style="stroke: #000000; stroke-width: 0.8"/>
      </g>
     </g>
     <g id="text_11">
      <!-- 4.5 -->
      <g transform="translate(24.726875 132.600317) scale(0.1 -0.1)">
       <use xlink:href="#DejaVuSans-34"/>
       <use xlink:href="#DejaVuSans-2e" transform="translate(63.623047 0)"/>
       <use xlink:href="#DejaVuSans-35" transform="translate(95.410156 0)"/>
      </g>
     </g>
    </g>
    <g id="ytick_5">
     <g id="line2d_21">
      <path d="M 47.63 79.127761 
L 450 79.127761 
" clip-path="url(#pc2e827723d)" style="fill: none; stroke: #b0b0b0; stroke-width: 0.8; stroke-linecap: square"/>
     </g>
     <g id="line2d_22">
      <g>
       <use xlink:href="#me545953a4d" x="47.63" y="79.127761" style="stroke: #000000; stroke-width: 0.8"/>
      </g>
     </g>
     <g id="text_12">
      <!-- 5.0 -->
      <g transform="translate(24.726875 82.92698) scale(0.1 -0.1)">
       <use xlink:href="#DejaVuSans-35"/>
       <use xlink:href="#DejaVuSans-2e" transform="translate(63.623047 0)"/>
       <use xlink:href="#DejaVuSans-30" transform="translate(95.410156 0)"/>
      </g>
     </g>
    </g>
    <g id="ytick_6">
     <g id="line2d_23">
      <path d="M 47.63 29.454423 
L 450 29.454423 
" clip-path="url(#pc2e827723d)" style="fill: none; stroke: #b0b0b0; stroke-width: 0.8; stroke-linecap: square"/>
     </g>
     <g id="line2d_24">
      <g>
       <use xlink:href="#me545953a4d" x="47.63" y="29.454423" style="stroke: #000000; stroke-width: 0.8"/>
      </g>
     </g>
     <g id="text_13">
      <!-- 5.5 -->
      <g transform="translate(24.726875 33.253642) scale(0.1 -0.1)">
       <use xlink:href="#DejaVuSans-35"/>
       <use xlink:href="#DejaVuSans-2e" transform="translate(63.623047 0)"/>
       <use xlink:href="#DejaVuSans-35" transform="translate(95.410156 0)"/>
      </g>
     </g>
    </g>
    <g id="text_14">
     <!-- IPC -->
     <g transform="translate(18.647188 173.24125) rotate(-90) scale(0.1 -0.1)">
      <defs>
       <path id="DejaVuSans-49" d="M 628 4666 
L 1259 4666 
L 1259 0 
L 628 0 
L 628 4666 
z
" transform="scale(0.015625)"/>
       <path id="DejaVuSans-43" d="M 4122 4306 
L 4122 3641 
Q 3803 3938 3442 4084 
Q 3081 4231 2675 4231 
Q 1875 4231 1450 3742 
Q 1025 3253 1025 2328 
Q 1025 1406 1450 917 
Q 1875 428 2675 428 
Q 3081 428 3442 575 
Q 3803 722 4122 1019 
L 4122 359 
Q 3791 134 3420 21 
Q 3050 -91 2638 -91 
Q 1578 -91 968 557 
Q 359 1206 359 2328 
Q 359 3453 968 4101 
Q 1578 4750 2638 4750 
Q 3056 4750 3426 4639 
Q 3797 4528 4122 4306 
z
" transform="scale(0.015625)"/>
      </defs>
      <use xlink:href="#DejaVuSans-49"/>
      <use xlink:href="#DejaVuSans-50" transform="translate(29.492188 0)"/>
      <use xlink:href="#DejaVuSans-43" transform="translate(89.794922 0)"/>
     </g>
    </g>
   </g>
   <g id="line2d_25">
    <path d="M 65.919545 284.117072 
L 99.173264 289.822582 
L 165.680702 289.203973 
L 232.18814 290.222373 
L 298.695579 291.06 
L 365.203017 290.921769 
L 431.710455 287.339353 
" clip-path="url(#pc2e827723d)" style="fill: none; stroke: #1f77b4; stroke-width: 1.5; stroke-linecap: square"/>
    <defs>
     <path id="mbb404d06b9" d="M 0 3 
C 0.795609 3 1.55874 2.683901 2.12132 2.12132 
C 2.683901 1.55874 3 0.795609 3 0 
C 3 -0.795609 2.683901 -1.55874 2.12132 -2.12132 
C 1.55874 -2.683901 0.795609 -3 0 -3 
C -0.795609 -3 -1.55874 -2.683901 -2.12132 -2.12132 
C -2.683901 -1.55874 -3 -0.795609 -3 0 
C -3 0.795609 -2.683901 1.55874 -2.12132 2.12132 
C -1.55874 2.683901 -0.795609 3 0 3 
z
" style="stroke: #1f77b4"/>
    </defs>
    <g clip-path="url(#pc2e827723d)">
     <use xlink:href="#mbb404d06b9" x="65.919545" y="284.117072" style="fill: #1f77b4; stroke: #1f77b4"/>
     <use xlink:href="#mbb404d06b9" x="99.173264" y="289.822582" style="fill: #1f77b4; stroke: #1f77b4"/>
     <use xlink:href="#mbb404d06b9" x="165.680702" y="289.203973" style="fill: #1f77b4; stroke: #1f77b4"/>
     <use xlink:href="#mbb404d06b9" x="232.18814" y="290.222373" style="fill: #1f77b4; stroke: #1f77b4"/>
     <use xlink:href="#mbb404d06b9" x="298.695579" y="291.06" style="fill: #1f77b4; stroke: #1f77b4"/>
     <use xlink:href="#mbb404d06b9" x="365.203017" y="290.921769" style="fill: #1f77b4; stroke: #1f77b4"/>
     <use xlink:href="#mbb404d06b9" x="431.710455" y="287.339353" style="fill: #1f77b4; stroke: #1f77b4"/>
    </g>
   </g>
   <g id="line2d_26">
    <path d="M 65.919545 233.102063 
L 99.173264 238.500496 
L 165.680702 240.750087 
L 232.18814 231.794524 
L 298.695579 246.260353 
L 365.203017 241.380864 
L 431.710455 231.599576 
" clip-path="url(#pc2e827723d)" style="fill: none; stroke: #ff7f0e; stroke-width: 1.5; stroke-linecap: square"/>
    <defs>
     <path id="m52a63b3776" d="M 0 3 
C 0.795609 3 1.55874 2.683901 2.12132 2.12132 
C 2.683901 1.55874 3 0.795609 3 0 
C 3 -0.795609 2.683901 -1.55874 2.12132 -2.12132 
C 1.55874 -2.683901 0.795609 -3 0 -3 
C -0.795609 -3 -1.55874 -2.683901 -2.12132 -2.12132 
C -2.683901 -1.55874 -3 -0.795609 -3 0 
C -3 0.795609 -2.683901 1.55874 -2.12132 2.12132 
C -1.55874 2.683901 -0.795609 3 0 3 
z
" style="stroke: #ff7f0e"/>
    </defs>
    <g clip-path="url(#pc2e827723d)">
     <use xlink:href="#m52a63b3776" x="65.919545" y="233.102063" style="fill: #ff7f0e; stroke: #ff7f0e"/>
     <use xlink:href="#m52a63b3776" x="99.173264" y="238.500496" style="fill: #ff7f0e; stroke: #ff7f0e"/>
     <use xlink:href="#m52a63b3776" x="165.680702" y="240.750087" style="fill: #ff7f0e; stroke: #ff7f0e"/>
     <use xlink:href="#m52a63b3776" x="232.18814" y="231.794524" style="fill: #ff7f0e; stroke: #ff7f0e"/>
     <use xlink:href="#m52a63b3776" x="298.695579" y="246.260353" style="fill: #ff7f0e; stroke: #ff7f0e"/>
     <use xlink:href="#m52a63b3776" x="365.203017" y="241.380864" style="fill: #ff7f0e; stroke: #ff7f0e"/>
     <use xlink:href="#m52a63b3776" x="431.710455" y="231.599576" style="fill: #ff7f0e; stroke: #ff7f0e"/>
    </g>
   </g>
   <g id="line2d_27">
    <path d="M 65.919545 220.572789 
L 99.173264 222.30885 
L 165.680702 184.624346 
L 232.18814 187.841459 
L 298.695579 186.32061 
L 365.203017 186.168184 
L 431.710455 178.169525 
" clip-path="url(#pc2e827723d)" style="fill: none; stroke: #2ca02c; stroke-width: 1.5; stroke-linecap: square"/>
    <defs>
     <path id="m7181dde9c8" d="M 0 3 
C 0.795609 3 1.55874 2.683901 2.12132 2.12132 
C 2.683901 1.55874 3 0.795609 3 0 
C 3 -0.795609 2.683901 -1.55874 2.12132 -2.12132 
C 1.55874 -2.683901 0.795609 -3 0 -3 
C -0.795609 -3 -1.55874 -2.683901 -2.12132 -2.12132 
C -2.683901 -1.55874 -3 -0.795609 -3 0 
C -3 0.795609 -2.683901 1.55874 -2.12132 2.12132 
C -1.55874 2.683901 -0.795609 3 0 3 
z
" style="stroke: #2ca02c"/>
    </defs>
    <g clip-path="url(#pc2e827723d)">
     <use xlink:href="#m7181dde9c8" x="65.919545" y="220.572789" style="fill: #2ca02c; stroke: #2ca02c"/>
     <use xlink:href="#m7181dde9c8" x="99.173264" y="222.30885" style="fill: #2ca02c; stroke: #2ca02c"/>
     <use xlink:href="#m7181dde9c8" x="165.680702" y="184.624346" style="fill: #2ca02c; stroke: #2ca02c"/>
     <use xlink:href="#m7181dde9c8" x="232.18814" y="187.841459" style="fill: #2ca02c; stroke: #2ca02c"/>
     <use xlink:href="#m7181dde9c8" x="298.695579" y="186.32061" style="fill: #2ca02c; stroke: #2ca02c"/>
     <use xlink:href="#m7181dde9c8" x="365.203017" y="186.168184" style="fill: #2ca02c; stroke: #2ca02c"/>
     <use xlink:href="#m7181dde9c8" x="431.710455" y="178.169525" style="fill: #2ca02c; stroke: #2ca02c"/>
    </g>
   </g>
   <g id="line2d_28">
    <path d="M 65.919545 185.630394 
L 99.173264 184.653651 
L 165.680702 139.654665 
L 232.18814 154.488774 
L 298.695579 153.041656 
L 365.203017 141.057009 
L 431.710455 149.150485 
" clip-path="url(#pc2e827723d)" style="fill: none; stroke: #d62728; stroke-width: 1.5; stroke-linecap: square"/>
    <defs>
     <path id="ma1024f190d" d="M 0 3 
C 0.795609 3 1.55874 2.683901 2.12132 2.12132 
C 2.683901 1.55874 3 0.795609 3 0 
C 3 -0.795609 2.683901 -1.55874 2.12132 -2.12132 
C 1.55874 -2.683901 0.795609 -3 0 -3 
C -0.795609 -3 -1.55874 -2.683901 -2.12132 -2.12132 
C -2.683901 -1.55874 -3 -0.795609 -3 0 
C -3 0.795609 -2.683901 1.55874 -2.12132 2.12132 
C -1.55874 2.683901 -0.795609 3 0 3 
z
" style="stroke: #d62728"/>
    </defs>
    <g clip-path="url(#pc2e827723d)">
     <use xlink:href="#ma1024f190d" x="65.919545" y="185.630394" style="fill: #d62728; stroke: #d62728"/>
     <use xlink:href="#ma1024f190d" x="99.173264" y="184.653651" style="fill: #d62728; stroke: #d62728"/>
     <use xlink:href="#ma1024f190d" x="165.680702" y="139.654665" style="fill: #d62728; stroke: #d62728"/>
     <use xlink:href="#ma1024f190d" x="232.18814" y="154.488774" style="fill: #d62728; stroke: #d62728"/>
     <use xlink:href="#ma1024f190d" x="298.695579" y="153.041656" style="fill: #d62728; stroke: #d62728"/>
     <use xlink:href="#ma1024f190d" x="365.203017" y="141.057009" style="fill: #d62728; stroke: #d62728"/>
     <use xlink:href="#ma1024f190d" x="431.710455" y="149.150485" style="fill: #d62728; stroke: #d62728"/>
    </g>
   </g>
   <g id="line2d_29">
    <path d="M 65.919545 87.867083 
L 99.173264 108.301029 
L 165.680702 97.064035 
L 232.18814 97.317372 
L 298.695579 120.784942 
L 365.203017 102.600882 
L 431.710455 109.844221 
" clip-path="url(#pc2e827723d)" style="fill: none; stroke: #9467bd; stroke-width: 1.5; stroke-linecap: square"/>
    <defs>
     <path id="m4472158875" d="M 0 3 
C 0.795609 3 1.55874 2.683901 2.12132 2.12132 
C 2.683901 1.55874 3 0.795609 3 0 
C 3 -0.795609 2.683901 -1.55874 2.12132 -2.12132 
C 1.55874 -2.683901 0.795609 -3 0 -3 
C -0.795609 -3 -1.55874 -2.683901 -2.12132 -2.12132 
C -2.683901 -1.55874 -3 -0.795609 -3 0 
C -3 0.795609 -2.683901 1.55874 -2.12132 2.12132 
C -1.55874 2.683901 -0.795609 3 0 3 
z
" style="stroke: #9467bd"/>
    </defs>
    <g clip-path="url(#pc2e827723d)">
     <use xlink:href="#m4472158875" x="65.919545" y="87.867083" style="fill: #9467bd; stroke: #9467bd"/>
     <use xlink:href="#m4472158875" x="99.173264" y="108.301029" style="fill: #9467bd; stroke: #9467bd"/>
     <use xlink:href="#m4472158875" x="165.680702" y="97.064035" style="fill: #9467bd; stroke: #9467bd"/>
     <use xlink:href="#m4472158875" x="232.18814" y="97.317372" style="fill: #9467bd; stroke: #9467bd"/>
     <use xlink:href="#m4472158875" x="298.695579" y="120.784942" style="fill: #9467bd; stroke: #9467bd"/>
     <use xlink:href="#m4472158875" x="365.203017" y="102.600882" style="fill: #9467bd; stroke: #9467bd"/>
     <use xlink:href="#m4472158875" x="431.710455" y="109.844221" style="fill: #9467bd; stroke: #9467bd"/>
    </g>
   </g>
   <g id="line2d_30">
    <path d="M 65.919545 56.09503 
L 99.173264 68.901502 
L 165.680702 70.323889 
L 232.18814 74.876185 
L 298.695579 93.871124 
L 365.203017 83.981143 
L 431.710455 87.596435 
" clip-path="url(#pc2e827723d)" style="fill: none; stroke: #8c564b; stroke-width: 1.5; stroke-linecap: square"/>
    <defs>
     <path id="m07db2e7944" d="M 0 3 
C 0.795609 3 1.55874 2.683901 2.12132 2.12132 
C 2.683901 1.55874 3 0.795609 3 0 
C 3 -0.795609 2.683901 -1.55874 2.12132 -2.12132 
C 1.55874 -2.683901 0.795609 -3 0 -3 
C -0.795609 -3 -1.55874 -2.683901 -2.12132 -2.12132 
C -2.683901 -1.55874 -3 -0.795609 -3 0 
C -3 0.795609 -2.683901 1.55874 -2.12132 2.12132 
C -1.55874 2.683901 -0.795609 3 0 3 
z
" style="stroke: #8c564b"/>
    </defs>
    <g clip-path="url(#pc2e827723d)">
     <use xlink:href="#m07db2e7944" x="65.919545" y="56.09503" style="fill: #8c564b; stroke: #8c564b"/>
     <use xlink:href="#m07db2e7944" x="99.173264" y="68.901502" style="fill: #8c564b; stroke: #8c564b"/>
     <use xlink:href="#m07db2e7944" x="165.680702" y="70.323889" style="fill: #8c564b; stroke: #8c564b"/>
     <use xlink:href="#m07db2e7944" x="232.18814" y="74.876185" style="fill: #8c564b; stroke: #8c564b"/>
     <use xlink:href="#m07db2e7944" x="298.695579" y="93.871124" style="fill: #8c564b; stroke: #8c564b"/>
     <use xlink:href="#m07db2e7944" x="365.203017" y="83.981143" style="fill: #8c564b; stroke: #8c564b"/>
     <use xlink:href="#m07db2e7944" x="431.710455" y="87.596435" style="fill: #8c564b; stroke: #8c564b"/>
    </g>
   </g>
   <g id="line2d_31">
    <path d="M 65.919545 71.472761 
L 99.173264 75.398187 
L 165.680702 75.154836 
L 232.18814 79.330704 
L 298.695579 84.669588 
L 365.203017 90.116813 
L 431.710455 93.512276 
" clip-path="url(#pc2e827723d)" style="fill: none; stroke: #e377c2; stroke-width: 1.5; stroke-linecap: square"/>
    <defs>
     <path id="m0c950c9e79" d="M 0 3 
C 0.795609 3 1.55874 2.683901 2.12132 2.12132 
C 2.683901 1.55874 3 0.795609 3 0 
C 3 -0.795609 2.683901 -1.55874 2.12132 -2.12132 
C 1.55874 -2.683901 0.795609 -3 0 -3 
C -0.795609 -3 -1.55874 -2.683901 -2.12132 -2.12132 
C -2.683901 -1.55874 -3 -0.795609 -3 0 
C -3 0.795609 -2.683901 1.55874 -2.12132 2.12132 
C -1.55874 2.683901 -0.795609 3 0 3 
z
" style="stroke: #e377c2"/>
    </defs>
    <g clip-path="url(#pc2e827723d)">
     <use xlink:href="#m0c950c9e79" x="65.919545" y="71.472761" style="fill: #e377c2; stroke: #e377c2"/>
     <use xlink:href="#m0c950c9e79" x="99.173264" y="75.398187" style="fill: #e377c2; stroke: #e377c2"/>
     <use xlink:href="#m0c950c9e79" x="165.680702" y="75.154836" style="fill: #e377c2; stroke: #e377c2"/>
     <use xlink:href="#m0c950c9e79" x="232.18814" y="79.330704" style="fill: #e377c2; stroke: #e377c2"/>
     <use xlink:href="#m0c950c9e79" x="298.695579" y="84.669588" style="fill: #e377c2; stroke: #e377c2"/>
     <use xlink:href="#m0c950c9e79" x="365.203017" y="90.116813" style="fill: #e377c2; stroke: #e377c2"/>
     <use xlink:href="#m0c950c9e79" x="431.710455" y="93.512276" style="fill: #e377c2; stroke: #e377c2"/>
    </g>
   </g>
   <g id="line2d_32">
    <path d="M 65.919545 104.164691 
L 99.173264 104.697255 
L 165.680702 108.933396 
L 232.18814 117.847616 
L 298.695579 123.803201 
L 365.203017 124.454189 
L 431.710455 124.020069 
" clip-path="url(#pc2e827723d)" style="fill: none; stroke: #7f7f7f; stroke-width: 1.5; stroke-linecap: square"/>
    <defs>
     <path id="md4e19ff274" d="M 0 3 
C 0.795609 3 1.55874 2.683901 2.12132 2.12132 
C 2.683901 1.55874 3 0.795609 3 0 
C 3 -0.795609 2.683901 -1.55874 2.12132 -2.12132 
C 1.55874 -2.683901 0.795609 -3 0 -3 
C -0.795609 -3 -1.55874 -2.683901 -2.12132 -2.12132 
C -2.683901 -1.55874 -3 -0.795609 -3 0 
C -3 0.795609 -2.683901 1.55874 -2.12132 2.12132 
C -1.55874 2.683901 -0.795609 3 0 3 
z
" style="stroke: #7f7f7f"/>
    </defs>
    <g clip-path="url(#pc2e827723d)">
     <use xlink:href="#md4e19ff274" x="65.919545" y="104.164691" style="fill: #7f7f7f; stroke: #7f7f7f"/>
     <use xlink:href="#md4e19ff274" x="99.173264" y="104.697255" style="fill: #7f7f7f; stroke: #7f7f7f"/>
     <use xlink:href="#md4e19ff274" x="165.680702" y="108.933396" style="fill: #7f7f7f; stroke: #7f7f7f"/>
     <use xlink:href="#md4e19ff274" x="232.18814" y="117.847616" style="fill: #7f7f7f; stroke: #7f7f7f"/>
     <use xlink:href="#md4e19ff274" x="298.695579" y="123.803201" style="fill: #7f7f7f; stroke: #7f7f7f"/>
     <use xlink:href="#md4e19ff274" x="365.203017" y="124.454189" style="fill: #7f7f7f; stroke: #7f7f7f"/>
     <use xlink:href="#md4e19ff274" x="431.710455" y="124.020069" style="fill: #7f7f7f; stroke: #7f7f7f"/>
    </g>
   </g>
   <g id="line2d_33">
    <path d="M 65.919545 80.915401 
L 99.173264 91.000377 
L 165.680702 82.006858 
L 232.18814 83.519167 
L 298.695579 97.983817 
L 365.203017 96.007215 
L 431.710455 96.881815 
" clip-path="url(#pc2e827723d)" style="fill: none; stroke: #bcbd22; stroke-width: 1.5; stroke-linecap: square"/>
    <defs>
     <path id="m5ecef99c7e" d="M 0 3 
C 0.795609 3 1.55874 2.683901 2.12132 2.12132 
C 2.683901 1.55874 3 0.795609 3 0 
C 3 -0.795609 2.683901 -1.55874 2.12132 -2.12132 
C 1.55874 -2.683901 0.795609 -3 0 -3 
C -0.795609 -3 -1.55874 -2.683901 -2.12132 -2.12132 
C -2.683901 -1.55874 -3 -0.795609 -3 0 
C -3 0.795609 -2.683901 1.55874 -2.12132 2.12132 
C -1.55874 2.683901 -0.795609 3 0 3 
z
" style="stroke: #bcbd22"/>
    </defs>
    <g clip-path="url(#pc2e827723d)">
     <use xlink:href="#m5ecef99c7e" x="65.919545" y="80.915401" style="fill: #bcbd22; stroke: #bcbd22"/>
     <use xlink:href="#m5ecef99c7e" x="99.173264" y="91.000377" style="fill: #bcbd22; stroke: #bcbd22"/>
     <use xlink:href="#m5ecef99c7e" x="165.680702" y="82.006858" style="fill: #bcbd22; stroke: #bcbd22"/>
     <use xlink:href="#m5ecef99c7e" x="232.18814" y="83.519167" style="fill: #bcbd22; stroke: #bcbd22"/>
     <use xlink:href="#m5ecef99c7e" x="298.695579" y="97.983817" style="fill: #bcbd22; stroke: #bcbd22"/>
     <use xlink:href="#m5ecef99c7e" x="365.203017" y="96.007215" style="fill: #bcbd22; stroke: #bcbd22"/>
     <use xlink:href="#m5ecef99c7e" x="431.710455" y="96.881815" style="fill: #bcbd22; stroke: #bcbd22"/>
    </g>
   </g>
   <g id="line2d_34">
    <path d="M 65.919545 62.271793 
L 99.173264 78.4946 
L 165.680702 68.211547 
L 232.18814 69.891411 
L 298.695579 92.752065 
L 365.203017 91.167456 
L 431.710455 83.804654 
" clip-path="url(#pc2e827723d)" style="fill: none; stroke: #17becf; stroke-width: 1.5; stroke-linecap: square"/>
    <defs>
     <path id="m3a7a0f4eac" d="M 0 3 
C 0.795609 3 1.55874 2.683901 2.12132 2.12132 
C 2.683901 1.55874 3 0.795609 3 0 
C 3 -0.795609 2.683901 -1.55874 2.12132 -2.12132 
C 1.55874 -2.683901 0.795609 -3 0 -3 
C -0.795609 -3 -1.55874 -2.683901 -2.12132 -2.12132 
C -2.683901 -1.55874 -3 -0.795609 -3 0 
C -3 0.795609 -2.683901 1.55874 -2.12132 2.12132 
C -1.55874 2.683901 -0.795609 3 0 3 
z
" style="stroke: #17becf"/>
    </defs>
    <g clip-path="url(#pc2e827723d)">
     <use xlink:href="#m3a7a0f4eac" x="65.919545" y="62.271793" style="fill: #17becf; stroke: #17becf"/>
     <use xlink:href="#m3a7a0f4eac" x="99.173264" y="78.4946" style="fill: #17becf; stroke: #17becf"/>
     <use xlink:href="#m3a7a0f4eac" x="165.680702" y="68.211547" style="fill: #17becf; stroke: #17becf"/>
     <use xlink:href="#m3a7a0f4eac" x="232.18814" y="69.891411" style="fill: #17becf; stroke: #17becf"/>
     <use xlink:href="#m3a7a0f4eac" x="298.695579" y="92.752065" style="fill: #17becf; stroke: #17becf"/>
     <use xlink:href="#m3a7a0f4eac" x="365.203017" y="91.167456" style="fill: #17becf; stroke: #17becf"/>
     <use xlink:href="#m3a7a0f4eac" x="431.710455" y="83.804654" style="fill: #17becf; stroke: #17becf"/>
    </g>
   </g>
   <g id="line2d_35">
    <path d="M 65.919545 49.671356 
L 99.173264 48.727825 
L 165.680702 43.884033 
L 232.18814 43.405091 
L 298.695579 45.708925 
L 365.203017 63.136388 
L 431.710455 39.46 
" clip-path="url(#pc2e827723d)" style="fill: none; stroke: #1f77b4; stroke-width: 1.5; stroke-linecap: square"/>
    <g clip-path="url(#pc2e827723d)">
     <use xlink:href="#mbb404d06b9" x="65.919545" y="49.671356" style="fill: #1f77b4; stroke: #1f77b4"/>
     <use xlink:href="#mbb404d06b9" x="99.173264" y="48.727825" style="fill: #1f77b4; stroke: #1f77b4"/>
     <use xlink:href="#mbb404d06b9" x="165.680702" y="43.884033" style="fill: #1f77b4; stroke: #1f77b4"/>
     <use xlink:href="#mbb404d06b9" x="232.18814" y="43.405091" style="fill: #1f77b4; stroke: #1f77b4"/>
     <use xlink:href="#mbb404d06b9" x="298.695579" y="45.708925" style="fill: #1f77b4; stroke: #1f77b4"/>
     <use xlink:href="#mbb404d06b9" x="365.203017" y="63.136388" style="fill: #1f77b4; stroke: #1f77b4"/>
     <use xlink:href="#mbb404d06b9" x="431.710455" y="39.46" style="fill: #1f77b4; stroke: #1f77b4"/>
    </g>
   </g>
   <g id="patch_3">
    <path d="M 47.63 303.64 
L 47.63 26.88 
" style="fill: none; stroke: #000000; stroke-width: 0.8; stroke-linejoin: miter; stroke-linecap: square"/>
   </g>
   <g id="patch_4">
    <path d="M 450 303.64 
L 450 26.88 
" style="fill: none; stroke: #000000; stroke-width: 0.8; stroke-linejoin: miter; stroke-linecap: square"/>
   </g>
   <g id="patch_5">
    <path d="M 47.63 303.64 
L 450 303.64 
" style="fill: none; stroke: #000000; stroke-width: 0.8; stroke-linejoin: miter; stroke-linecap: square"/>
   </g>
   <g id="patch_6">
    <path d="M 47.63 26.88 
L 450 26.88 
" style="fill: none; stroke: #000000; stroke-width: 0.8; stroke-linejoin: miter; stroke-linecap: square"/>
   </g>
   <g id="text_15">
    <!-- IPC -->
    <g transform="translate(239.2375 20.88) scale(0.12 -0.12)">
     <use xlink:href="#DejaVuSans-49"/>
     <use xlink:href="#DejaVuSans-50" transform="translate(29.492188 0)"/>
     <use xlink:href="#DejaVuSans-43" transform="translate(89.794922 0)"/>
    </g>
   </g>
   <g id="legend_1">
    <g id="patch_7">
     <path d="M 201.515 298.64 
L 296.115 298.64 
Q 298.115 298.64 298.115 296.64 
L 298.115 136.180625 
Q 298.115 134.180625 296.115 134.180625 
L 201.515 134.180625 
Q 199.515 134.180625 199.515 136.180625 
L 199.515 296.64 
Q 199.515 298.64 201.515 298.64 
z
" style="fill: #ffffff; opacity: 0.8; stroke: #cccccc; stroke-linejoin: miter"/>
    </g>
    <g id="line2d_36">
     <path d="M 203.515 142.279062 
L 213.515 142.279062 
L 223.515 142.279062 
" style="fill: none; stroke: #1f77b4; stroke-width: 1.5; stroke-linecap: square"/>
     <g>
      <use xlink:href="#mbb404d06b9" x="213.515" y="142.279062" style="fill: #1f77b4; stroke: #1f77b4"/>
     </g>
    </g>
    <g id="text_16">
     <!-- DQSZ=2 -->
     <g transform="translate(231.515 145.779062) scale(0.1 -0.1)">
      <defs>
       <path id="DejaVuSans-51" d="M 2522 4238 
Q 1834 4238 1429 3725 
Q 1025 3213 1025 2328 
Q 1025 1447 1429 934 
Q 1834 422 2522 422 
Q 3209 422 3611 934 
Q 4013 1447 4013 2328 
Q 4013 3213 3611 3725 
Q 3209 4238 2522 4238 
z
M 3406 84 
L 4238 -825 
L 3475 -825 
L 2784 -78 
Q 2681 -84 2626 -87 
Q 2572 -91 2522 -91 
Q 1538 -91 948 567 
Q 359 1225 359 2328 
Q 359 3434 948 4092 
Q 1538 4750 2522 4750 
Q 3503 4750 4090 4092 
Q 4678 3434 4678 2328 
Q 4678 1516 4351 937 
Q 4025 359 3406 84 
z
" transform="scale(0.015625)"/>
       <path id="DejaVuSans-5a" d="M 359 4666 
L 4025 4666 
L 4025 4184 
L 1075 531 
L 4097 531 
L 4097 0 
L 288 0 
L 288 481 
L 3238 4134 
L 359 4134 
L 359 4666 
z
" transform="scale(0.015625)"/>
       <path id="DejaVuSans-3d" d="M 678 2906 
L 4684 2906 
L 4684 2381 
L 678 2381 
L 678 2906 
z
M 678 1631 
L 4684 1631 
L 4684 1100 
L 678 1100 
L 678 1631 
z
" transform="scale(0.015625)"/>
      </defs>
      <use xlink:href="#DejaVuSans-44"/>
      <use xlink:href="#DejaVuSans-51" transform="translate(77.001953 0)"/>
      <use xlink:href="#DejaVuSans-53" transform="translate(155.712891 0)"/>
      <use xlink:href="#DejaVuSans-5a" transform="translate(219.189453 0)"/>
      <use xlink:href="#DejaVuSans-3d" transform="translate(287.695312 0)"/>
      <use xlink:href="#DejaVuSans-32" transform="translate(371.484375 0)"/>
     </g>
    </g>
    <g id="line2d_37">
     <path d="M 203.515 156.957188 
L 213.515 156.957188 
L 223.515 156.957188 
" style="fill: none; stroke: #ff7f0e; stroke-width: 1.5; stroke-linecap: square"/>
     <g>
      <use xlink:href="#m52a63b3776" x="213.515" y="156.957188" style="fill: #ff7f0e; stroke: #ff7f0e"/>
     </g>
    </g>
    <g id="text_17">
     <!-- DQSZ=4 -->
     <g transform="translate(231.515 160.457188) scale(0.1 -0.1)">
      <use xlink:href="#DejaVuSans-44"/>
      <use xlink:href="#DejaVuSans-51" transform="translate(77.001953 0)"/>
      <use xlink:href="#DejaVuSans-53" transform="translate(155.712891 0)"/>
      <use xlink:href="#DejaVuSans-5a" transform="translate(219.189453 0)"/>
      <use xlink:href="#DejaVuSans-3d" transform="translate(287.695312 0)"/>
      <use xlink:href="#DejaVuSans-34" transform="translate(371.484375 0)"/>
     </g>
    </g>
    <g id="line2d_38">
     <path d="M 203.515 171.635312 
L 213.515 171.635312 
L 223.515 171.635312 
" style="fill: none; stroke: #2ca02c; stroke-width: 1.5; stroke-linecap: square"/>
     <g>
      <use xlink:href="#m7181dde9c8" x="213.515" y="171.635312" style="fill: #2ca02c; stroke: #2ca02c"/>
     </g>
    </g>
    <g id="text_18">
     <!-- DQSZ=8 -->
     <g transform="translate(231.515 175.135312) scale(0.1 -0.1)">
      <use xlink:href="#DejaVuSans-44"/>
      <use xlink:href="#DejaVuSans-51" transform="translate(77.001953 0)"/>
      <use xlink:href="#DejaVuSans-53" transform="translate(155.712891 0)"/>
      <use xlink:href="#DejaVuSans-5a" transform="translate(219.189453 0)"/>
      <use xlink:href="#DejaVuSans-3d" transform="translate(287.695312 0)"/>
      <use xlink:href="#DejaVuSans-38" transform="translate(371.484375 0)"/>
     </g>
    </g>
    <g id="line2d_39">
     <path d="M 203.515 186.313437 
L 213.515 186.313437 
L 223.515 186.313437 
" style="fill: none; stroke: #d62728; stroke-width: 1.5; stroke-linecap: square"/>
     <g>
      <use xlink:href="#ma1024f190d" x="213.515" y="186.313437" style="fill: #d62728; stroke: #d62728"/>
     </g>
    </g>
    <g id="text_19">
     <!-- DQSZ=16 -->
     <g transform="translate(231.515 189.813437) scale(0.1 -0.1)">
      <use xlink:href="#DejaVuSans-44"/>
      <use xlink:href="#DejaVuSans-51" transform="translate(77.001953 0)"/>
      <use xlink:href="#DejaVuSans-53" transform="translate(155.712891 0)"/>
      <use xlink:href="#DejaVuSans-5a" transform="translate(219.189453 0)"/>
      <use xlink:href="#DejaVuSans-3d" transform="translate(287.695312 0)"/>
      <use xlink:href="#DejaVuSans-31" transform="translate(371.484375 0)"/>
      <use xlink:href="#DejaVuSans-36" transform="translate(435.107422 0)"/>
     </g>
    </g>
    <g id="line2d_40">
     <path d="M 203.515 200.991562 
L 213.515 200.991562 
L 223.515 200.991562 
" style="fill: none; stroke: #9467bd; stroke-width: 1.5; stroke-linecap: square"/>
     <g>
      <use xlink:href="#m4472158875" x="213.515" y="200.991562" style="fill: #9467bd; stroke: #9467bd"/>
     </g>
    </g>
    <g id="text_20">
     <!-- DQSZ=32 -->
     <g transform="translate(231.515 204.491562) scale(0.1 -0.1)">
      <use xlink:href="#DejaVuSans-44"/>
      <use xlink:href="#DejaVuSans-51" transform="translate(77.001953 0)"/>
      <use xlink:href="#DejaVuSans-53" transform="translate(155.712891 0)"/>
      <use xlink:href="#DejaVuSans-5a" transform="translate(219.189453 0)"/>
      <use xlink:href="#DejaVuSans-3d" transform="translate(287.695312 0)"/>
      <use xlink:href="#DejaVuSans-33" transform="translate(371.484375 0)"/>
      <use xlink:href="#DejaVuSans-32" transform="translate(435.107422 0)"/>
     </g>
    </g>
    <g id="line2d_41">
     <path d="M 203.515 215.669688 
L 213.515 215.669688 
L 223.515 215.669688 
" style="fill: none; stroke: #8c564b; stroke-width: 1.5; stroke-linecap: square"/>
     <g>
      <use xlink:href="#m07db2e7944" x="213.515" y="215.669688" style="fill: #8c564b; stroke: #8c564b"/>
     </g>
    </g>
    <g id="text_21">
     <!-- DQSZ=64 -->
     <g transform="translate(231.515 219.169688) scale(0.1 -0.1)">
      <use xlink:href="#DejaVuSans-44"/>
      <use xlink:href="#DejaVuSans-51" transform="translate(77.001953 0)"/>
      <use xlink:href="#DejaVuSans-53" transform="translate(155.712891 0)"/>
      <use xlink:href="#DejaVuSans-5a" transform="translate(219.189453 0)"/>
      <use xlink:href="#DejaVuSans-3d" transform="translate(287.695312 0)"/>
      <use xlink:href="#DejaVuSans-36" transform="translate(371.484375 0)"/>
      <use xlink:href="#DejaVuSans-34" transform="translate(435.107422 0)"/>
     </g>
    </g>
    <g id="line2d_42">
     <path d="M 203.515 230.347812 
L 213.515 230.347812 
L 223.515 230.347812 
" style="fill: none; stroke: #e377c2; stroke-width: 1.5; stroke-linecap: square"/>
     <g>
      <use xlink:href="#m0c950c9e79" x="213.515" y="230.347812" style="fill: #e377c2; stroke: #e377c2"/>
     </g>
    </g>
    <g id="text_22">
     <!-- DQSZ=128 -->
     <g transform="translate(231.515 233.847812) scale(0.1 -0.1)">
      <use xlink:href="#DejaVuSans-44"/>
      <use xlink:href="#DejaVuSans-51" transform="translate(77.001953 0)"/>
      <use xlink:href="#DejaVuSans-53" transform="translate(155.712891 0)"/>
      <use xlink:href="#DejaVuSans-5a" transform="translate(219.189453 0)"/>
      <use xlink:href="#DejaVuSans-3d" transform="translate(287.695312 0)"/>
      <use xlink:href="#DejaVuSans-31" transform="translate(371.484375 0)"/>
      <use xlink:href="#DejaVuSans-32" transform="translate(435.107422 0)"/>
      <use xlink:href="#DejaVuSans-38" transform="translate(498.730469 0)"/>
     </g>
    </g>
    <g id="line2d_43">
     <path d="M 203.515 245.025937 
L 213.515 245.025937 
L 223.515 245.025937 
" style="fill: none; stroke: #7f7f7f; stroke-width: 1.5; stroke-linecap: square"/>
     <g>
      <use xlink:href="#md4e19ff274" x="213.515" y="245.025937" style="fill: #7f7f7f; stroke: #7f7f7f"/>
     </g>
    </g>
    <g id="text_23">
     <!-- DQSZ=256 -->
     <g transform="translate(231.515 248.525937) scale(0.1 -0.1)">
      <use xlink:href="#DejaVuSans-44"/>
      <use xlink:href="#DejaVuSans-51" transform="translate(77.001953 0)"/>
      <use xlink:href="#DejaVuSans-53" transform="translate(155.712891 0)"/>
      <use xlink:href="#DejaVuSans-5a" transform="translate(219.189453 0)"/>
      <use xlink:href="#DejaVuSans-3d" transform="translate(287.695312 0)"/>
      <use xlink:href="#DejaVuSans-32" transform="translate(371.484375 0)"/>
      <use xlink:href="#DejaVuSans-35" transform="translate(435.107422 0)"/>
      <use xlink:href="#DejaVuSans-36" transform="translate(498.730469 0)"/>
     </g>
    </g>
    <g id="line2d_44">
     <path d="M 203.515 259.704062 
L 213.515 259.704062 
L 223.515 259.704062 
" style="fill: none; stroke: #bcbd22; stroke-width: 1.5; stroke-linecap: square"/>
     <g>
      <use xlink:href="#m5ecef99c7e" x="213.515" y="259.704062" style="fill: #bcbd22; stroke: #bcbd22"/>
     </g>
    </g>
    <g id="text_24">
     <!-- DQSZ=512 -->
     <g transform="translate(231.515 263.204062) scale(0.1 -0.1)">
      <use xlink:href="#DejaVuSans-44"/>
      <use xlink:href="#DejaVuSans-51" transform="translate(77.001953 0)"/>
      <use xlink:href="#DejaVuSans-53" transform="translate(155.712891 0)"/>
      <use xlink:href="#DejaVuSans-5a" transform="translate(219.189453 0)"/>
      <use xlink:href="#DejaVuSans-3d" transform="translate(287.695312 0)"/>
      <use xlink:href="#DejaVuSans-35" transform="translate(371.484375 0)"/>
      <use xlink:href="#DejaVuSans-31" transform="translate(435.107422 0)"/>
      <use xlink:href="#DejaVuSans-32" transform="translate(498.730469 0)"/>
     </g>
    </g>
    <g id="line2d_45">
     <path d="M 203.515 274.382187 
L 213.515 274.382187 
L 223.515 274.382187 
" style="fill: none; stroke: #17becf; stroke-width: 1.5; stroke-linecap: square"/>
     <g>
      <use xlink:href="#m3a7a0f4eac" x="213.515" y="274.382187" style="fill: #17becf; stroke: #17becf"/>
     </g>
    </g>
    <g id="text_25">
     <!-- DQSZ=1024 -->
     <g transform="translate(231.515 277.882187) scale(0.1 -0.1)">
      <use xlink:href="#DejaVuSans-44"/>
      <use xlink:href="#DejaVuSans-51" transform="translate(77.001953 0)"/>
      <use xlink:href="#DejaVuSans-53" transform="translate(155.712891 0)"/>
      <use xlink:href="#DejaVuSans-5a" transform="translate(219.189453 0)"/>
      <use xlink:href="#DejaVuSans-3d" transform="translate(287.695312 0)"/>
      <use xlink:href="#DejaVuSans-31" transform="translate(371.484375 0)"/>
      <use xlink:href="#DejaVuSans-30" transform="translate(435.107422 0)"/>
      <use xlink:href="#DejaVuSans-32" transform="translate(498.730469 0)"/>
      <use xlink:href="#DejaVuSans-34" transform="translate(562.353516 0)"/>
     </g>
    </g>
    <g id="line2d_46">
     <path d="M 203.515 289.060312 
L 213.515 289.060312 
L 223.515 289.060312 
" style="fill: none; stroke: #1f77b4; stroke-width: 1.5; stroke-linecap: square"/>
     <g>
      <use xlink:href="#mbb404d06b9" x="213.515" y="289.060312" style="fill: #1f77b4; stroke: #1f77b4"/>
     </g>
    </g>
    <g id="text_26">
     <!-- DQSZ=2048 -->
     <g transform="translate(231.515 292.560312) scale(0.1 -0.1)">
      <use xlink:href="#DejaVuSans-44"/>
      <use xlink:href="#DejaVuSans-51" transform="translate(77.001953 0)"/>
      <use xlink:href="#DejaVuSans-53" transform="translate(155.712891 0)"/>
      <use xlink:href="#DejaVuSans-5a" transform="translate(219.189453 0)"/>
      <use xlink:href="#DejaVuSans-3d" transform="translate(287.695312 0)"/>
      <use xlink:href="#DejaVuSans-32" transform="translate(371.484375 0)"/>
      <use xlink:href="#DejaVuSans-30" transform="translate(435.107422 0)"/>
      <use xlink:href="#DejaVuSans-34" transform="translate(498.730469 0)"/>
      <use xlink:href="#DejaVuSans-38" transform="translate(562.353516 0)"/>
     </g>
    </g>
   </g>
  </g>
 </g>
 <defs>
  <clipPath id="pc2e827723d">
   <rect x="47.63" y="26.88" width="402.37" height="276.76"/>
  </clipPath>
 </defs>
</svg>
