<?xml version="1.0" encoding="utf-8" standalone="no"?>
<!DOCTYPE svg PUBLIC "-//W3C//DTD SVG 1.1//EN"
  "http://www.w3.org/Graphics/SVG/1.1/DTD/svg11.dtd">
<svg xmlns:xlink="http://www.w3.org/1999/xlink" width="460.8pt" height="345.6pt" viewBox="0 0 460.8 345.6" xmlns="http://www.w3.org/2000/svg" version="1.1">
 <metadata>
  <rdf:RDF xmlns:dc="http://purl.org/dc/elements/1.1/" xmlns:cc="http://creativecommons.org/ns#" xmlns:rdf="http://www.w3.org/1999/02/22-rdf-syntax-ns#">
   <cc:Work>
    <dc:type rdf:resource="http://purl.org/dc/dcmitype/StillImage"/>
    <dc:date>2025-11-16T14:04:33.446732</dc:date>
    <dc:format>image/svg+xml</dc:format>
    <dc:creator>
     <cc:Agent>
      <dc:title>Matplotlib v3.10.7, https://matplotlib.org/</dc:title>
     </cc:Agent>
    </dc:creator>
   </cc:Work>
  </rdf:RDF>
 </metadata>
 <defs>
  <style type="text/css">*{stroke-linejoin: round; stroke-linecap: butt}</style>
 </defs>
 <g id="figure_1">
  <g id="patch_1">
   <path d="M 0 345.6 
L 460.8 345.6 
L 460.8 0 
L 0 0 
z
" style="fill: #ffffff"/>
  </g>
  <g id="axes_1">
   <g id="patch_2">
    <path d="M 47.81 303.64 
L 450 303.64 
L 450 26.88 
L 47.81 26.88 
z
" style="fill: #ffffff"/>
   </g>
   <g id="matplotlib.axis_1">
    <g id="xtick_1">
     <g id="line2d_1">
      <path d="M 99.330207 303.64 
L 99.330207 26.88 
" clip-path="url(#p9e89097350)" style="fill: none; stroke: #b0b0b0; stroke-width: 0.8; stroke-linecap: square"/>
     </g>
     <g id="line2d_2">
      <defs>
       <path id="mc9916f3e69" d="M 0 0 
L 0 3.5 
" style="stroke: #000000; stroke-width: 0.8"/>
      </defs>
      <g>
       <use xlink:href="#mc9916f3e69" x="99.330207" y="303.64" style="stroke: #000000; stroke-width: 0.8"/>
      </g>
     </g>
     <g id="text_1">
      <!-- 2 -->
      <g transform="translate(96.148957 318.238437) scale(0.1 -0.1)">
       <defs>
        <path id="DejaVuSans-32" d="M 1228 531 
L 3431 531 
L 3431 0 
L 469 0 
L 469 531 
Q 828 903 1448 1529 
Q 2069 2156 2228 2338 
Q 2531 2678 2651 2914 
Q 2772 3150 2772 3378 
Q 2772 3750 2511 3984 
Q 2250 4219 1831 4219 
Q 1534 4219 1204 4116 
Q 875 4013 500 3803 
L 500 4441 
Q 881 4594 1212 4672 
Q 1544 4750 1819 4750 
Q 2544 4750 2975 4387 
Q 3406 4025 3406 3419 
Q 3406 3131 3298 2873 
Q 3191 2616 2906 2266 
Q 2828 2175 2409 1742 
Q 1991 1309 1228 531 
z
" transform="scale(0.015625)"/>
       </defs>
       <use xlink:href="#DejaVuSans-32"/>
      </g>
     </g>
    </g>
    <g id="xtick_2">
     <g id="line2d_3">
      <path d="M 165.807893 303.64 
L 165.807893 26.88 
" clip-path="url(#p9e89097350)" style="fill: none; stroke: #b0b0b0; stroke-width: 0.8; stroke-linecap: square"/>
     </g>
     <g id="line2d_4">
      <g>
       <use xlink:href="#mc9916f3e69" x="165.807893" y="303.64" style="stroke: #000000; stroke-width: 0.8"/>
      </g>
     </g>
     <g id="text_2">
      <!-- 4 -->
      <g transform="translate(162.626643 318.238437) scale(0.1 -0.1)">
       <defs>
        <path id="DejaVuSans-34" d="M 2419 4116 
L 825 1625 
L 2419 1625 
L 2419 4116 
z
M 2253 4666 
L 3047 4666 
L 3047 1625 
L 3713 1625 
L 3713 1100 
L 3047 1100 
L 3047 0 
L 2419 0 
L 2419 1100 
L 313 1100 
L 313 1709 
L 2253 4666 
z
" transform="scale(0.015625)"/>
       </defs>
       <use xlink:href="#DejaVuSans-34"/>
      </g>
     </g>
    </g>
    <g id="xtick_3">
     <g id="line2d_5">
      <path d="M 232.285579 303.64 
L 232.285579 26.88 
" clip-path="url(#p9e89097350)" style="fill: none; stroke: #b0b0b0; stroke-width: 0.8; stroke-linecap: square"/>
     </g>
     <g id="line2d_6">
      <g>
       <use xlink:href="#mc9916f3e69" x="232.285579" y="303.64" style="stroke: #000000; stroke-width: 0.8"/>
      </g>
     </g>
     <g id="text_3">
      <!-- 6 -->
      <g transform="translate(229.104329 318.238437) scale(0.1 -0.1)">
       <defs>
        <path id="DejaVuSans-36" d="M 2113 2584 
Q 1688 2584 1439 2293 
Q 1191 2003 1191 1497 
Q 1191 994 1439 701 
Q 1688 409 2113 409 
Q 2538 409 2786 701 
Q 3034 994 3034 1497 
Q 3034 2003 2786 2293 
Q 2538 2584 2113 2584 
z
M 3366 4563 
L 3366 3988 
Q 3128 4100 2886 4159 
Q 2644 4219 2406 4219 
Q 1781 4219 1451 3797 
Q 1122 3375 1075 2522 
Q 1259 2794 1537 2939 
Q 1816 3084 2150 3084 
Q 2853 3084 3261 2657 
Q 3669 2231 3669 1497 
Q 3669 778 3244 343 
Q 2819 -91 2113 -91 
Q 1303 -91 875 529 
Q 447 1150 447 2328 
Q 447 3434 972 4092 
Q 1497 4750 2381 4750 
Q 2619 4750 2861 4703 
Q 3103 4656 3366 4563 
z
" transform="scale(0.015625)"/>
       </defs>
       <use xlink:href="#DejaVuSans-36"/>
      </g>
     </g>
    </g>
    <g id="xtick_4">
     <g id="line2d_7">
      <path d="M 298.763264 303.64 
L 298.763264 26.88 
" clip-path="url(#p9e89097350)" style="fill: none; stroke: #b0b0b0; stroke-width: 0.8; stroke-linecap: square"/>
     </g>
     <g id="line2d_8">
      <g>
       <use xlink:href="#mc9916f3e69" x="298.763264" y="303.64" style="stroke: #000000; stroke-width: 0.8"/>
      </g>
     </g>
     <g id="text_4">
      <!-- 8 -->
      <g transform="translate(295.582014 318.238437) scale(0.1 -0.1)">
       <defs>
        <path id="DejaVuSans-38" d="M 2034 2216 
Q 1584 2216 1326 1975 
Q 1069 1734 1069 1313 
Q 1069 891 1326 650 
Q 1584 409 2034 409 
Q 2484 409 2743 651 
Q 3003 894 3003 1313 
Q 3003 1734 2745 1975 
Q 2488 2216 2034 2216 
z
M 1403 2484 
Q 997 2584 770 2862 
Q 544 3141 544 3541 
Q 544 4100 942 4425 
Q 1341 4750 2034 4750 
Q 2731 4750 3128 4425 
Q 3525 4100 3525 3541 
Q 3525 3141 3298 2862 
Q 3072 2584 2669 2484 
Q 3125 2378 3379 2068 
Q 3634 1759 3634 1313 
Q 3634 634 3220 271 
Q 2806 -91 2034 -91 
Q 1263 -91 848 271 
Q 434 634 434 1313 
Q 434 1759 690 2068 
Q 947 2378 1403 2484 
z
M 1172 3481 
Q 1172 3119 1398 2916 
Q 1625 2713 2034 2713 
Q 2441 2713 2670 2916 
Q 2900 3119 2900 3481 
Q 2900 3844 2670 4047 
Q 2441 4250 2034 4250 
Q 1625 4250 1398 4047 
Q 1172 3844 1172 3481 
z
" transform="scale(0.015625)"/>
       </defs>
       <use xlink:href="#DejaVuSans-38"/>
      </g>
     </g>
    </g>
    <g id="xtick_5">
     <g id="line2d_9">
      <path d="M 365.24095 303.64 
L 365.24095 26.88 
" clip-path="url(#p9e89097350)" style="fill: none; stroke: #b0b0b0; stroke-width: 0.8; stroke-linecap: square"/>
     </g>
     <g id="line2d_10">
      <g>
       <use xlink:href="#mc9916f3e69" x="365.24095" y="303.64" style="stroke: #000000; stroke-width: 0.8"/>
      </g>
     </g>
     <g id="text_5">
      <!-- 10 -->
      <g transform="translate(358.87845 318.238437) scale(0.1 -0.1)">
       <defs>
        <path id="DejaVuSans-31" d="M 794 531 
L 1825 531 
L 1825 4091 
L 703 3866 
L 703 4441 
L 1819 4666 
L 2450 4666 
L 2450 531 
L 3481 531 
L 3481 0 
L 794 0 
L 794 531 
z
" transform="scale(0.015625)"/>
        <path id="DejaVuSans-30" d="M 2034 4250 
Q 1547 4250 1301 3770 
Q 1056 3291 1056 2328 
Q 1056 1369 1301 889 
Q 1547 409 2034 409 
Q 2525 409 2770 889 
Q 3016 1369 3016 2328 
Q 3016 3291 2770 3770 
Q 2525 4250 2034 4250 
z
M 2034 4750 
Q 2819 4750 3233 4129 
Q 3647 3509 3647 2328 
Q 3647 1150 3233 529 
Q 2819 -91 2034 -91 
Q 1250 -91 836 529 
Q 422 1150 422 2328 
Q 422 3509 836 4129 
Q 1250 4750 2034 4750 
z
" transform="scale(0.015625)"/>
       </defs>
       <use xlink:href="#DejaVuSans-31"/>
       <use xlink:href="#DejaVuSans-30" transform="translate(63.623047 0)"/>
      </g>
     </g>
    </g>
    <g id="xtick_6">
     <g id="line2d_11">
      <path d="M 431.718636 303.64 
L 431.718636 26.88 
" clip-path="url(#p9e89097350)" style="fill: none; stroke: #b0b0b0; stroke-width: 0.8; stroke-linecap: square"/>
     </g>
     <g id="line2d_12">
      <g>
       <use xlink:href="#mc9916f3e69" x="431.718636" y="303.64" style="stroke: #000000; stroke-width: 0.8"/>
      </g>
     </g>
     <g id="text_6">
      <!-- 12 -->
      <g transform="translate(425.356136 318.238437) scale(0.1 -0.1)">
       <use xlink:href="#DejaVuSans-31"/>
       <use xlink:href="#DejaVuSans-32" transform="translate(63.623047 0)"/>
      </g>
     </g>
    </g>
    <g id="text_7">
     <!-- OMP_NUM_THREADS -->
     <g transform="translate(197.033906 331.74) scale(0.1 -0.1)">
      <defs>
       <path id="DejaVuSans-4f" d="M 2522 4238 
Q 1834 4238 1429 3725 
Q 1025 3213 1025 2328 
Q 1025 1447 1429 934 
Q 1834 422 2522 422 
Q 3209 422 3611 934 
Q 4013 1447 4013 2328 
Q 4013 3213 3611 3725 
Q 3209 4238 2522 4238 
z
M 2522 4750 
Q 3503 4750 4090 4092 
Q 4678 3434 4678 2328 
Q 4678 1225 4090 567 
Q 3503 -91 2522 -91 
Q 1538 -91 948 565 
Q 359 1222 359 2328 
Q 359 3434 948 4092 
Q 1538 4750 2522 4750 
z
" transform="scale(0.015625)"/>
       <path id="DejaVuSans-4d" d="M 628 4666 
L 1569 4666 
L 2759 1491 
L 3956 4666 
L 4897 4666 
L 4897 0 
L 4281 0 
L 4281 4097 
L 3078 897 
L 2444 897 
L 1241 4097 
L 1241 0 
L 628 0 
L 628 4666 
z
" transform="scale(0.015625)"/>
       <path id="DejaVuSans-50" d="M 1259 4147 
L 1259 2394 
L 2053 2394 
Q 2494 2394 2734 2622 
Q 2975 2850 2975 3272 
Q 2975 3691 2734 3919 
Q 2494 4147 2053 4147 
L 1259 4147 
z
M 628 4666 
L 2053 4666 
Q 2838 4666 3239 4311 
Q 3641 3956 3641 3272 
Q 3641 2581 3239 2228 
Q 2838 1875 2053 1875 
L 1259 1875 
L 1259 0 
L 628 0 
L 628 4666 
z
" transform="scale(0.015625)"/>
       <path id="DejaVuSans-5f" d="M 3263 -1063 
L 3263 -1509 
L -63 -1509 
L -63 -1063 
L 3263 -1063 
z
" transform="scale(0.015625)"/>
       <path id="DejaVuSans-4e" d="M 628 4666 
L 1478 4666 
L 3547 763 
L 3547 4666 
L 4159 4666 
L 4159 0 
L 3309 0 
L 1241 3903 
L 1241 0 
L 628 0 
L 628 4666 
z
" transform="scale(0.015625)"/>
       <path id="DejaVuSans-55" d="M 556 4666 
L 1191 4666 
L 1191 1831 
Q 1191 1081 1462 751 
Q 1734 422 2344 422 
Q 2950 422 3222 751 
Q 3494 1081 3494 1831 
L 3494 4666 
L 4128 4666 
L 4128 1753 
Q 4128 841 3676 375 
Q 3225 -91 2344 -91 
Q 1459 -91 1007 375 
Q 556 841 556 1753 
L 556 4666 
z
" transform="scale(0.015625)"/>
       <path id="DejaVuSans-54" d="M -19 4666 
L 3928 4666 
L 3928 4134 
L 2272 4134 
L 2272 0 
L 1638 0 
L 1638 4134 
L -19 4134 
L -19 4666 
z
" transform="scale(0.015625)"/>
       <path id="DejaVuSans-48" d="M 628 4666 
L 1259 4666 
L 1259 2753 
L 3553 2753 
L 3553 4666 
L 4184 4666 
L 4184 0 
L 3553 0 
L 3553 2222 
L 1259 2222 
L 1259 0 
L 628 0 
L 628 4666 
z
" transform="scale(0.015625)"/>
       <path id="DejaVuSans-52" d="M 2841 2188 
Q 3044 2119 3236 1894 
Q 3428 1669 3622 1275 
L 4263 0 
L 3584 0 
L 2988 1197 
Q 2756 1666 2539 1819 
Q 2322 1972 1947 1972 
L 1259 1972 
L 1259 0 
L 628 0 
L 628 4666 
L 2053 4666 
Q 2853 4666 3247 4331 
Q 3641 3997 3641 3322 
Q 3641 2881 3436 2590 
Q 3231 2300 2841 2188 
z
M 1259 4147 
L 1259 2491 
L 2053 2491 
Q 2509 2491 2742 2702 
Q 2975 2913 2975 3322 
Q 2975 3731 2742 3939 
Q 2509 4147 2053 4147 
L 1259 4147 
z
" transform="scale(0.015625)"/>
       <path id="DejaVuSans-45" d="M 628 4666 
L 3578 4666 
L 3578 4134 
L 1259 4134 
L 1259 2753 
L 3481 2753 
L 3481 2222 
L 1259 2222 
L 1259 531 
L 3634 531 
L 3634 0 
L 628 0 
L 628 4666 
z
" transform="scale(0.015625)"/>
       <path id="DejaVuSans-41" d="M 2188 4044 
L 1331 1722 
L 3047 1722 
L 2188 4044 
z
M 1831 4666 
L 2547 4666 
L 4325 0 
L 3669 0 
L 3244 1197 
L 1141 1197 
L 716 0 
L 50 0 
L 1831 4666 
z
" transform="scale(0.015625)"/>
       <path id="DejaVuSans-44" d="M 1259 4147 
L 1259 519 
L 2022 519 
Q 2988 519 3436 956 
Q 3884 1394 3884 2338 
Q 3884 3275 3436 3711 
Q 2988 4147 2022 4147 
L 1259 4147 
z
M 628 4666 
L 1925 4666 
Q 3281 4666 3915 4102 
Q 4550 3538 4550 2338 
Q 4550 1131 3912 565 
Q 3275 0 1925 0 
L 628 0 
L 628 4666 
z
" transform="scale(0.015625)"/>
       <path id="DejaVuSans-53" d="M 3425 4513 
L 3425 3897 
Q 3066 4069 2747 4153 
Q 2428 4238 2131 4238 
Q 1616 4238 1336 4038 
Q 1056 3838 1056 3469 
Q 1056 3159 1242 3001 
Q 1428 2844 1947 2747 
L 2328 2669 
Q 3034 2534 3370 2195 
Q 3706 1856 3706 1288 
Q 3706 609 3251 259 
Q 2797 -91 1919 -91 
Q 1588 -91 1214 -16 
Q 841 59 441 206 
L 441 856 
Q 825 641 1194 531 
Q 1563 422 1919 422 
Q 2459 422 2753 634 
Q 3047 847 3047 1241 
Q 3047 1584 2836 1778 
Q 2625 1972 2144 2069 
L 1759 2144 
Q 1053 2284 737 2584 
Q 422 2884 422 3419 
Q 422 4038 858 4394 
Q 1294 4750 2059 4750 
Q 2388 4750 2728 4690 
Q 3069 4631 3425 4513 
z
" transform="scale(0.015625)"/>
      </defs>
      <use xlink:href="#DejaVuSans-4f"/>
      <use xlink:href="#DejaVuSans-4d" transform="translate(78.710938 0)"/>
      <use xlink:href="#DejaVuSans-50" transform="translate(164.990234 0)"/>
      <use xlink:href="#DejaVuSans-5f" transform="translate(225.292969 0)"/>
      <use xlink:href="#DejaVuSans-4e" transform="translate(275.292969 0)"/>
      <use xlink:href="#DejaVuSans-55" transform="translate(350.097656 0)"/>
      <use xlink:href="#DejaVuSans-4d" transform="translate(423.291016 0)"/>
      <use xlink:href="#DejaVuSans-5f" transform="translate(509.570312 0)"/>
      <use xlink:href="#DejaVuSans-54" transform="translate(559.570312 0)"/>
      <use xlink:href="#DejaVuSans-48" transform="translate(620.654297 0)"/>
      <use xlink:href="#DejaVuSans-52" transform="translate(695.849609 0)"/>
      <use xlink:href="#DejaVuSans-45" transform="translate(765.332031 0)"/>
      <use xlink:href="#DejaVuSans-41" transform="translate(828.515625 0)"/>
      <use xlink:href="#DejaVuSans-44" transform="translate(896.923828 0)"/>
      <use xlink:href="#DejaVuSans-53" transform="translate(973.925781 0)"/>
     </g>
    </g>
   </g>
   <g id="matplotlib.axis_2">
    <g id="ytick_1">
     <g id="line2d_13">
      <path d="M 47.81 256.948375 
L 450 256.948375 
" clip-path="url(#p9e89097350)" style="fill: none; stroke: #b0b0b0; stroke-width: 0.8; stroke-linecap: square"/>
     </g>
     <g id="line2d_14">
      <defs>
       <path id="m2f6fdf0d36" d="M 0 0 
L -3.5 0 
" style="stroke: #000000; stroke-width: 0.8"/>
      </defs>
      <g>
       <use xlink:href="#m2f6fdf0d36" x="47.81" y="256.948375" style="stroke: #000000; stroke-width: 0.8"/>
      </g>
     </g>
     <g id="text_8">
      <!-- 0.7 -->
      <g transform="translate(24.906875 260.747593) scale(0.1 -0.1)">
       <defs>
        <path id="DejaVuSans-2e" d="M 684 794 
L 1344 794 
L 1344 0 
L 684 0 
L 684 794 
z
" transform="scale(0.015625)"/>
        <path id="DejaVuSans-37" d="M 525 4666 
L 3525 4666 
L 3525 4397 
L 1831 0 
L 1172 0 
L 2766 4134 
L 525 4134 
L 525 4666 
z
" transform="scale(0.015625)"/>
       </defs>
       <use xlink:href="#DejaVuSans-30"/>
       <use xlink:href="#DejaVuSans-2e" transform="translate(63.623047 0)"/>
       <use xlink:href="#DejaVuSans-37" transform="translate(95.410156 0)"/>
      </g>
     </g>
    </g>
    <g id="ytick_2">
     <g id="line2d_15">
      <path d="M 47.81 205.198729 
L 450 205.198729 
" clip-path="url(#p9e89097350)" style="fill: none; stroke: #b0b0b0; stroke-width: 0.8; stroke-linecap: square"/>
     </g>
     <g id="line2d_16">
      <g>
       <use xlink:href="#m2f6fdf0d36" x="47.81" y="205.198729" style="stroke: #000000; stroke-width: 0.8"/>
      </g>
     </g>
     <g id="text_9">
      <!-- 0.8 -->
      <g transform="translate(24.906875 208.997948) scale(0.1 -0.1)">
       <use xlink:href="#DejaVuSans-30"/>
       <use xlink:href="#DejaVuSans-2e" transform="translate(63.623047 0)"/>
       <use xlink:href="#DejaVuSans-38" transform="translate(95.410156 0)"/>
      </g>
     </g>
    </g>
    <g id="ytick_3">
     <g id="line2d_17">
      <path d="M 47.81 153.449084 
L 450 153.449084 
" clip-path="url(#p9e89097350)" style="fill: none; stroke: #b0b0b0; stroke-width: 0.8; stroke-linecap: square"/>
     </g>
     <g id="line2d_18">
      <g>
       <use xlink:href="#m2f6fdf0d36" x="47.81" y="153.449084" style="stroke: #000000; stroke-width: 0.8"/>
      </g>
     </g>
     <g id="text_10">
      <!-- 0.9 -->
      <g transform="translate(24.906875 157.248303) scale(0.1 -0.1)">
       <defs>
        <path id="DejaVuSans-39" d="M 703 97 
L 703 672 
Q 941 559 1184 500 
Q 1428 441 1663 441 
Q 2288 441 2617 861 
Q 2947 1281 2994 2138 
Q 2813 1869 2534 1725 
Q 2256 1581 1919 1581 
Q 1219 1581 811 2004 
Q 403 2428 403 3163 
Q 403 3881 828 4315 
Q 1253 4750 1959 4750 
Q 2769 4750 3195 4129 
Q 3622 3509 3622 2328 
Q 3622 1225 3098 567 
Q 2575 -91 1691 -91 
Q 1453 -91 1209 -44 
Q 966 3 703 97 
z
M 1959 2075 
Q 2384 2075 2632 2365 
Q 2881 2656 2881 3163 
Q 2881 3666 2632 3958 
Q 2384 4250 1959 4250 
Q 1534 4250 1286 3958 
Q 1038 3666 1038 3163 
Q 1038 2656 1286 2365 
Q 1534 2075 1959 2075 
z
" transform="scale(0.015625)"/>
       </defs>
       <use xlink:href="#DejaVuSans-30"/>
       <use xlink:href="#DejaVuSans-2e" transform="translate(63.623047 0)"/>
       <use xlink:href="#DejaVuSans-39" transform="translate(95.410156 0)"/>
      </g>
     </g>
    </g>
    <g id="ytick_4">
     <g id="line2d_19">
      <path d="M 47.81 101.699438 
L 450 101.699438 
" clip-path="url(#p9e89097350)" style="fill: none; stroke: #b0b0b0; stroke-width: 0.8; stroke-linecap: square"/>
     </g>
     <g id="line2d_20">
      <g>
       <use xlink:href="#m2f6fdf0d36" x="47.81" y="101.699438" style="stroke: #000000; stroke-width: 0.8"/>
      </g>
     </g>
     <g id="text_11">
      <!-- 1.0 -->
      <g transform="translate(24.906875 105.498657) scale(0.1 -0.1)">
       <use xlink:href="#DejaVuSans-31"/>
       <use xlink:href="#DejaVuSans-2e" transform="translate(63.623047 0)"/>
       <use xlink:href="#DejaVuSans-30" transform="translate(95.410156 0)"/>
      </g>
     </g>
    </g>
    <g id="ytick_5">
     <g id="line2d_21">
      <path d="M 47.81 49.949793 
L 450 49.949793 
" clip-path="url(#p9e89097350)" style="fill: none; stroke: #b0b0b0; stroke-width: 0.8; stroke-linecap: square"/>
     </g>
     <g id="line2d_22">
      <g>
       <use xlink:href="#m2f6fdf0d36" x="47.81" y="49.949793" style="stroke: #000000; stroke-width: 0.8"/>
      </g>
     </g>
     <g id="text_12">
      <!-- 1.1 -->
      <g transform="translate(24.906875 53.749012) scale(0.1 -0.1)">
       <use xlink:href="#DejaVuSans-31"/>
       <use xlink:href="#DejaVuSans-2e" transform="translate(63.623047 0)"/>
       <use xlink:href="#DejaVuSans-31" transform="translate(95.410156 0)"/>
      </g>
     </g>
    </g>
    <g id="text_13">
     <!-- Speedup -->
     <g transform="translate(18.827187 187.27875) rotate(-90) scale(0.1 -0.1)">
      <defs>
       <path id="DejaVuSans-70" d="M 1159 525 
L 1159 -1331 
L 581 -1331 
L 581 3500 
L 1159 3500 
L 1159 2969 
Q 1341 3281 1617 3432 
Q 1894 3584 2278 3584 
Q 2916 3584 3314 3078 
Q 3713 2572 3713 1747 
Q 3713 922 3314 415 
Q 2916 -91 2278 -91 
Q 1894 -91 1617 61 
Q 1341 213 1159 525 
z
M 3116 1747 
Q 3116 2381 2855 2742 
Q 2594 3103 2138 3103 
Q 1681 3103 1420 2742 
Q 1159 2381 1159 1747 
Q 1159 1113 1420 752 
Q 1681 391 2138 391 
Q 2594 391 2855 752 
Q 3116 1113 3116 1747 
z
" transform="scale(0.015625)"/>
       <path id="DejaVuSans-65" d="M 3597 1894 
L 3597 1613 
L 953 1613 
Q 991 1019 1311 708 
Q 1631 397 2203 397 
Q 2534 397 2845 478 
Q 3156 559 3463 722 
L 3463 178 
Q 3153 47 2828 -22 
Q 2503 -91 2169 -91 
Q 1331 -91 842 396 
Q 353 884 353 1716 
Q 353 2575 817 3079 
Q 1281 3584 2069 3584 
Q 2775 3584 3186 3129 
Q 3597 2675 3597 1894 
z
M 3022 2063 
Q 3016 2534 2758 2815 
Q 2500 3097 2075 3097 
Q 1594 3097 1305 2825 
Q 1016 2553 972 2059 
L 3022 2063 
z
" transform="scale(0.015625)"/>
       <path id="DejaVuSans-64" d="M 2906 2969 
L 2906 4863 
L 3481 4863 
L 3481 0 
L 2906 0 
L 2906 525 
Q 2725 213 2448 61 
Q 2172 -91 1784 -91 
Q 1150 -91 751 415 
Q 353 922 353 1747 
Q 353 2572 751 3078 
Q 1150 3584 1784 3584 
Q 2172 3584 2448 3432 
Q 2725 3281 2906 2969 
z
M 947 1747 
Q 947 1113 1208 752 
Q 1469 391 1925 391 
Q 2381 391 2643 752 
Q 2906 1113 2906 1747 
Q 2906 2381 2643 2742 
Q 2381 3103 1925 3103 
Q 1469 3103 1208 2742 
Q 947 2381 947 1747 
z
" transform="scale(0.015625)"/>
       <path id="DejaVuSans-75" d="M 544 1381 
L 544 3500 
L 1119 3500 
L 1119 1403 
Q 1119 906 1312 657 
Q 1506 409 1894 409 
Q 2359 409 2629 706 
Q 2900 1003 2900 1516 
L 2900 3500 
L 3475 3500 
L 3475 0 
L 2900 0 
L 2900 538 
Q 2691 219 2414 64 
Q 2138 -91 1772 -91 
Q 1169 -91 856 284 
Q 544 659 544 1381 
z
M 1991 3584 
L 1991 3584 
z
" transform="scale(0.015625)"/>
      </defs>
      <use xlink:href="#DejaVuSans-53"/>
      <use xlink:href="#DejaVuSans-70" transform="translate(63.476562 0)"/>
      <use xlink:href="#DejaVuSans-65" transform="translate(126.953125 0)"/>
      <use xlink:href="#DejaVuSans-65" transform="translate(188.476562 0)"/>
      <use xlink:href="#DejaVuSans-64" transform="translate(250 0)"/>
      <use xlink:href="#DejaVuSans-75" transform="translate(313.476562 0)"/>
      <use xlink:href="#DejaVuSans-70" transform="translate(376.855469 0)"/>
     </g>
    </g>
   </g>
   <g id="line2d_23">
    <path d="M 66.091364 101.699438 
L 99.330207 90.080846 
L 165.807893 91.203685 
L 232.285579 102.914095 
L 298.763264 140.919776 
L 365.24095 94.30791 
L 431.718636 90.817672 
" clip-path="url(#p9e89097350)" style="fill: none; stroke: #1f77b4; stroke-width: 1.5; stroke-linecap: square"/>
    <defs>
     <path id="m41fdaa4b94" d="M 0 3 
C 0.795609 3 1.55874 2.683901 2.12132 2.12132 
C 2.683901 1.55874 3 0.795609 3 0 
C 3 -0.795609 2.683901 -1.55874 2.12132 -2.12132 
C 1.55874 -2.683901 0.795609 -3 0 -3 
C -0.795609 -3 -1.55874 -2.683901 -2.12132 -2.12132 
C -2.683901 -1.55874 -3 -0.795609 -3 0 
C -3 0.795609 -2.683901 1.55874 -2.12132 2.12132 
C -1.55874 2.683901 -0.795609 3 0 3 
z
" style="stroke: #1f77b4"/>
    </defs>
    <g clip-path="url(#p9e89097350)">
     <use xlink:href="#m41fdaa4b94" x="66.091364" y="101.699438" style="fill: #1f77b4; stroke: #1f77b4"/>
     <use xlink:href="#m41fdaa4b94" x="99.330207" y="90.080846" style="fill: #1f77b4; stroke: #1f77b4"/>
     <use xlink:href="#m41fdaa4b94" x="165.807893" y="91.203685" style="fill: #1f77b4; stroke: #1f77b4"/>
     <use xlink:href="#m41fdaa4b94" x="232.285579" y="102.914095" style="fill: #1f77b4; stroke: #1f77b4"/>
     <use xlink:href="#m41fdaa4b94" x="298.763264" y="140.919776" style="fill: #1f77b4; stroke: #1f77b4"/>
     <use xlink:href="#m41fdaa4b94" x="365.24095" y="94.30791" style="fill: #1f77b4; stroke: #1f77b4"/>
     <use xlink:href="#m41fdaa4b94" x="431.718636" y="90.817672" style="fill: #1f77b4; stroke: #1f77b4"/>
    </g>
   </g>
   <g id="line2d_24">
    <path d="M 66.091364 101.699438 
L 99.330207 79.050092 
L 165.807893 91.027901 
L 232.285579 107.646046 
L 298.763264 86.589515 
L 365.24095 94.878818 
L 431.718636 89.756649 
" clip-path="url(#p9e89097350)" style="fill: none; stroke: #ff7f0e; stroke-width: 1.5; stroke-linecap: square"/>
    <defs>
     <path id="m44a15f501d" d="M 0 3 
C 0.795609 3 1.55874 2.683901 2.12132 2.12132 
C 2.683901 1.55874 3 0.795609 3 0 
C 3 -0.795609 2.683901 -1.55874 2.12132 -2.12132 
C 1.55874 -2.683901 0.795609 -3 0 -3 
C -0.795609 -3 -1.55874 -2.683901 -2.12132 -2.12132 
C -2.683901 -1.55874 -3 -0.795609 -3 0 
C -3 0.795609 -2.683901 1.55874 -2.12132 2.12132 
C -1.55874 2.683901 -0.795609 3 0 3 
z
" style="stroke: #ff7f0e"/>
    </defs>
    <g clip-path="url(#p9e89097350)">
     <use xlink:href="#m44a15f501d" x="66.091364" y="101.699438" style="fill: #ff7f0e; stroke: #ff7f0e"/>
     <use xlink:href="#m44a15f501d" x="99.330207" y="79.050092" style="fill: #ff7f0e; stroke: #ff7f0e"/>
     <use xlink:href="#m44a15f501d" x="165.807893" y="91.027901" style="fill: #ff7f0e; stroke: #ff7f0e"/>
     <use xlink:href="#m44a15f501d" x="232.285579" y="107.646046" style="fill: #ff7f0e; stroke: #ff7f0e"/>
     <use xlink:href="#m44a15f501d" x="298.763264" y="86.589515" style="fill: #ff7f0e; stroke: #ff7f0e"/>
     <use xlink:href="#m44a15f501d" x="365.24095" y="94.878818" style="fill: #ff7f0e; stroke: #ff7f0e"/>
     <use xlink:href="#m44a15f501d" x="431.718636" y="89.756649" style="fill: #ff7f0e; stroke: #ff7f0e"/>
    </g>
   </g>
   <g id="line2d_25">
    <path d="M 66.091364 101.699438 
L 99.330207 48.999187 
L 165.807893 73.27785 
L 232.285579 147.377125 
L 298.763264 88.346695 
L 365.24095 83.525176 
L 431.718636 124.557822 
" clip-path="url(#p9e89097350)" style="fill: none; stroke: #2ca02c; stroke-width: 1.5; stroke-linecap: square"/>
    <defs>
     <path id="m5ca23933ea" d="M 0 3 
C 0.795609 3 1.55874 2.683901 2.12132 2.12132 
C 2.683901 1.55874 3 0.795609 3 0 
C 3 -0.795609 2.683901 -1.55874 2.12132 -2.12132 
C 1.55874 -2.683901 0.795609 -3 0 -3 
C -0.795609 -3 -1.55874 -2.683901 -2.12132 -2.12132 
C -2.683901 -1.55874 -3 -0.795609 -3 0 
C -3 0.795609 -2.683901 1.55874 -2.12132 2.12132 
C -1.55874 2.683901 -0.795609 3 0 3 
z
" style="stroke: #2ca02c"/>
    </defs>
    <g clip-path="url(#p9e89097350)">
     <use xlink:href="#m5ca23933ea" x="66.091364" y="101.699438" style="fill: #2ca02c; stroke: #2ca02c"/>
     <use xlink:href="#m5ca23933ea" x="99.330207" y="48.999187" style="fill: #2ca02c; stroke: #2ca02c"/>
     <use xlink:href="#m5ca23933ea" x="165.807893" y="73.27785" style="fill: #2ca02c; stroke: #2ca02c"/>
     <use xlink:href="#m5ca23933ea" x="232.285579" y="147.377125" style="fill: #2ca02c; stroke: #2ca02c"/>
     <use xlink:href="#m5ca23933ea" x="298.763264" y="88.346695" style="fill: #2ca02c; stroke: #2ca02c"/>
     <use xlink:href="#m5ca23933ea" x="365.24095" y="83.525176" style="fill: #2ca02c; stroke: #2ca02c"/>
     <use xlink:href="#m5ca23933ea" x="431.718636" y="124.557822" style="fill: #2ca02c; stroke: #2ca02c"/>
    </g>
   </g>
   <g id="line2d_26">
    <path d="M 66.091364 101.699438 
L 99.330207 57.166307 
L 165.807893 129.071538 
L 232.285579 144.729778 
L 298.763264 141.594539 
L 365.24095 142.014963 
L 431.718636 158.637239 
" clip-path="url(#p9e89097350)" style="fill: none; stroke: #d62728; stroke-width: 1.5; stroke-linecap: square"/>
    <defs>
     <path id="mccc4d8dc8b" d="M 0 3 
C 0.795609 3 1.55874 2.683901 2.12132 2.12132 
C 2.683901 1.55874 3 0.795609 3 0 
C 3 -0.795609 2.683901 -1.55874 2.12132 -2.12132 
C 1.55874 -2.683901 0.795609 -3 0 -3 
C -0.795609 -3 -1.55874 -2.683901 -2.12132 -2.12132 
C -2.683901 -1.55874 -3 -0.795609 -3 0 
C -3 0.795609 -2.683901 1.55874 -2.12132 2.12132 
C -1.55874 2.683901 -0.795609 3 0 3 
z
" style="stroke: #d62728"/>
    </defs>
    <g clip-path="url(#p9e89097350)">
     <use xlink:href="#mccc4d8dc8b" x="66.091364" y="101.699438" style="fill: #d62728; stroke: #d62728"/>
     <use xlink:href="#mccc4d8dc8b" x="99.330207" y="57.166307" style="fill: #d62728; stroke: #d62728"/>
     <use xlink:href="#mccc4d8dc8b" x="165.807893" y="129.071538" style="fill: #d62728; stroke: #d62728"/>
     <use xlink:href="#mccc4d8dc8b" x="232.285579" y="144.729778" style="fill: #d62728; stroke: #d62728"/>
     <use xlink:href="#mccc4d8dc8b" x="298.763264" y="141.594539" style="fill: #d62728; stroke: #d62728"/>
     <use xlink:href="#mccc4d8dc8b" x="365.24095" y="142.014963" style="fill: #d62728; stroke: #d62728"/>
     <use xlink:href="#mccc4d8dc8b" x="431.718636" y="158.637239" style="fill: #d62728; stroke: #d62728"/>
    </g>
   </g>
   <g id="line2d_27">
    <path d="M 66.091364 101.699438 
L 99.330207 77.713888 
L 165.807893 167.960889 
L 232.285579 216.91563 
L 298.763264 184.962615 
L 365.24095 181.396018 
L 431.718636 191.281113 
" clip-path="url(#p9e89097350)" style="fill: none; stroke: #9467bd; stroke-width: 1.5; stroke-linecap: square"/>
    <defs>
     <path id="m702909cc7e" d="M 0 3 
C 0.795609 3 1.55874 2.683901 2.12132 2.12132 
C 2.683901 1.55874 3 0.795609 3 0 
C 3 -0.795609 2.683901 -1.55874 2.12132 -2.12132 
C 1.55874 -2.683901 0.795609 -3 0 -3 
C -0.795609 -3 -1.55874 -2.683901 -2.12132 -2.12132 
C -2.683901 -1.55874 -3 -0.795609 -3 0 
C -3 0.795609 -2.683901 1.55874 -2.12132 2.12132 
C -1.55874 2.683901 -0.795609 3 0 3 
z
" style="stroke: #9467bd"/>
    </defs>
    <g clip-path="url(#p9e89097350)">
     <use xlink:href="#m702909cc7e" x="66.091364" y="101.699438" style="fill: #9467bd; stroke: #9467bd"/>
     <use xlink:href="#m702909cc7e" x="99.330207" y="77.713888" style="fill: #9467bd; stroke: #9467bd"/>
     <use xlink:href="#m702909cc7e" x="165.807893" y="167.960889" style="fill: #9467bd; stroke: #9467bd"/>
     <use xlink:href="#m702909cc7e" x="232.285579" y="216.91563" style="fill: #9467bd; stroke: #9467bd"/>
     <use xlink:href="#m702909cc7e" x="298.763264" y="184.962615" style="fill: #9467bd; stroke: #9467bd"/>
     <use xlink:href="#m702909cc7e" x="365.24095" y="181.396018" style="fill: #9467bd; stroke: #9467bd"/>
     <use xlink:href="#m702909cc7e" x="431.718636" y="191.281113" style="fill: #9467bd; stroke: #9467bd"/>
    </g>
   </g>
   <g id="line2d_28">
    <path d="M 66.091364 101.699438 
L 99.330207 73.396121 
L 165.807893 167.867327 
L 232.285579 259.298537 
L 298.763264 180.839352 
L 365.24095 185.77527 
L 431.718636 190.601268 
" clip-path="url(#p9e89097350)" style="fill: none; stroke: #8c564b; stroke-width: 1.5; stroke-linecap: square"/>
    <defs>
     <path id="ma2f22d7ec9" d="M 0 3 
C 0.795609 3 1.55874 2.683901 2.12132 2.12132 
C 2.683901 1.55874 3 0.795609 3 0 
C 3 -0.795609 2.683901 -1.55874 2.12132 -2.12132 
C 1.55874 -2.683901 0.795609 -3 0 -3 
C -0.795609 -3 -1.55874 -2.683901 -2.12132 -2.12132 
C -2.683901 -1.55874 -3 -0.795609 -3 0 
C -3 0.795609 -2.683901 1.55874 -2.12132 2.12132 
C -1.55874 2.683901 -0.795609 3 0 3 
z
" style="stroke: #8c564b"/>
    </defs>
    <g clip-path="url(#p9e89097350)">
     <use xlink:href="#ma2f22d7ec9" x="66.091364" y="101.699438" style="fill: #8c564b; stroke: #8c564b"/>
     <use xlink:href="#ma2f22d7ec9" x="99.330207" y="73.396121" style="fill: #8c564b; stroke: #8c564b"/>
     <use xlink:href="#ma2f22d7ec9" x="165.807893" y="167.867327" style="fill: #8c564b; stroke: #8c564b"/>
     <use xlink:href="#ma2f22d7ec9" x="232.285579" y="259.298537" style="fill: #8c564b; stroke: #8c564b"/>
     <use xlink:href="#ma2f22d7ec9" x="298.763264" y="180.839352" style="fill: #8c564b; stroke: #8c564b"/>
     <use xlink:href="#ma2f22d7ec9" x="365.24095" y="185.77527" style="fill: #8c564b; stroke: #8c564b"/>
     <use xlink:href="#ma2f22d7ec9" x="431.718636" y="190.601268" style="fill: #8c564b; stroke: #8c564b"/>
    </g>
   </g>
   <g id="line2d_29">
    <path d="M 66.091364 101.699438 
L 99.330207 75.112465 
L 165.807893 168.320878 
L 232.285579 291.06 
L 298.763264 177.280143 
L 365.24095 199.584381 
L 431.718636 192.949412 
" clip-path="url(#p9e89097350)" style="fill: none; stroke: #e377c2; stroke-width: 1.5; stroke-linecap: square"/>
    <defs>
     <path id="mdf002b06aa" d="M 0 3 
C 0.795609 3 1.55874 2.683901 2.12132 2.12132 
C 2.683901 1.55874 3 0.795609 3 0 
C 3 -0.795609 2.683901 -1.55874 2.12132 -2.12132 
C 1.55874 -2.683901 0.795609 -3 0 -3 
C -0.795609 -3 -1.55874 -2.683901 -2.12132 -2.12132 
C -2.683901 -1.55874 -3 -0.795609 -3 0 
C -3 0.795609 -2.683901 1.55874 -2.12132 2.12132 
C -1.55874 2.683901 -0.795609 3 0 3 
z
" style="stroke: #e377c2"/>
    </defs>
    <g clip-path="url(#p9e89097350)">
     <use xlink:href="#mdf002b06aa" x="66.091364" y="101.699438" style="fill: #e377c2; stroke: #e377c2"/>
     <use xlink:href="#mdf002b06aa" x="99.330207" y="75.112465" style="fill: #e377c2; stroke: #e377c2"/>
     <use xlink:href="#mdf002b06aa" x="165.807893" y="168.320878" style="fill: #e377c2; stroke: #e377c2"/>
     <use xlink:href="#mdf002b06aa" x="232.285579" y="291.06" style="fill: #e377c2; stroke: #e377c2"/>
     <use xlink:href="#mdf002b06aa" x="298.763264" y="177.280143" style="fill: #e377c2; stroke: #e377c2"/>
     <use xlink:href="#mdf002b06aa" x="365.24095" y="199.584381" style="fill: #e377c2; stroke: #e377c2"/>
     <use xlink:href="#mdf002b06aa" x="431.718636" y="192.949412" style="fill: #e377c2; stroke: #e377c2"/>
    </g>
   </g>
   <g id="line2d_30">
    <path d="M 66.091364 101.699438 
L 99.330207 96.970359 
L 165.807893 201.197189 
L 232.285579 240.384568 
L 298.763264 215.945127 
L 365.24095 226.051166 
L 431.718636 228.737367 
" clip-path="url(#p9e89097350)" style="fill: none; stroke: #7f7f7f; stroke-width: 1.5; stroke-linecap: square"/>
    <defs>
     <path id="m3182b7688d" d="M 0 3 
C 0.795609 3 1.55874 2.683901 2.12132 2.12132 
C 2.683901 1.55874 3 0.795609 3 0 
C 3 -0.795609 2.683901 -1.55874 2.12132 -2.12132 
C 1.55874 -2.683901 0.795609 -3 0 -3 
C -0.795609 -3 -1.55874 -2.683901 -2.12132 -2.12132 
C -2.683901 -1.55874 -3 -0.795609 -3 0 
C -3 0.795609 -2.683901 1.55874 -2.12132 2.12132 
C -1.55874 2.683901 -0.795609 3 0 3 
z
" style="stroke: #7f7f7f"/>
    </defs>
    <g clip-path="url(#p9e89097350)">
     <use xlink:href="#m3182b7688d" x="66.091364" y="101.699438" style="fill: #7f7f7f; stroke: #7f7f7f"/>
     <use xlink:href="#m3182b7688d" x="99.330207" y="96.970359" style="fill: #7f7f7f; stroke: #7f7f7f"/>
     <use xlink:href="#m3182b7688d" x="165.807893" y="201.197189" style="fill: #7f7f7f; stroke: #7f7f7f"/>
     <use xlink:href="#m3182b7688d" x="232.285579" y="240.384568" style="fill: #7f7f7f; stroke: #7f7f7f"/>
     <use xlink:href="#m3182b7688d" x="298.763264" y="215.945127" style="fill: #7f7f7f; stroke: #7f7f7f"/>
     <use xlink:href="#m3182b7688d" x="365.24095" y="226.051166" style="fill: #7f7f7f; stroke: #7f7f7f"/>
     <use xlink:href="#m3182b7688d" x="431.718636" y="228.737367" style="fill: #7f7f7f; stroke: #7f7f7f"/>
    </g>
   </g>
   <g id="line2d_31">
    <path d="M 66.091364 101.699438 
L 99.330207 94.027658 
L 165.807893 183.56165 
L 232.285579 230.104699 
L 298.763264 195.866365 
L 365.24095 196.325757 
L 431.718636 204.648201 
" clip-path="url(#p9e89097350)" style="fill: none; stroke: #bcbd22; stroke-width: 1.5; stroke-linecap: square"/>
    <defs>
     <path id="m19a17a619c" d="M 0 3 
C 0.795609 3 1.55874 2.683901 2.12132 2.12132 
C 2.683901 1.55874 3 0.795609 3 0 
C 3 -0.795609 2.683901 -1.55874 2.12132 -2.12132 
C 1.55874 -2.683901 0.795609 -3 0 -3 
C -0.795609 -3 -1.55874 -2.683901 -2.12132 -2.12132 
C -2.683901 -1.55874 -3 -0.795609 -3 0 
C -3 0.795609 -2.683901 1.55874 -2.12132 2.12132 
C -1.55874 2.683901 -0.795609 3 0 3 
z
" style="stroke: #bcbd22"/>
    </defs>
    <g clip-path="url(#p9e89097350)">
     <use xlink:href="#m19a17a619c" x="66.091364" y="101.699438" style="fill: #bcbd22; stroke: #bcbd22"/>
     <use xlink:href="#m19a17a619c" x="99.330207" y="94.027658" style="fill: #bcbd22; stroke: #bcbd22"/>
     <use xlink:href="#m19a17a619c" x="165.807893" y="183.56165" style="fill: #bcbd22; stroke: #bcbd22"/>
     <use xlink:href="#m19a17a619c" x="232.285579" y="230.104699" style="fill: #bcbd22; stroke: #bcbd22"/>
     <use xlink:href="#m19a17a619c" x="298.763264" y="195.866365" style="fill: #bcbd22; stroke: #bcbd22"/>
     <use xlink:href="#m19a17a619c" x="365.24095" y="196.325757" style="fill: #bcbd22; stroke: #bcbd22"/>
     <use xlink:href="#m19a17a619c" x="431.718636" y="204.648201" style="fill: #bcbd22; stroke: #bcbd22"/>
    </g>
   </g>
   <g id="line2d_32">
    <path d="M 66.091364 101.699438 
L 99.330207 39.46 
L 165.807893 69.190046 
L 232.285579 84.277488 
L 298.763264 50.977932 
L 365.24095 42.964112 
L 431.718636 45.276748 
" clip-path="url(#p9e89097350)" style="fill: none; stroke: #17becf; stroke-width: 1.5; stroke-linecap: square"/>
    <defs>
     <path id="m3cd2bb4da1" d="M 0 3 
C 0.795609 3 1.55874 2.683901 2.12132 2.12132 
C 2.683901 1.55874 3 0.795609 3 0 
C 3 -0.795609 2.683901 -1.55874 2.12132 -2.12132 
C 1.55874 -2.683901 0.795609 -3 0 -3 
C -0.795609 -3 -1.55874 -2.683901 -2.12132 -2.12132 
C -2.683901 -1.55874 -3 -0.795609 -3 0 
C -3 0.795609 -2.683901 1.55874 -2.12132 2.12132 
C -1.55874 2.683901 -0.795609 3 0 3 
z
" style="stroke: #17becf"/>
    </defs>
    <g clip-path="url(#p9e89097350)">
     <use xlink:href="#m3cd2bb4da1" x="66.091364" y="101.699438" style="fill: #17becf; stroke: #17becf"/>
     <use xlink:href="#m3cd2bb4da1" x="99.330207" y="39.46" style="fill: #17becf; stroke: #17becf"/>
     <use xlink:href="#m3cd2bb4da1" x="165.807893" y="69.190046" style="fill: #17becf; stroke: #17becf"/>
     <use xlink:href="#m3cd2bb4da1" x="232.285579" y="84.277488" style="fill: #17becf; stroke: #17becf"/>
     <use xlink:href="#m3cd2bb4da1" x="298.763264" y="50.977932" style="fill: #17becf; stroke: #17becf"/>
     <use xlink:href="#m3cd2bb4da1" x="365.24095" y="42.964112" style="fill: #17becf; stroke: #17becf"/>
     <use xlink:href="#m3cd2bb4da1" x="431.718636" y="45.276748" style="fill: #17becf; stroke: #17becf"/>
    </g>
   </g>
   <g id="patch_3">
    <path d="M 47.81 303.64 
L 47.81 26.88 
" style="fill: none; stroke: #000000; stroke-width: 0.8; stroke-linejoin: miter; stroke-linecap: square"/>
   </g>
   <g id="patch_4">
    <path d="M 450 303.64 
L 450 26.88 
" style="fill: none; stroke: #000000; stroke-width: 0.8; stroke-linejoin: miter; stroke-linecap: square"/>
   </g>
   <g id="patch_5">
    <path d="M 47.81 303.64 
L 450 303.64 
" style="fill: none; stroke: #000000; stroke-width: 0.8; stroke-linejoin: miter; stroke-linecap: square"/>
   </g>
   <g id="patch_6">
    <path d="M 47.81 26.88 
L 450 26.88 
" style="fill: none; stroke: #000000; stroke-width: 0.8; stroke-linejoin: miter; stroke-linecap: square"/>
   </g>
   <g id="text_14">
    <!-- Speedup -->
    <g transform="translate(222.4825 20.88) scale(0.12 -0.12)">
     <use xlink:href="#DejaVuSans-53"/>
     <use xlink:href="#DejaVuSans-70" transform="translate(63.476562 0)"/>
     <use xlink:href="#DejaVuSans-65" transform="translate(126.953125 0)"/>
     <use xlink:href="#DejaVuSans-65" transform="translate(188.476562 0)"/>
     <use xlink:href="#DejaVuSans-64" transform="translate(250 0)"/>
     <use xlink:href="#DejaVuSans-75" transform="translate(313.476562 0)"/>
     <use xlink:href="#DejaVuSans-70" transform="translate(376.855469 0)"/>
    </g>
   </g>
   <g id="legend_1">
    <g id="patch_7">
     <path d="M 54.81 298.64 
L 149.41 298.64 
Q 151.41 298.64 151.41 296.64 
L 151.41 150.85875 
Q 151.41 148.85875 149.41 148.85875 
L 54.81 148.85875 
Q 52.81 148.85875 52.81 150.85875 
L 52.81 296.64 
Q 52.81 298.64 54.81 298.64 
z
" style="fill: #ffffff; opacity: 0.8; stroke: #cccccc; stroke-linejoin: miter"/>
    </g>
    <g id="line2d_33">
     <path d="M 56.81 156.957187 
L 66.81 156.957187 
L 76.81 156.957187 
" style="fill: none; stroke: #1f77b4; stroke-width: 1.5; stroke-linecap: square"/>
     <g>
      <use xlink:href="#m41fdaa4b94" x="66.81" y="156.957187" style="fill: #1f77b4; stroke: #1f77b4"/>
     </g>
    </g>
    <g id="text_15">
     <!-- DQSZ=4 -->
     <g transform="translate(84.81 160.457187) scale(0.1 -0.1)">
      <defs>
       <path id="DejaVuSans-51" d="M 2522 4238 
Q 1834 4238 1429 3725 
Q 1025 3213 1025 2328 
Q 1025 1447 1429 934 
Q 1834 422 2522 422 
Q 3209 422 3611 934 
Q 4013 1447 4013 2328 
Q 4013 3213 3611 3725 
Q 3209 4238 2522 4238 
z
M 3406 84 
L 4238 -825 
L 3475 -825 
L 2784 -78 
Q 2681 -84 2626 -87 
Q 2572 -91 2522 -91 
Q 1538 -91 948 567 
Q 359 1225 359 2328 
Q 359 3434 948 4092 
Q 1538 4750 2522 4750 
Q 3503 4750 4090 4092 
Q 4678 3434 4678 2328 
Q 4678 1516 4351 937 
Q 4025 359 3406 84 
z
" transform="scale(0.015625)"/>
       <path id="DejaVuSans-5a" d="M 359 4666 
L 4025 4666 
L 4025 4184 
L 1075 531 
L 4097 531 
L 4097 0 
L 288 0 
L 288 481 
L 3238 4134 
L 359 4134 
L 359 4666 
z
" transform="scale(0.015625)"/>
       <path id="DejaVuSans-3d" d="M 678 2906 
L 4684 2906 
L 4684 2381 
L 678 2381 
L 678 2906 
z
M 678 1631 
L 4684 1631 
L 4684 1100 
L 678 1100 
L 678 1631 
z
" transform="scale(0.015625)"/>
      </defs>
      <use xlink:href="#DejaVuSans-44"/>
      <use xlink:href="#DejaVuSans-51" transform="translate(77.001953 0)"/>
      <use xlink:href="#DejaVuSans-53" transform="translate(155.712891 0)"/>
      <use xlink:href="#DejaVuSans-5a" transform="translate(219.189453 0)"/>
      <use xlink:href="#DejaVuSans-3d" transform="translate(287.695312 0)"/>
      <use xlink:href="#DejaVuSans-34" transform="translate(371.484375 0)"/>
     </g>
    </g>
    <g id="line2d_34">
     <path d="M 56.81 171.635312 
L 66.81 171.635312 
L 76.81 171.635312 
" style="fill: none; stroke: #ff7f0e; stroke-width: 1.5; stroke-linecap: square"/>
     <g>
      <use xlink:href="#m44a15f501d" x="66.81" y="171.635312" style="fill: #ff7f0e; stroke: #ff7f0e"/>
     </g>
    </g>
    <g id="text_16">
     <!-- DQSZ=8 -->
     <g transform="translate(84.81 175.135312) scale(0.1 -0.1)">
      <use xlink:href="#DejaVuSans-44"/>
      <use xlink:href="#DejaVuSans-51" transform="translate(77.001953 0)"/>
      <use xlink:href="#DejaVuSans-53" transform="translate(155.712891 0)"/>
      <use xlink:href="#DejaVuSans-5a" transform="translate(219.189453 0)"/>
      <use xlink:href="#DejaVuSans-3d" transform="translate(287.695312 0)"/>
      <use xlink:href="#DejaVuSans-38" transform="translate(371.484375 0)"/>
     </g>
    </g>
    <g id="line2d_35">
     <path d="M 56.81 186.313437 
L 66.81 186.313437 
L 76.81 186.313437 
" style="fill: none; stroke: #2ca02c; stroke-width: 1.5; stroke-linecap: square"/>
     <g>
      <use xlink:href="#m5ca23933ea" x="66.81" y="186.313437" style="fill: #2ca02c; stroke: #2ca02c"/>
     </g>
    </g>
    <g id="text_17">
     <!-- DQSZ=16 -->
     <g transform="translate(84.81 189.813437) scale(0.1 -0.1)">
      <use xlink:href="#DejaVuSans-44"/>
      <use xlink:href="#DejaVuSans-51" transform="translate(77.001953 0)"/>
      <use xlink:href="#DejaVuSans-53" transform="translate(155.712891 0)"/>
      <use xlink:href="#DejaVuSans-5a" transform="translate(219.189453 0)"/>
      <use xlink:href="#DejaVuSans-3d" transform="translate(287.695312 0)"/>
      <use xlink:href="#DejaVuSans-31" transform="translate(371.484375 0)"/>
      <use xlink:href="#DejaVuSans-36" transform="translate(435.107422 0)"/>
     </g>
    </g>
    <g id="line2d_36">
     <path d="M 56.81 200.991562 
L 66.81 200.991562 
L 76.81 200.991562 
" style="fill: none; stroke: #d62728; stroke-width: 1.5; stroke-linecap: square"/>
     <g>
      <use xlink:href="#mccc4d8dc8b" x="66.81" y="200.991562" style="fill: #d62728; stroke: #d62728"/>
     </g>
    </g>
    <g id="text_18">
     <!-- DQSZ=32 -->
     <g transform="translate(84.81 204.491562) scale(0.1 -0.1)">
      <defs>
       <path id="DejaVuSans-33" d="M 2597 2516 
Q 3050 2419 3304 2112 
Q 3559 1806 3559 1356 
Q 3559 666 3084 287 
Q 2609 -91 1734 -91 
Q 1441 -91 1130 -33 
Q 819 25 488 141 
L 488 750 
Q 750 597 1062 519 
Q 1375 441 1716 441 
Q 2309 441 2620 675 
Q 2931 909 2931 1356 
Q 2931 1769 2642 2001 
Q 2353 2234 1838 2234 
L 1294 2234 
L 1294 2753 
L 1863 2753 
Q 2328 2753 2575 2939 
Q 2822 3125 2822 3475 
Q 2822 3834 2567 4026 
Q 2313 4219 1838 4219 
Q 1578 4219 1281 4162 
Q 984 4106 628 3988 
L 628 4550 
Q 988 4650 1302 4700 
Q 1616 4750 1894 4750 
Q 2613 4750 3031 4423 
Q 3450 4097 3450 3541 
Q 3450 3153 3228 2886 
Q 3006 2619 2597 2516 
z
" transform="scale(0.015625)"/>
      </defs>
      <use xlink:href="#DejaVuSans-44"/>
      <use xlink:href="#DejaVuSans-51" transform="translate(77.001953 0)"/>
      <use xlink:href="#DejaVuSans-53" transform="translate(155.712891 0)"/>
      <use xlink:href="#DejaVuSans-5a" transform="translate(219.189453 0)"/>
      <use xlink:href="#DejaVuSans-3d" transform="translate(287.695312 0)"/>
      <use xlink:href="#DejaVuSans-33" transform="translate(371.484375 0)"/>
      <use xlink:href="#DejaVuSans-32" transform="translate(435.107422 0)"/>
     </g>
    </g>
    <g id="line2d_37">
     <path d="M 56.81 215.669688 
L 66.81 215.669688 
L 76.81 215.669688 
" style="fill: none; stroke: #9467bd; stroke-width: 1.5; stroke-linecap: square"/>
     <g>
      <use xlink:href="#m702909cc7e" x="66.81" y="215.669688" style="fill: #9467bd; stroke: #9467bd"/>
     </g>
    </g>
    <g id="text_19">
     <!-- DQSZ=64 -->
     <g transform="translate(84.81 219.169688) scale(0.1 -0.1)">
      <use xlink:href="#DejaVuSans-44"/>
      <use xlink:href="#DejaVuSans-51" transform="translate(77.001953 0)"/>
      <use xlink:href="#DejaVuSans-53" transform="translate(155.712891 0)"/>
      <use xlink:href="#DejaVuSans-5a" transform="translate(219.189453 0)"/>
      <use xlink:href="#DejaVuSans-3d" transform="translate(287.695312 0)"/>
      <use xlink:href="#DejaVuSans-36" transform="translate(371.484375 0)"/>
      <use xlink:href="#DejaVuSans-34" transform="translate(435.107422 0)"/>
     </g>
    </g>
    <g id="line2d_38">
     <path d="M 56.81 230.347812 
L 66.81 230.347812 
L 76.81 230.347812 
" style="fill: none; stroke: #8c564b; stroke-width: 1.5; stroke-linecap: square"/>
     <g>
      <use xlink:href="#ma2f22d7ec9" x="66.81" y="230.347812" style="fill: #8c564b; stroke: #8c564b"/>
     </g>
    </g>
    <g id="text_20">
     <!-- DQSZ=128 -->
     <g transform="translate(84.81 233.847812) scale(0.1 -0.1)">
      <use xlink:href="#DejaVuSans-44"/>
      <use xlink:href="#DejaVuSans-51" transform="translate(77.001953 0)"/>
      <use xlink:href="#DejaVuSans-53" transform="translate(155.712891 0)"/>
      <use xlink:href="#DejaVuSans-5a" transform="translate(219.189453 0)"/>
      <use xlink:href="#DejaVuSans-3d" transform="translate(287.695312 0)"/>
      <use xlink:href="#DejaVuSans-31" transform="translate(371.484375 0)"/>
      <use xlink:href="#DejaVuSans-32" transform="translate(435.107422 0)"/>
      <use xlink:href="#DejaVuSans-38" transform="translate(498.730469 0)"/>
     </g>
    </g>
    <g id="line2d_39">
     <path d="M 56.81 245.025937 
L 66.81 245.025937 
L 76.81 245.025937 
" style="fill: none; stroke: #e377c2; stroke-width: 1.5; stroke-linecap: square"/>
     <g>
      <use xlink:href="#mdf002b06aa" x="66.81" y="245.025937" style="fill: #e377c2; stroke: #e377c2"/>
     </g>
    </g>
    <g id="text_21">
     <!-- DQSZ=256 -->
     <g transform="translate(84.81 248.525937) scale(0.1 -0.1)">
      <defs>
       <path id="DejaVuSans-35" d="M 691 4666 
L 3169 4666 
L 3169 4134 
L 1269 4134 
L 1269 2991 
Q 1406 3038 1543 3061 
Q 1681 3084 1819 3084 
Q 2600 3084 3056 2656 
Q 3513 2228 3513 1497 
Q 3513 744 3044 326 
Q 2575 -91 1722 -91 
Q 1428 -91 1123 -41 
Q 819 9 494 109 
L 494 744 
Q 775 591 1075 516 
Q 1375 441 1709 441 
Q 2250 441 2565 725 
Q 2881 1009 2881 1497 
Q 2881 1984 2565 2268 
Q 2250 2553 1709 2553 
Q 1456 2553 1204 2497 
Q 953 2441 691 2322 
L 691 4666 
z
" transform="scale(0.015625)"/>
      </defs>
      <use xlink:href="#DejaVuSans-44"/>
      <use xlink:href="#DejaVuSans-51" transform="translate(77.001953 0)"/>
      <use xlink:href="#DejaVuSans-53" transform="translate(155.712891 0)"/>
      <use xlink:href="#DejaVuSans-5a" transform="translate(219.189453 0)"/>
      <use xlink:href="#DejaVuSans-3d" transform="translate(287.695312 0)"/>
      <use xlink:href="#DejaVuSans-32" transform="translate(371.484375 0)"/>
      <use xlink:href="#DejaVuSans-35" transform="translate(435.107422 0)"/>
      <use xlink:href="#DejaVuSans-36" transform="translate(498.730469 0)"/>
     </g>
    </g>
    <g id="line2d_40">
     <path d="M 56.81 259.704062 
L 66.81 259.704062 
L 76.81 259.704062 
" style="fill: none; stroke: #7f7f7f; stroke-width: 1.5; stroke-linecap: square"/>
     <g>
      <use xlink:href="#m3182b7688d" x="66.81" y="259.704062" style="fill: #7f7f7f; stroke: #7f7f7f"/>
     </g>
    </g>
    <g id="text_22">
     <!-- DQSZ=512 -->
     <g transform="translate(84.81 263.204062) scale(0.1 -0.1)">
      <use xlink:href="#DejaVuSans-44"/>
      <use xlink:href="#DejaVuSans-51" transform="translate(77.001953 0)"/>
      <use xlink:href="#DejaVuSans-53" transform="translate(155.712891 0)"/>
      <use xlink:href="#DejaVuSans-5a" transform="translate(219.189453 0)"/>
      <use xlink:href="#DejaVuSans-3d" transform="translate(287.695312 0)"/>
      <use xlink:href="#DejaVuSans-35" transform="translate(371.484375 0)"/>
      <use xlink:href="#DejaVuSans-31" transform="translate(435.107422 0)"/>
      <use xlink:href="#DejaVuSans-32" transform="translate(498.730469 0)"/>
     </g>
    </g>
    <g id="line2d_41">
     <path d="M 56.81 274.382187 
L 66.81 274.382187 
L 76.81 274.382187 
" style="fill: none; stroke: #bcbd22; stroke-width: 1.5; stroke-linecap: square"/>
     <g>
      <use xlink:href="#m19a17a619c" x="66.81" y="274.382187" style="fill: #bcbd22; stroke: #bcbd22"/>
     </g>
    </g>
    <g id="text_23">
     <!-- DQSZ=1024 -->
     <g transform="translate(84.81 277.882187) scale(0.1 -0.1)">
      <use xlink:href="#DejaVuSans-44"/>
      <use xlink:href="#DejaVuSans-51" transform="translate(77.001953 0)"/>
      <use xlink:href="#DejaVuSans-53" transform="translate(155.712891 0)"/>
      <use xlink:href="#DejaVuSans-5a" transform="translate(219.189453 0)"/>
      <use xlink:href="#DejaVuSans-3d" transform="translate(287.695312 0)"/>
      <use xlink:href="#DejaVuSans-31" transform="translate(371.484375 0)"/>
      <use xlink:href="#DejaVuSans-30" transform="translate(435.107422 0)"/>
      <use xlink:href="#DejaVuSans-32" transform="translate(498.730469 0)"/>
      <use xlink:href="#DejaVuSans-34" transform="translate(562.353516 0)"/>
     </g>
    </g>
    <g id="line2d_42">
     <path d="M 56.81 289.060312 
L 66.81 289.060312 
L 76.81 289.060312 
" style="fill: none; stroke: #17becf; stroke-width: 1.5; stroke-linecap: square"/>
     <g>
      <use xlink:href="#m3cd2bb4da1" x="66.81" y="289.060312" style="fill: #17becf; stroke: #17becf"/>
     </g>
    </g>
    <g id="text_24">
     <!-- DQSZ=2048 -->
     <g transform="translate(84.81 292.560312) scale(0.1 -0.1)">
      <use xlink:href="#DejaVuSans-44"/>
      <use xlink:href="#DejaVuSans-51" transform="translate(77.001953 0)"/>
      <use xlink:href="#DejaVuSans-53" transform="translate(155.712891 0)"/>
      <use xlink:href="#DejaVuSans-5a" transform="translate(219.189453 0)"/>
      <use xlink:href="#DejaVuSans-3d" transform="translate(287.695312 0)"/>
      <use xlink:href="#DejaVuSans-32" transform="translate(371.484375 0)"/>
      <use xlink:href="#DejaVuSans-30" transform="translate(435.107422 0)"/>
      <use xlink:href="#DejaVuSans-34" transform="translate(498.730469 0)"/>
      <use xlink:href="#DejaVuSans-38" transform="translate(562.353516 0)"/>
     </g>
    </g>
   </g>
  </g>
 </g>
 <defs>
  <clipPath id="p9e89097350">
   <rect x="47.81" y="26.88" width="402.19" height="276.76"/>
  </clipPath>
 </defs>
</svg>
