<?xml version="1.0" encoding="utf-8" standalone="no"?>
<!DOCTYPE svg PUBLIC "-//W3C//DTD SVG 1.1//EN"
  "http://www.w3.org/Graphics/SVG/1.1/DTD/svg11.dtd">
<svg xmlns:xlink="http://www.w3.org/1999/xlink" width="460.8pt" height="345.6pt" viewBox="0 0 460.8 345.6" xmlns="http://www.w3.org/2000/svg" version="1.1">
 <metadata>
  <rdf:RDF xmlns:dc="http://purl.org/dc/elements/1.1/" xmlns:cc="http://creativecommons.org/ns#" xmlns:rdf="http://www.w3.org/1999/02/22-rdf-syntax-ns#">
   <cc:Work>
    <dc:type rdf:resource="http://purl.org/dc/dcmitype/StillImage"/>
    <dc:date>2025-11-15T15:24:11.031842</dc:date>
    <dc:format>image/svg+xml</dc:format>
    <dc:creator>
     <cc:Agent>
      <dc:title>Matplotlib v3.10.7, https://matplotlib.org/</dc:title>
     </cc:Agent>
    </dc:creator>
   </cc:Work>
  </rdf:RDF>
 </metadata>
 <defs>
  <style type="text/css">*{stroke-linejoin: round; stroke-linecap: butt}</style>
 </defs>
 <g id="figure_1">
  <g id="patch_1">
   <path d="M 0 345.6 
L 460.8 345.6 
L 460.8 0 
L 0 0 
z
" style="fill: #ffffff"/>
  </g>
  <g id="axes_1">
   <g id="patch_2">
    <path d="M 50.87 303.64 
L 450 303.64 
L 450 26.88 
L 50.87 26.88 
z
" style="fill: #ffffff"/>
   </g>
   <g id="matplotlib.axis_1">
    <g id="xtick_1">
     <g id="line2d_1">
      <path d="M 101.998223 303.64 
L 101.998223 26.88 
" clip-path="url(#p1772c24427)" style="fill: none; stroke: #b0b0b0; stroke-width: 0.8; stroke-linecap: square"/>
     </g>
     <g id="line2d_2">
      <defs>
       <path id="mc2a7b921c1" d="M 0 0 
L 0 3.5 
" style="stroke: #000000; stroke-width: 0.8"/>
      </defs>
      <g>
       <use xlink:href="#mc2a7b921c1" x="101.998223" y="303.64" style="stroke: #000000; stroke-width: 0.8"/>
      </g>
     </g>
     <g id="text_1">
      <!-- 2 -->
      <g transform="translate(98.816973 318.238437) scale(0.1 -0.1)">
       <defs>
        <path id="DejaVuSans-32" d="M 1228 531 
L 3431 531 
L 3431 0 
L 469 0 
L 469 531 
Q 828 903 1448 1529 
Q 2069 2156 2228 2338 
Q 2531 2678 2651 2914 
Q 2772 3150 2772 3378 
Q 2772 3750 2511 3984 
Q 2250 4219 1831 4219 
Q 1534 4219 1204 4116 
Q 875 4013 500 3803 
L 500 4441 
Q 881 4594 1212 4672 
Q 1544 4750 1819 4750 
Q 2544 4750 2975 4387 
Q 3406 4025 3406 3419 
Q 3406 3131 3298 2873 
Q 3191 2616 2906 2266 
Q 2828 2175 2409 1742 
Q 1991 1309 1228 531 
z
" transform="scale(0.015625)"/>
       </defs>
       <use xlink:href="#DejaVuSans-32"/>
      </g>
     </g>
    </g>
    <g id="xtick_2">
     <g id="line2d_3">
      <path d="M 167.970124 303.64 
L 167.970124 26.88 
" clip-path="url(#p1772c24427)" style="fill: none; stroke: #b0b0b0; stroke-width: 0.8; stroke-linecap: square"/>
     </g>
     <g id="line2d_4">
      <g>
       <use xlink:href="#mc2a7b921c1" x="167.970124" y="303.64" style="stroke: #000000; stroke-width: 0.8"/>
      </g>
     </g>
     <g id="text_2">
      <!-- 4 -->
      <g transform="translate(164.788874 318.238437) scale(0.1 -0.1)">
       <defs>
        <path id="DejaVuSans-34" d="M 2419 4116 
L 825 1625 
L 2419 1625 
L 2419 4116 
z
M 2253 4666 
L 3047 4666 
L 3047 1625 
L 3713 1625 
L 3713 1100 
L 3047 1100 
L 3047 0 
L 2419 0 
L 2419 1100 
L 313 1100 
L 313 1709 
L 2253 4666 
z
" transform="scale(0.015625)"/>
       </defs>
       <use xlink:href="#DejaVuSans-34"/>
      </g>
     </g>
    </g>
    <g id="xtick_3">
     <g id="line2d_5">
      <path d="M 233.942025 303.64 
L 233.942025 26.88 
" clip-path="url(#p1772c24427)" style="fill: none; stroke: #b0b0b0; stroke-width: 0.8; stroke-linecap: square"/>
     </g>
     <g id="line2d_6">
      <g>
       <use xlink:href="#mc2a7b921c1" x="233.942025" y="303.64" style="stroke: #000000; stroke-width: 0.8"/>
      </g>
     </g>
     <g id="text_3">
      <!-- 6 -->
      <g transform="translate(230.760775 318.238437) scale(0.1 -0.1)">
       <defs>
        <path id="DejaVuSans-36" d="M 2113 2584 
Q 1688 2584 1439 2293 
Q 1191 2003 1191 1497 
Q 1191 994 1439 701 
Q 1688 409 2113 409 
Q 2538 409 2786 701 
Q 3034 994 3034 1497 
Q 3034 2003 2786 2293 
Q 2538 2584 2113 2584 
z
M 3366 4563 
L 3366 3988 
Q 3128 4100 2886 4159 
Q 2644 4219 2406 4219 
Q 1781 4219 1451 3797 
Q 1122 3375 1075 2522 
Q 1259 2794 1537 2939 
Q 1816 3084 2150 3084 
Q 2853 3084 3261 2657 
Q 3669 2231 3669 1497 
Q 3669 778 3244 343 
Q 2819 -91 2113 -91 
Q 1303 -91 875 529 
Q 447 1150 447 2328 
Q 447 3434 972 4092 
Q 1497 4750 2381 4750 
Q 2619 4750 2861 4703 
Q 3103 4656 3366 4563 
z
" transform="scale(0.015625)"/>
       </defs>
       <use xlink:href="#DejaVuSans-36"/>
      </g>
     </g>
    </g>
    <g id="xtick_4">
     <g id="line2d_7">
      <path d="M 299.913926 303.64 
L 299.913926 26.88 
" clip-path="url(#p1772c24427)" style="fill: none; stroke: #b0b0b0; stroke-width: 0.8; stroke-linecap: square"/>
     </g>
     <g id="line2d_8">
      <g>
       <use xlink:href="#mc2a7b921c1" x="299.913926" y="303.64" style="stroke: #000000; stroke-width: 0.8"/>
      </g>
     </g>
     <g id="text_4">
      <!-- 8 -->
      <g transform="translate(296.732676 318.238437) scale(0.1 -0.1)">
       <defs>
        <path id="DejaVuSans-38" d="M 2034 2216 
Q 1584 2216 1326 1975 
Q 1069 1734 1069 1313 
Q 1069 891 1326 650 
Q 1584 409 2034 409 
Q 2484 409 2743 651 
Q 3003 894 3003 1313 
Q 3003 1734 2745 1975 
Q 2488 2216 2034 2216 
z
M 1403 2484 
Q 997 2584 770 2862 
Q 544 3141 544 3541 
Q 544 4100 942 4425 
Q 1341 4750 2034 4750 
Q 2731 4750 3128 4425 
Q 3525 4100 3525 3541 
Q 3525 3141 3298 2862 
Q 3072 2584 2669 2484 
Q 3125 2378 3379 2068 
Q 3634 1759 3634 1313 
Q 3634 634 3220 271 
Q 2806 -91 2034 -91 
Q 1263 -91 848 271 
Q 434 634 434 1313 
Q 434 1759 690 2068 
Q 947 2378 1403 2484 
z
M 1172 3481 
Q 1172 3119 1398 2916 
Q 1625 2713 2034 2713 
Q 2441 2713 2670 2916 
Q 2900 3119 2900 3481 
Q 2900 3844 2670 4047 
Q 2441 4250 2034 4250 
Q 1625 4250 1398 4047 
Q 1172 3844 1172 3481 
z
" transform="scale(0.015625)"/>
       </defs>
       <use xlink:href="#DejaVuSans-38"/>
      </g>
     </g>
    </g>
    <g id="xtick_5">
     <g id="line2d_9">
      <path d="M 365.885826 303.64 
L 365.885826 26.88 
" clip-path="url(#p1772c24427)" style="fill: none; stroke: #b0b0b0; stroke-width: 0.8; stroke-linecap: square"/>
     </g>
     <g id="line2d_10">
      <g>
       <use xlink:href="#mc2a7b921c1" x="365.885826" y="303.64" style="stroke: #000000; stroke-width: 0.8"/>
      </g>
     </g>
     <g id="text_5">
      <!-- 10 -->
      <g transform="translate(359.523326 318.238437) scale(0.1 -0.1)">
       <defs>
        <path id="DejaVuSans-31" d="M 794 531 
L 1825 531 
L 1825 4091 
L 703 3866 
L 703 4441 
L 1819 4666 
L 2450 4666 
L 2450 531 
L 3481 531 
L 3481 0 
L 794 0 
L 794 531 
z
" transform="scale(0.015625)"/>
        <path id="DejaVuSans-30" d="M 2034 4250 
Q 1547 4250 1301 3770 
Q 1056 3291 1056 2328 
Q 1056 1369 1301 889 
Q 1547 409 2034 409 
Q 2525 409 2770 889 
Q 3016 1369 3016 2328 
Q 3016 3291 2770 3770 
Q 2525 4250 2034 4250 
z
M 2034 4750 
Q 2819 4750 3233 4129 
Q 3647 3509 3647 2328 
Q 3647 1150 3233 529 
Q 2819 -91 2034 -91 
Q 1250 -91 836 529 
Q 422 1150 422 2328 
Q 422 3509 836 4129 
Q 1250 4750 2034 4750 
z
" transform="scale(0.015625)"/>
       </defs>
       <use xlink:href="#DejaVuSans-31"/>
       <use xlink:href="#DejaVuSans-30" transform="translate(63.623047 0)"/>
      </g>
     </g>
    </g>
    <g id="xtick_6">
     <g id="line2d_11">
      <path d="M 431.857727 303.64 
L 431.857727 26.88 
" clip-path="url(#p1772c24427)" style="fill: none; stroke: #b0b0b0; stroke-width: 0.8; stroke-linecap: square"/>
     </g>
     <g id="line2d_12">
      <g>
       <use xlink:href="#mc2a7b921c1" x="431.857727" y="303.64" style="stroke: #000000; stroke-width: 0.8"/>
      </g>
     </g>
     <g id="text_6">
      <!-- 12 -->
      <g transform="translate(425.495227 318.238437) scale(0.1 -0.1)">
       <use xlink:href="#DejaVuSans-31"/>
       <use xlink:href="#DejaVuSans-32" transform="translate(63.623047 0)"/>
      </g>
     </g>
    </g>
    <g id="text_7">
     <!-- OMP_NUM_THREADS -->
     <g transform="translate(198.563906 331.74) scale(0.1 -0.1)">
      <defs>
       <path id="DejaVuSans-4f" d="M 2522 4238 
Q 1834 4238 1429 3725 
Q 1025 3213 1025 2328 
Q 1025 1447 1429 934 
Q 1834 422 2522 422 
Q 3209 422 3611 934 
Q 4013 1447 4013 2328 
Q 4013 3213 3611 3725 
Q 3209 4238 2522 4238 
z
M 2522 4750 
Q 3503 4750 4090 4092 
Q 4678 3434 4678 2328 
Q 4678 1225 4090 567 
Q 3503 -91 2522 -91 
Q 1538 -91 948 565 
Q 359 1222 359 2328 
Q 359 3434 948 4092 
Q 1538 4750 2522 4750 
z
" transform="scale(0.015625)"/>
       <path id="DejaVuSans-4d" d="M 628 4666 
L 1569 4666 
L 2759 1491 
L 3956 4666 
L 4897 4666 
L 4897 0 
L 4281 0 
L 4281 4097 
L 3078 897 
L 2444 897 
L 1241 4097 
L 1241 0 
L 628 0 
L 628 4666 
z
" transform="scale(0.015625)"/>
       <path id="DejaVuSans-50" d="M 1259 4147 
L 1259 2394 
L 2053 2394 
Q 2494 2394 2734 2622 
Q 2975 2850 2975 3272 
Q 2975 3691 2734 3919 
Q 2494 4147 2053 4147 
L 1259 4147 
z
M 628 4666 
L 2053 4666 
Q 2838 4666 3239 4311 
Q 3641 3956 3641 3272 
Q 3641 2581 3239 2228 
Q 2838 1875 2053 1875 
L 1259 1875 
L 1259 0 
L 628 0 
L 628 4666 
z
" transform="scale(0.015625)"/>
       <path id="DejaVuSans-5f" d="M 3263 -1063 
L 3263 -1509 
L -63 -1509 
L -63 -1063 
L 3263 -1063 
z
" transform="scale(0.015625)"/>
       <path id="DejaVuSans-4e" d="M 628 4666 
L 1478 4666 
L 3547 763 
L 3547 4666 
L 4159 4666 
L 4159 0 
L 3309 0 
L 1241 3903 
L 1241 0 
L 628 0 
L 628 4666 
z
" transform="scale(0.015625)"/>
       <path id="DejaVuSans-55" d="M 556 4666 
L 1191 4666 
L 1191 1831 
Q 1191 1081 1462 751 
Q 1734 422 2344 422 
Q 2950 422 3222 751 
Q 3494 1081 3494 1831 
L 3494 4666 
L 4128 4666 
L 4128 1753 
Q 4128 841 3676 375 
Q 3225 -91 2344 -91 
Q 1459 -91 1007 375 
Q 556 841 556 1753 
L 556 4666 
z
" transform="scale(0.015625)"/>
       <path id="DejaVuSans-54" d="M -19 4666 
L 3928 4666 
L 3928 4134 
L 2272 4134 
L 2272 0 
L 1638 0 
L 1638 4134 
L -19 4134 
L -19 4666 
z
" transform="scale(0.015625)"/>
       <path id="DejaVuSans-48" d="M 628 4666 
L 1259 4666 
L 1259 2753 
L 3553 2753 
L 3553 4666 
L 4184 4666 
L 4184 0 
L 3553 0 
L 3553 2222 
L 1259 2222 
L 1259 0 
L 628 0 
L 628 4666 
z
" transform="scale(0.015625)"/>
       <path id="DejaVuSans-52" d="M 2841 2188 
Q 3044 2119 3236 1894 
Q 3428 1669 3622 1275 
L 4263 0 
L 3584 0 
L 2988 1197 
Q 2756 1666 2539 1819 
Q 2322 1972 1947 1972 
L 1259 1972 
L 1259 0 
L 628 0 
L 628 4666 
L 2053 4666 
Q 2853 4666 3247 4331 
Q 3641 3997 3641 3322 
Q 3641 2881 3436 2590 
Q 3231 2300 2841 2188 
z
M 1259 4147 
L 1259 2491 
L 2053 2491 
Q 2509 2491 2742 2702 
Q 2975 2913 2975 3322 
Q 2975 3731 2742 3939 
Q 2509 4147 2053 4147 
L 1259 4147 
z
" transform="scale(0.015625)"/>
       <path id="DejaVuSans-45" d="M 628 4666 
L 3578 4666 
L 3578 4134 
L 1259 4134 
L 1259 2753 
L 3481 2753 
L 3481 2222 
L 1259 2222 
L 1259 531 
L 3634 531 
L 3634 0 
L 628 0 
L 628 4666 
z
" transform="scale(0.015625)"/>
       <path id="DejaVuSans-41" d="M 2188 4044 
L 1331 1722 
L 3047 1722 
L 2188 4044 
z
M 1831 4666 
L 2547 4666 
L 4325 0 
L 3669 0 
L 3244 1197 
L 1141 1197 
L 716 0 
L 50 0 
L 1831 4666 
z
" transform="scale(0.015625)"/>
       <path id="DejaVuSans-44" d="M 1259 4147 
L 1259 519 
L 2022 519 
Q 2988 519 3436 956 
Q 3884 1394 3884 2338 
Q 3884 3275 3436 3711 
Q 2988 4147 2022 4147 
L 1259 4147 
z
M 628 4666 
L 1925 4666 
Q 3281 4666 3915 4102 
Q 4550 3538 4550 2338 
Q 4550 1131 3912 565 
Q 3275 0 1925 0 
L 628 0 
L 628 4666 
z
" transform="scale(0.015625)"/>
       <path id="DejaVuSans-53" d="M 3425 4513 
L 3425 3897 
Q 3066 4069 2747 4153 
Q 2428 4238 2131 4238 
Q 1616 4238 1336 4038 
Q 1056 3838 1056 3469 
Q 1056 3159 1242 3001 
Q 1428 2844 1947 2747 
L 2328 2669 
Q 3034 2534 3370 2195 
Q 3706 1856 3706 1288 
Q 3706 609 3251 259 
Q 2797 -91 1919 -91 
Q 1588 -91 1214 -16 
Q 841 59 441 206 
L 441 856 
Q 825 641 1194 531 
Q 1563 422 1919 422 
Q 2459 422 2753 634 
Q 3047 847 3047 1241 
Q 3047 1584 2836 1778 
Q 2625 1972 2144 2069 
L 1759 2144 
Q 1053 2284 737 2584 
Q 422 2884 422 3419 
Q 422 4038 858 4394 
Q 1294 4750 2059 4750 
Q 2388 4750 2728 4690 
Q 3069 4631 3425 4513 
z
" transform="scale(0.015625)"/>
      </defs>
      <use xlink:href="#DejaVuSans-4f"/>
      <use xlink:href="#DejaVuSans-4d" transform="translate(78.710938 0)"/>
      <use xlink:href="#DejaVuSans-50" transform="translate(164.990234 0)"/>
      <use xlink:href="#DejaVuSans-5f" transform="translate(225.292969 0)"/>
      <use xlink:href="#DejaVuSans-4e" transform="translate(275.292969 0)"/>
      <use xlink:href="#DejaVuSans-55" transform="translate(350.097656 0)"/>
      <use xlink:href="#DejaVuSans-4d" transform="translate(423.291016 0)"/>
      <use xlink:href="#DejaVuSans-5f" transform="translate(509.570312 0)"/>
      <use xlink:href="#DejaVuSans-54" transform="translate(559.570312 0)"/>
      <use xlink:href="#DejaVuSans-48" transform="translate(620.654297 0)"/>
      <use xlink:href="#DejaVuSans-52" transform="translate(695.849609 0)"/>
      <use xlink:href="#DejaVuSans-45" transform="translate(765.332031 0)"/>
      <use xlink:href="#DejaVuSans-41" transform="translate(828.515625 0)"/>
      <use xlink:href="#DejaVuSans-44" transform="translate(896.923828 0)"/>
      <use xlink:href="#DejaVuSans-53" transform="translate(973.925781 0)"/>
     </g>
    </g>
   </g>
   <g id="matplotlib.axis_2">
    <g id="ytick_1">
     <g id="line2d_13">
      <path d="M 50.87 292.771634 
L 450 292.771634 
" clip-path="url(#p1772c24427)" style="fill: none; stroke: #b0b0b0; stroke-width: 0.8; stroke-linecap: square"/>
     </g>
     <g id="line2d_14">
      <defs>
       <path id="mdbf6bb2830" d="M 0 0 
L -3.5 0 
" style="stroke: #000000; stroke-width: 0.8"/>
      </defs>
      <g>
       <use xlink:href="#mdbf6bb2830" x="50.87" y="292.771634" style="stroke: #000000; stroke-width: 0.8"/>
      </g>
     </g>
     <g id="text_8">
      <!-- 0 -->
      <g transform="translate(37.5075 296.570852) scale(0.1 -0.1)">
       <use xlink:href="#DejaVuSans-30"/>
      </g>
     </g>
    </g>
    <g id="ytick_2">
     <g id="line2d_15">
      <path d="M 50.87 248.440281 
L 450 248.440281 
" clip-path="url(#p1772c24427)" style="fill: none; stroke: #b0b0b0; stroke-width: 0.8; stroke-linecap: square"/>
     </g>
     <g id="line2d_16">
      <g>
       <use xlink:href="#mdbf6bb2830" x="50.87" y="248.440281" style="stroke: #000000; stroke-width: 0.8"/>
      </g>
     </g>
     <g id="text_9">
      <!-- 20 -->
      <g transform="translate(31.145 252.239499) scale(0.1 -0.1)">
       <use xlink:href="#DejaVuSans-32"/>
       <use xlink:href="#DejaVuSans-30" transform="translate(63.623047 0)"/>
      </g>
     </g>
    </g>
    <g id="ytick_3">
     <g id="line2d_17">
      <path d="M 50.87 204.108928 
L 450 204.108928 
" clip-path="url(#p1772c24427)" style="fill: none; stroke: #b0b0b0; stroke-width: 0.8; stroke-linecap: square"/>
     </g>
     <g id="line2d_18">
      <g>
       <use xlink:href="#mdbf6bb2830" x="50.87" y="204.108928" style="stroke: #000000; stroke-width: 0.8"/>
      </g>
     </g>
     <g id="text_10">
      <!-- 40 -->
      <g transform="translate(31.145 207.908146) scale(0.1 -0.1)">
       <use xlink:href="#DejaVuSans-34"/>
       <use xlink:href="#DejaVuSans-30" transform="translate(63.623047 0)"/>
      </g>
     </g>
    </g>
    <g id="ytick_4">
     <g id="line2d_19">
      <path d="M 50.87 159.777575 
L 450 159.777575 
" clip-path="url(#p1772c24427)" style="fill: none; stroke: #b0b0b0; stroke-width: 0.8; stroke-linecap: square"/>
     </g>
     <g id="line2d_20">
      <g>
       <use xlink:href="#mdbf6bb2830" x="50.87" y="159.777575" style="stroke: #000000; stroke-width: 0.8"/>
      </g>
     </g>
     <g id="text_11">
      <!-- 60 -->
      <g transform="translate(31.145 163.576794) scale(0.1 -0.1)">
       <use xlink:href="#DejaVuSans-36"/>
       <use xlink:href="#DejaVuSans-30" transform="translate(63.623047 0)"/>
      </g>
     </g>
    </g>
    <g id="ytick_5">
     <g id="line2d_21">
      <path d="M 50.87 115.446222 
L 450 115.446222 
" clip-path="url(#p1772c24427)" style="fill: none; stroke: #b0b0b0; stroke-width: 0.8; stroke-linecap: square"/>
     </g>
     <g id="line2d_22">
      <g>
       <use xlink:href="#mdbf6bb2830" x="50.87" y="115.446222" style="stroke: #000000; stroke-width: 0.8"/>
      </g>
     </g>
     <g id="text_12">
      <!-- 80 -->
      <g transform="translate(31.145 119.245441) scale(0.1 -0.1)">
       <use xlink:href="#DejaVuSans-38"/>
       <use xlink:href="#DejaVuSans-30" transform="translate(63.623047 0)"/>
      </g>
     </g>
    </g>
    <g id="ytick_6">
     <g id="line2d_23">
      <path d="M 50.87 71.114869 
L 450 71.114869 
" clip-path="url(#p1772c24427)" style="fill: none; stroke: #b0b0b0; stroke-width: 0.8; stroke-linecap: square"/>
     </g>
     <g id="line2d_24">
      <g>
       <use xlink:href="#mdbf6bb2830" x="50.87" y="71.114869" style="stroke: #000000; stroke-width: 0.8"/>
      </g>
     </g>
     <g id="text_13">
      <!-- 100 -->
      <g transform="translate(24.7825 74.914088) scale(0.1 -0.1)">
       <use xlink:href="#DejaVuSans-31"/>
       <use xlink:href="#DejaVuSans-30" transform="translate(63.623047 0)"/>
       <use xlink:href="#DejaVuSans-30" transform="translate(127.246094 0)"/>
      </g>
     </g>
    </g>
    <g id="text_14">
     <!-- Time (s) -->
     <g transform="translate(18.702813 185.588906) rotate(-90) scale(0.1 -0.1)">
      <defs>
       <path id="DejaVuSans-69" d="M 603 3500 
L 1178 3500 
L 1178 0 
L 603 0 
L 603 3500 
z
M 603 4863 
L 1178 4863 
L 1178 4134 
L 603 4134 
L 603 4863 
z
" transform="scale(0.015625)"/>
       <path id="DejaVuSans-6d" d="M 3328 2828 
Q 3544 3216 3844 3400 
Q 4144 3584 4550 3584 
Q 5097 3584 5394 3201 
Q 5691 2819 5691 2113 
L 5691 0 
L 5113 0 
L 5113 2094 
Q 5113 2597 4934 2840 
Q 4756 3084 4391 3084 
Q 3944 3084 3684 2787 
Q 3425 2491 3425 1978 
L 3425 0 
L 2847 0 
L 2847 2094 
Q 2847 2600 2669 2842 
Q 2491 3084 2119 3084 
Q 1678 3084 1418 2786 
Q 1159 2488 1159 1978 
L 1159 0 
L 581 0 
L 581 3500 
L 1159 3500 
L 1159 2956 
Q 1356 3278 1631 3431 
Q 1906 3584 2284 3584 
Q 2666 3584 2933 3390 
Q 3200 3197 3328 2828 
z
" transform="scale(0.015625)"/>
       <path id="DejaVuSans-65" d="M 3597 1894 
L 3597 1613 
L 953 1613 
Q 991 1019 1311 708 
Q 1631 397 2203 397 
Q 2534 397 2845 478 
Q 3156 559 3463 722 
L 3463 178 
Q 3153 47 2828 -22 
Q 2503 -91 2169 -91 
Q 1331 -91 842 396 
Q 353 884 353 1716 
Q 353 2575 817 3079 
Q 1281 3584 2069 3584 
Q 2775 3584 3186 3129 
Q 3597 2675 3597 1894 
z
M 3022 2063 
Q 3016 2534 2758 2815 
Q 2500 3097 2075 3097 
Q 1594 3097 1305 2825 
Q 1016 2553 972 2059 
L 3022 2063 
z
" transform="scale(0.015625)"/>
       <path id="DejaVuSans-20" transform="scale(0.015625)"/>
       <path id="DejaVuSans-28" d="M 1984 4856 
Q 1566 4138 1362 3434 
Q 1159 2731 1159 2009 
Q 1159 1288 1364 580 
Q 1569 -128 1984 -844 
L 1484 -844 
Q 1016 -109 783 600 
Q 550 1309 550 2009 
Q 550 2706 781 3412 
Q 1013 4119 1484 4856 
L 1984 4856 
z
" transform="scale(0.015625)"/>
       <path id="DejaVuSans-73" d="M 2834 3397 
L 2834 2853 
Q 2591 2978 2328 3040 
Q 2066 3103 1784 3103 
Q 1356 3103 1142 2972 
Q 928 2841 928 2578 
Q 928 2378 1081 2264 
Q 1234 2150 1697 2047 
L 1894 2003 
Q 2506 1872 2764 1633 
Q 3022 1394 3022 966 
Q 3022 478 2636 193 
Q 2250 -91 1575 -91 
Q 1294 -91 989 -36 
Q 684 19 347 128 
L 347 722 
Q 666 556 975 473 
Q 1284 391 1588 391 
Q 1994 391 2212 530 
Q 2431 669 2431 922 
Q 2431 1156 2273 1281 
Q 2116 1406 1581 1522 
L 1381 1569 
Q 847 1681 609 1914 
Q 372 2147 372 2553 
Q 372 3047 722 3315 
Q 1072 3584 1716 3584 
Q 2034 3584 2315 3537 
Q 2597 3491 2834 3397 
z
" transform="scale(0.015625)"/>
       <path id="DejaVuSans-29" d="M 513 4856 
L 1013 4856 
Q 1481 4119 1714 3412 
Q 1947 2706 1947 2009 
Q 1947 1309 1714 600 
Q 1481 -109 1013 -844 
L 513 -844 
Q 928 -128 1133 580 
Q 1338 1288 1338 2009 
Q 1338 2731 1133 3434 
Q 928 4138 513 4856 
z
" transform="scale(0.015625)"/>
      </defs>
      <use xlink:href="#DejaVuSans-54"/>
      <use xlink:href="#DejaVuSans-69" transform="translate(57.958984 0)"/>
      <use xlink:href="#DejaVuSans-6d" transform="translate(85.742188 0)"/>
      <use xlink:href="#DejaVuSans-65" transform="translate(183.154297 0)"/>
      <use xlink:href="#DejaVuSans-20" transform="translate(244.677734 0)"/>
      <use xlink:href="#DejaVuSans-28" transform="translate(276.464844 0)"/>
      <use xlink:href="#DejaVuSans-73" transform="translate(315.478516 0)"/>
      <use xlink:href="#DejaVuSans-29" transform="translate(367.578125 0)"/>
     </g>
    </g>
   </g>
   <g id="line2d_25">
    <path d="M 69.012273 46.347075 
L 101.998223 40.28443 
L 167.970124 39.995279 
L 233.942025 40.032362 
L 299.913926 39.46 
L 365.885826 40.263971 
L 431.857727 41.117771 
" clip-path="url(#p1772c24427)" style="fill: none; stroke: #1f77b4; stroke-width: 1.5; stroke-linecap: square"/>
    <defs>
     <path id="m185e42d5eb" d="M 0 3 
C 0.795609 3 1.55874 2.683901 2.12132 2.12132 
C 2.683901 1.55874 3 0.795609 3 0 
C 3 -0.795609 2.683901 -1.55874 2.12132 -2.12132 
C 1.55874 -2.683901 0.795609 -3 0 -3 
C -0.795609 -3 -1.55874 -2.683901 -2.12132 -2.12132 
C -2.683901 -1.55874 -3 -0.795609 -3 0 
C -3 0.795609 -2.683901 1.55874 -2.12132 2.12132 
C -1.55874 2.683901 -0.795609 3 0 3 
z
" style="stroke: #1f77b4"/>
    </defs>
    <g clip-path="url(#p1772c24427)">
     <use xlink:href="#m185e42d5eb" x="69.012273" y="46.347075" style="fill: #1f77b4; stroke: #1f77b4"/>
     <use xlink:href="#m185e42d5eb" x="101.998223" y="40.28443" style="fill: #1f77b4; stroke: #1f77b4"/>
     <use xlink:href="#m185e42d5eb" x="167.970124" y="39.995279" style="fill: #1f77b4; stroke: #1f77b4"/>
     <use xlink:href="#m185e42d5eb" x="233.942025" y="40.032362" style="fill: #1f77b4; stroke: #1f77b4"/>
     <use xlink:href="#m185e42d5eb" x="299.913926" y="39.46" style="fill: #1f77b4; stroke: #1f77b4"/>
     <use xlink:href="#m185e42d5eb" x="365.885826" y="40.263971" style="fill: #1f77b4; stroke: #1f77b4"/>
     <use xlink:href="#m185e42d5eb" x="431.857727" y="41.117771" style="fill: #1f77b4; stroke: #1f77b4"/>
    </g>
   </g>
   <g id="line2d_26">
    <path d="M 69.012273 256.280945 
L 101.998223 255.599018 
L 167.970124 255.307606 
L 233.942025 256.047386 
L 299.913926 254.876661 
L 365.885826 255.329772 
L 431.857727 255.561913 
" clip-path="url(#p1772c24427)" style="fill: none; stroke: #ff7f0e; stroke-width: 1.5; stroke-linecap: square"/>
    <defs>
     <path id="m7fd2faf697" d="M 0 3 
C 0.795609 3 1.55874 2.683901 2.12132 2.12132 
C 2.683901 1.55874 3 0.795609 3 0 
C 3 -0.795609 2.683901 -1.55874 2.12132 -2.12132 
C 1.55874 -2.683901 0.795609 -3 0 -3 
C -0.795609 -3 -1.55874 -2.683901 -2.12132 -2.12132 
C -2.683901 -1.55874 -3 -0.795609 -3 0 
C -3 0.795609 -2.683901 1.55874 -2.12132 2.12132 
C -1.55874 2.683901 -0.795609 3 0 3 
z
" style="stroke: #ff7f0e"/>
    </defs>
    <g clip-path="url(#p1772c24427)">
     <use xlink:href="#m7fd2faf697" x="69.012273" y="256.280945" style="fill: #ff7f0e; stroke: #ff7f0e"/>
     <use xlink:href="#m7fd2faf697" x="101.998223" y="255.599018" style="fill: #ff7f0e; stroke: #ff7f0e"/>
     <use xlink:href="#m7fd2faf697" x="167.970124" y="255.307606" style="fill: #ff7f0e; stroke: #ff7f0e"/>
     <use xlink:href="#m7fd2faf697" x="233.942025" y="256.047386" style="fill: #ff7f0e; stroke: #ff7f0e"/>
     <use xlink:href="#m7fd2faf697" x="299.913926" y="254.876661" style="fill: #ff7f0e; stroke: #ff7f0e"/>
     <use xlink:href="#m7fd2faf697" x="365.885826" y="255.329772" style="fill: #ff7f0e; stroke: #ff7f0e"/>
     <use xlink:href="#m7fd2faf697" x="431.857727" y="255.561913" style="fill: #ff7f0e; stroke: #ff7f0e"/>
    </g>
   </g>
   <g id="line2d_27">
    <path d="M 69.012273 283.949207 
L 101.998223 283.899689 
L 167.970124 284.446693 
L 233.942025 284.353908 
L 299.913926 284.399702 
L 365.885826 284.332274 
L 431.857727 284.384807 
" clip-path="url(#p1772c24427)" style="fill: none; stroke: #2ca02c; stroke-width: 1.5; stroke-linecap: square"/>
    <defs>
     <path id="m27a977c86b" d="M 0 3 
C 0.795609 3 1.55874 2.683901 2.12132 2.12132 
C 2.683901 1.55874 3 0.795609 3 0 
C 3 -0.795609 2.683901 -1.55874 2.12132 -2.12132 
C 1.55874 -2.683901 0.795609 -3 0 -3 
C -0.795609 -3 -1.55874 -2.683901 -2.12132 -2.12132 
C -2.683901 -1.55874 -3 -0.795609 -3 0 
C -3 0.795609 -2.683901 1.55874 -2.12132 2.12132 
C -1.55874 2.683901 -0.795609 3 0 3 
z
" style="stroke: #2ca02c"/>
    </defs>
    <g clip-path="url(#p1772c24427)">
     <use xlink:href="#m27a977c86b" x="69.012273" y="283.949207" style="fill: #2ca02c; stroke: #2ca02c"/>
     <use xlink:href="#m27a977c86b" x="101.998223" y="283.899689" style="fill: #2ca02c; stroke: #2ca02c"/>
     <use xlink:href="#m27a977c86b" x="167.970124" y="284.446693" style="fill: #2ca02c; stroke: #2ca02c"/>
     <use xlink:href="#m27a977c86b" x="233.942025" y="284.353908" style="fill: #2ca02c; stroke: #2ca02c"/>
     <use xlink:href="#m27a977c86b" x="299.913926" y="284.399702" style="fill: #2ca02c; stroke: #2ca02c"/>
     <use xlink:href="#m27a977c86b" x="365.885826" y="284.332274" style="fill: #2ca02c; stroke: #2ca02c"/>
     <use xlink:href="#m27a977c86b" x="431.857727" y="284.384807" style="fill: #2ca02c; stroke: #2ca02c"/>
    </g>
   </g>
   <g id="line2d_28">
    <path d="M 69.012273 288.805817 
L 101.998223 288.795156 
L 167.970124 289.112856 
L 233.942025 288.996176 
L 299.913926 288.997528 
L 365.885826 289.098825 
L 431.857727 289.028649 
" clip-path="url(#p1772c24427)" style="fill: none; stroke: #d62728; stroke-width: 1.5; stroke-linecap: square"/>
    <defs>
     <path id="m795f823c0f" d="M 0 3 
C 0.795609 3 1.55874 2.683901 2.12132 2.12132 
C 2.683901 1.55874 3 0.795609 3 0 
C 3 -0.795609 2.683901 -1.55874 2.12132 -2.12132 
C 1.55874 -2.683901 0.795609 -3 0 -3 
C -0.795609 -3 -1.55874 -2.683901 -2.12132 -2.12132 
C -2.683901 -1.55874 -3 -0.795609 -3 0 
C -3 0.795609 -2.683901 1.55874 -2.12132 2.12132 
C -1.55874 2.683901 -0.795609 3 0 3 
z
" style="stroke: #d62728"/>
    </defs>
    <g clip-path="url(#p1772c24427)">
     <use xlink:href="#m795f823c0f" x="69.012273" y="288.805817" style="fill: #d62728; stroke: #d62728"/>
     <use xlink:href="#m795f823c0f" x="101.998223" y="288.795156" style="fill: #d62728; stroke: #d62728"/>
     <use xlink:href="#m795f823c0f" x="167.970124" y="289.112856" style="fill: #d62728; stroke: #d62728"/>
     <use xlink:href="#m795f823c0f" x="233.942025" y="288.996176" style="fill: #d62728; stroke: #d62728"/>
     <use xlink:href="#m795f823c0f" x="299.913926" y="288.997528" style="fill: #d62728; stroke: #d62728"/>
     <use xlink:href="#m795f823c0f" x="365.885826" y="289.098825" style="fill: #d62728; stroke: #d62728"/>
     <use xlink:href="#m795f823c0f" x="431.857727" y="289.028649" style="fill: #d62728; stroke: #d62728"/>
    </g>
   </g>
   <g id="line2d_29">
    <path d="M 69.012273 290.384146 
L 101.998223 290.257846 
L 167.970124 290.284334 
L 233.942025 290.285664 
L 299.913926 290.148437 
L 365.885826 290.247584 
L 431.857727 290.166967 
" clip-path="url(#p1772c24427)" style="fill: none; stroke: #9467bd; stroke-width: 1.5; stroke-linecap: square"/>
    <defs>
     <path id="md72fa0c87d" d="M 0 3 
C 0.795609 3 1.55874 2.683901 2.12132 2.12132 
C 2.683901 1.55874 3 0.795609 3 0 
C 3 -0.795609 2.683901 -1.55874 2.12132 -2.12132 
C 1.55874 -2.683901 0.795609 -3 0 -3 
C -0.795609 -3 -1.55874 -2.683901 -2.12132 -2.12132 
C -2.683901 -1.55874 -3 -0.795609 -3 0 
C -3 0.795609 -2.683901 1.55874 -2.12132 2.12132 
C -1.55874 2.683901 -0.795609 3 0 3 
z
" style="stroke: #9467bd"/>
    </defs>
    <g clip-path="url(#p1772c24427)">
     <use xlink:href="#md72fa0c87d" x="69.012273" y="290.384146" style="fill: #9467bd; stroke: #9467bd"/>
     <use xlink:href="#md72fa0c87d" x="101.998223" y="290.257846" style="fill: #9467bd; stroke: #9467bd"/>
     <use xlink:href="#md72fa0c87d" x="167.970124" y="290.284334" style="fill: #9467bd; stroke: #9467bd"/>
     <use xlink:href="#md72fa0c87d" x="233.942025" y="290.285664" style="fill: #9467bd; stroke: #9467bd"/>
     <use xlink:href="#md72fa0c87d" x="299.913926" y="290.148437" style="fill: #9467bd; stroke: #9467bd"/>
     <use xlink:href="#md72fa0c87d" x="365.885826" y="290.247584" style="fill: #9467bd; stroke: #9467bd"/>
     <use xlink:href="#md72fa0c87d" x="431.857727" y="290.166967" style="fill: #9467bd; stroke: #9467bd"/>
    </g>
   </g>
   <g id="line2d_30">
    <path d="M 69.012273 290.79328 
L 101.998223 290.726229 
L 167.970124 290.669153 
L 233.942025 290.644682 
L 299.913926 290.550212 
L 365.885826 290.606823 
L 431.857727 290.595053 
" clip-path="url(#p1772c24427)" style="fill: none; stroke: #8c564b; stroke-width: 1.5; stroke-linecap: square"/>
    <defs>
     <path id="m36b6938313" d="M 0 3 
C 0.795609 3 1.55874 2.683901 2.12132 2.12132 
C 2.683901 1.55874 3 0.795609 3 0 
C 3 -0.795609 2.683901 -1.55874 2.12132 -2.12132 
C 1.55874 -2.683901 0.795609 -3 0 -3 
C -0.795609 -3 -1.55874 -2.683901 -2.12132 -2.12132 
C -2.683901 -1.55874 -3 -0.795609 -3 0 
C -3 0.795609 -2.683901 1.55874 -2.12132 2.12132 
C -1.55874 2.683901 -0.795609 3 0 3 
z
" style="stroke: #8c564b"/>
    </defs>
    <g clip-path="url(#p1772c24427)">
     <use xlink:href="#m36b6938313" x="69.012273" y="290.79328" style="fill: #8c564b; stroke: #8c564b"/>
     <use xlink:href="#m36b6938313" x="101.998223" y="290.726229" style="fill: #8c564b; stroke: #8c564b"/>
     <use xlink:href="#m36b6938313" x="167.970124" y="290.669153" style="fill: #8c564b; stroke: #8c564b"/>
     <use xlink:href="#m36b6938313" x="233.942025" y="290.644682" style="fill: #8c564b; stroke: #8c564b"/>
     <use xlink:href="#m36b6938313" x="299.913926" y="290.550212" style="fill: #8c564b; stroke: #8c564b"/>
     <use xlink:href="#m36b6938313" x="365.885826" y="290.606823" style="fill: #8c564b; stroke: #8c564b"/>
     <use xlink:href="#m36b6938313" x="431.857727" y="290.595053" style="fill: #8c564b; stroke: #8c564b"/>
    </g>
   </g>
   <g id="line2d_31">
    <path d="M 69.012273 290.847365 
L 101.998223 290.816643 
L 167.970124 290.760653 
L 233.942025 290.754047 
L 299.913926 290.72818 
L 365.885826 290.708452 
L 431.857727 290.686154 
" clip-path="url(#p1772c24427)" style="fill: none; stroke: #e377c2; stroke-width: 1.5; stroke-linecap: square"/>
    <defs>
     <path id="m432f9bed41" d="M 0 3 
C 0.795609 3 1.55874 2.683901 2.12132 2.12132 
C 2.683901 1.55874 3 0.795609 3 0 
C 3 -0.795609 2.683901 -1.55874 2.12132 -2.12132 
C 1.55874 -2.683901 0.795609 -3 0 -3 
C -0.795609 -3 -1.55874 -2.683901 -2.12132 -2.12132 
C -2.683901 -1.55874 -3 -0.795609 -3 0 
C -3 0.795609 -2.683901 1.55874 -2.12132 2.12132 
C -1.55874 2.683901 -0.795609 3 0 3 
z
" style="stroke: #e377c2"/>
    </defs>
    <g clip-path="url(#p1772c24427)">
     <use xlink:href="#m432f9bed41" x="69.012273" y="290.847365" style="fill: #e377c2; stroke: #e377c2"/>
     <use xlink:href="#m432f9bed41" x="101.998223" y="290.816643" style="fill: #e377c2; stroke: #e377c2"/>
     <use xlink:href="#m432f9bed41" x="167.970124" y="290.760653" style="fill: #e377c2; stroke: #e377c2"/>
     <use xlink:href="#m432f9bed41" x="233.942025" y="290.754047" style="fill: #e377c2; stroke: #e377c2"/>
     <use xlink:href="#m432f9bed41" x="299.913926" y="290.72818" style="fill: #e377c2; stroke: #e377c2"/>
     <use xlink:href="#m432f9bed41" x="365.885826" y="290.708452" style="fill: #e377c2; stroke: #e377c2"/>
     <use xlink:href="#m432f9bed41" x="431.857727" y="290.686154" style="fill: #e377c2; stroke: #e377c2"/>
    </g>
   </g>
   <g id="line2d_32">
    <path d="M 69.012273 290.767546 
L 101.998223 290.752739 
L 167.970124 290.655698 
L 233.942025 290.607377 
L 299.913926 290.579492 
L 365.885826 290.571402 
L 431.857727 290.582817 
" clip-path="url(#p1772c24427)" style="fill: none; stroke: #7f7f7f; stroke-width: 1.5; stroke-linecap: square"/>
    <defs>
     <path id="m8eb96892dd" d="M 0 3 
C 0.795609 3 1.55874 2.683901 2.12132 2.12132 
C 2.683901 1.55874 3 0.795609 3 0 
C 3 -0.795609 2.683901 -1.55874 2.12132 -2.12132 
C 1.55874 -2.683901 0.795609 -3 0 -3 
C -0.795609 -3 -1.55874 -2.683901 -2.12132 -2.12132 
C -2.683901 -1.55874 -3 -0.795609 -3 0 
C -3 0.795609 -2.683901 1.55874 -2.12132 2.12132 
C -1.55874 2.683901 -0.795609 3 0 3 
z
" style="stroke: #7f7f7f"/>
    </defs>
    <g clip-path="url(#p1772c24427)">
     <use xlink:href="#m8eb96892dd" x="69.012273" y="290.767546" style="fill: #7f7f7f; stroke: #7f7f7f"/>
     <use xlink:href="#m8eb96892dd" x="101.998223" y="290.752739" style="fill: #7f7f7f; stroke: #7f7f7f"/>
     <use xlink:href="#m8eb96892dd" x="167.970124" y="290.655698" style="fill: #7f7f7f; stroke: #7f7f7f"/>
     <use xlink:href="#m8eb96892dd" x="233.942025" y="290.607377" style="fill: #7f7f7f; stroke: #7f7f7f"/>
     <use xlink:href="#m8eb96892dd" x="299.913926" y="290.579492" style="fill: #7f7f7f; stroke: #7f7f7f"/>
     <use xlink:href="#m8eb96892dd" x="365.885826" y="290.571402" style="fill: #7f7f7f; stroke: #7f7f7f"/>
     <use xlink:href="#m8eb96892dd" x="431.857727" y="290.582817" style="fill: #7f7f7f; stroke: #7f7f7f"/>
    </g>
   </g>
   <g id="line2d_33">
    <path d="M 69.012273 290.897659 
L 101.998223 290.81467 
L 167.970124 290.799509 
L 233.942025 290.804186 
L 299.913926 290.712575 
L 365.885826 290.743075 
L 431.857727 290.747819 
" clip-path="url(#p1772c24427)" style="fill: none; stroke: #bcbd22; stroke-width: 1.5; stroke-linecap: square"/>
    <defs>
     <path id="mdb7bc26f0f" d="M 0 3 
C 0.795609 3 1.55874 2.683901 2.12132 2.12132 
C 2.683901 1.55874 3 0.795609 3 0 
C 3 -0.795609 2.683901 -1.55874 2.12132 -2.12132 
C 1.55874 -2.683901 0.795609 -3 0 -3 
C -0.795609 -3 -1.55874 -2.683901 -2.12132 -2.12132 
C -2.683901 -1.55874 -3 -0.795609 -3 0 
C -3 0.795609 -2.683901 1.55874 -2.12132 2.12132 
C -1.55874 2.683901 -0.795609 3 0 3 
z
" style="stroke: #bcbd22"/>
    </defs>
    <g clip-path="url(#p1772c24427)">
     <use xlink:href="#mdb7bc26f0f" x="69.012273" y="290.897659" style="fill: #bcbd22; stroke: #bcbd22"/>
     <use xlink:href="#mdb7bc26f0f" x="101.998223" y="290.81467" style="fill: #bcbd22; stroke: #bcbd22"/>
     <use xlink:href="#mdb7bc26f0f" x="167.970124" y="290.799509" style="fill: #bcbd22; stroke: #bcbd22"/>
     <use xlink:href="#mdb7bc26f0f" x="233.942025" y="290.804186" style="fill: #bcbd22; stroke: #bcbd22"/>
     <use xlink:href="#mdb7bc26f0f" x="299.913926" y="290.712575" style="fill: #bcbd22; stroke: #bcbd22"/>
     <use xlink:href="#mdb7bc26f0f" x="365.885826" y="290.743075" style="fill: #bcbd22; stroke: #bcbd22"/>
     <use xlink:href="#mdb7bc26f0f" x="431.857727" y="290.747819" style="fill: #bcbd22; stroke: #bcbd22"/>
    </g>
   </g>
   <g id="line2d_34">
    <path d="M 69.012273 290.976258 
L 101.998223 290.886465 
L 167.970124 290.875848 
L 233.942025 290.87536 
L 299.913926 290.740304 
L 365.885826 290.782286 
L 431.857727 290.820677 
" clip-path="url(#p1772c24427)" style="fill: none; stroke: #17becf; stroke-width: 1.5; stroke-linecap: square"/>
    <defs>
     <path id="m03412f5598" d="M 0 3 
C 0.795609 3 1.55874 2.683901 2.12132 2.12132 
C 2.683901 1.55874 3 0.795609 3 0 
C 3 -0.795609 2.683901 -1.55874 2.12132 -2.12132 
C 1.55874 -2.683901 0.795609 -3 0 -3 
C -0.795609 -3 -1.55874 -2.683901 -2.12132 -2.12132 
C -2.683901 -1.55874 -3 -0.795609 -3 0 
C -3 0.795609 -2.683901 1.55874 -2.12132 2.12132 
C -1.55874 2.683901 -0.795609 3 0 3 
z
" style="stroke: #17becf"/>
    </defs>
    <g clip-path="url(#p1772c24427)">
     <use xlink:href="#m03412f5598" x="69.012273" y="290.976258" style="fill: #17becf; stroke: #17becf"/>
     <use xlink:href="#m03412f5598" x="101.998223" y="290.886465" style="fill: #17becf; stroke: #17becf"/>
     <use xlink:href="#m03412f5598" x="167.970124" y="290.875848" style="fill: #17becf; stroke: #17becf"/>
     <use xlink:href="#m03412f5598" x="233.942025" y="290.87536" style="fill: #17becf; stroke: #17becf"/>
     <use xlink:href="#m03412f5598" x="299.913926" y="290.740304" style="fill: #17becf; stroke: #17becf"/>
     <use xlink:href="#m03412f5598" x="365.885826" y="290.782286" style="fill: #17becf; stroke: #17becf"/>
     <use xlink:href="#m03412f5598" x="431.857727" y="290.820677" style="fill: #17becf; stroke: #17becf"/>
    </g>
   </g>
   <g id="line2d_35">
    <path d="M 69.012273 291.023028 
L 101.998223 291.026375 
L 167.970124 291.042799 
L 233.942025 291.046612 
L 299.913926 291.039364 
L 365.885826 290.941458 
L 431.857727 291.06 
" clip-path="url(#p1772c24427)" style="fill: none; stroke: #1f77b4; stroke-width: 1.5; stroke-linecap: square"/>
    <g clip-path="url(#p1772c24427)">
     <use xlink:href="#m185e42d5eb" x="69.012273" y="291.023028" style="fill: #1f77b4; stroke: #1f77b4"/>
     <use xlink:href="#m185e42d5eb" x="101.998223" y="291.026375" style="fill: #1f77b4; stroke: #1f77b4"/>
     <use xlink:href="#m185e42d5eb" x="167.970124" y="291.042799" style="fill: #1f77b4; stroke: #1f77b4"/>
     <use xlink:href="#m185e42d5eb" x="233.942025" y="291.046612" style="fill: #1f77b4; stroke: #1f77b4"/>
     <use xlink:href="#m185e42d5eb" x="299.913926" y="291.039364" style="fill: #1f77b4; stroke: #1f77b4"/>
     <use xlink:href="#m185e42d5eb" x="365.885826" y="290.941458" style="fill: #1f77b4; stroke: #1f77b4"/>
     <use xlink:href="#m185e42d5eb" x="431.857727" y="291.06" style="fill: #1f77b4; stroke: #1f77b4"/>
    </g>
   </g>
   <g id="patch_3">
    <path d="M 50.87 303.64 
L 50.87 26.88 
" style="fill: none; stroke: #000000; stroke-width: 0.8; stroke-linejoin: miter; stroke-linecap: square"/>
   </g>
   <g id="patch_4">
    <path d="M 450 303.64 
L 450 26.88 
" style="fill: none; stroke: #000000; stroke-width: 0.8; stroke-linejoin: miter; stroke-linecap: square"/>
   </g>
   <g id="patch_5">
    <path d="M 50.87 303.64 
L 450 303.64 
" style="fill: none; stroke: #000000; stroke-width: 0.8; stroke-linejoin: miter; stroke-linecap: square"/>
   </g>
   <g id="patch_6">
    <path d="M 50.87 26.88 
L 450 26.88 
" style="fill: none; stroke: #000000; stroke-width: 0.8; stroke-linejoin: miter; stroke-linecap: square"/>
   </g>
   <g id="text_15">
    <!-- Time (s) -->
    <g transform="translate(226.040312 20.88) scale(0.12 -0.12)">
     <use xlink:href="#DejaVuSans-54"/>
     <use xlink:href="#DejaVuSans-69" transform="translate(57.958984 0)"/>
     <use xlink:href="#DejaVuSans-6d" transform="translate(85.742188 0)"/>
     <use xlink:href="#DejaVuSans-65" transform="translate(183.154297 0)"/>
     <use xlink:href="#DejaVuSans-20" transform="translate(244.677734 0)"/>
     <use xlink:href="#DejaVuSans-28" transform="translate(276.464844 0)"/>
     <use xlink:href="#DejaVuSans-73" transform="translate(315.478516 0)"/>
     <use xlink:href="#DejaVuSans-29" transform="translate(367.578125 0)"/>
    </g>
   </g>
   <g id="legend_1">
    <g id="patch_7">
     <path d="M 348.4 247.489687 
L 443 247.489687 
Q 445 247.489687 445 245.489687 
L 445 85.030312 
Q 445 83.030312 443 83.030312 
L 348.4 83.030312 
Q 346.4 83.030312 346.4 85.030312 
L 346.4 245.489687 
Q 346.4 247.489687 348.4 247.489687 
z
" style="fill: #ffffff; opacity: 0.8; stroke: #cccccc; stroke-linejoin: miter"/>
    </g>
    <g id="line2d_36">
     <path d="M 350.4 91.12875 
L 360.4 91.12875 
L 370.4 91.12875 
" style="fill: none; stroke: #1f77b4; stroke-width: 1.5; stroke-linecap: square"/>
     <g>
      <use xlink:href="#m185e42d5eb" x="360.4" y="91.12875" style="fill: #1f77b4; stroke: #1f77b4"/>
     </g>
    </g>
    <g id="text_16">
     <!-- DQSZ=2 -->
     <g transform="translate(378.4 94.62875) scale(0.1 -0.1)">
      <defs>
       <path id="DejaVuSans-51" d="M 2522 4238 
Q 1834 4238 1429 3725 
Q 1025 3213 1025 2328 
Q 1025 1447 1429 934 
Q 1834 422 2522 422 
Q 3209 422 3611 934 
Q 4013 1447 4013 2328 
Q 4013 3213 3611 3725 
Q 3209 4238 2522 4238 
z
M 3406 84 
L 4238 -825 
L 3475 -825 
L 2784 -78 
Q 2681 -84 2626 -87 
Q 2572 -91 2522 -91 
Q 1538 -91 948 567 
Q 359 1225 359 2328 
Q 359 3434 948 4092 
Q 1538 4750 2522 4750 
Q 3503 4750 4090 4092 
Q 4678 3434 4678 2328 
Q 4678 1516 4351 937 
Q 4025 359 3406 84 
z
" transform="scale(0.015625)"/>
       <path id="DejaVuSans-5a" d="M 359 4666 
L 4025 4666 
L 4025 4184 
L 1075 531 
L 4097 531 
L 4097 0 
L 288 0 
L 288 481 
L 3238 4134 
L 359 4134 
L 359 4666 
z
" transform="scale(0.015625)"/>
       <path id="DejaVuSans-3d" d="M 678 2906 
L 4684 2906 
L 4684 2381 
L 678 2381 
L 678 2906 
z
M 678 1631 
L 4684 1631 
L 4684 1100 
L 678 1100 
L 678 1631 
z
" transform="scale(0.015625)"/>
      </defs>
      <use xlink:href="#DejaVuSans-44"/>
      <use xlink:href="#DejaVuSans-51" transform="translate(77.001953 0)"/>
      <use xlink:href="#DejaVuSans-53" transform="translate(155.712891 0)"/>
      <use xlink:href="#DejaVuSans-5a" transform="translate(219.189453 0)"/>
      <use xlink:href="#DejaVuSans-3d" transform="translate(287.695312 0)"/>
      <use xlink:href="#DejaVuSans-32" transform="translate(371.484375 0)"/>
     </g>
    </g>
    <g id="line2d_37">
     <path d="M 350.4 105.806875 
L 360.4 105.806875 
L 370.4 105.806875 
" style="fill: none; stroke: #ff7f0e; stroke-width: 1.5; stroke-linecap: square"/>
     <g>
      <use xlink:href="#m7fd2faf697" x="360.4" y="105.806875" style="fill: #ff7f0e; stroke: #ff7f0e"/>
     </g>
    </g>
    <g id="text_17">
     <!-- DQSZ=4 -->
     <g transform="translate(378.4 109.306875) scale(0.1 -0.1)">
      <use xlink:href="#DejaVuSans-44"/>
      <use xlink:href="#DejaVuSans-51" transform="translate(77.001953 0)"/>
      <use xlink:href="#DejaVuSans-53" transform="translate(155.712891 0)"/>
      <use xlink:href="#DejaVuSans-5a" transform="translate(219.189453 0)"/>
      <use xlink:href="#DejaVuSans-3d" transform="translate(287.695312 0)"/>
      <use xlink:href="#DejaVuSans-34" transform="translate(371.484375 0)"/>
     </g>
    </g>
    <g id="line2d_38">
     <path d="M 350.4 120.485 
L 360.4 120.485 
L 370.4 120.485 
" style="fill: none; stroke: #2ca02c; stroke-width: 1.5; stroke-linecap: square"/>
     <g>
      <use xlink:href="#m27a977c86b" x="360.4" y="120.485" style="fill: #2ca02c; stroke: #2ca02c"/>
     </g>
    </g>
    <g id="text_18">
     <!-- DQSZ=8 -->
     <g transform="translate(378.4 123.985) scale(0.1 -0.1)">
      <use xlink:href="#DejaVuSans-44"/>
      <use xlink:href="#DejaVuSans-51" transform="translate(77.001953 0)"/>
      <use xlink:href="#DejaVuSans-53" transform="translate(155.712891 0)"/>
      <use xlink:href="#DejaVuSans-5a" transform="translate(219.189453 0)"/>
      <use xlink:href="#DejaVuSans-3d" transform="translate(287.695312 0)"/>
      <use xlink:href="#DejaVuSans-38" transform="translate(371.484375 0)"/>
     </g>
    </g>
    <g id="line2d_39">
     <path d="M 350.4 135.163125 
L 360.4 135.163125 
L 370.4 135.163125 
" style="fill: none; stroke: #d62728; stroke-width: 1.5; stroke-linecap: square"/>
     <g>
      <use xlink:href="#m795f823c0f" x="360.4" y="135.163125" style="fill: #d62728; stroke: #d62728"/>
     </g>
    </g>
    <g id="text_19">
     <!-- DQSZ=16 -->
     <g transform="translate(378.4 138.663125) scale(0.1 -0.1)">
      <use xlink:href="#DejaVuSans-44"/>
      <use xlink:href="#DejaVuSans-51" transform="translate(77.001953 0)"/>
      <use xlink:href="#DejaVuSans-53" transform="translate(155.712891 0)"/>
      <use xlink:href="#DejaVuSans-5a" transform="translate(219.189453 0)"/>
      <use xlink:href="#DejaVuSans-3d" transform="translate(287.695312 0)"/>
      <use xlink:href="#DejaVuSans-31" transform="translate(371.484375 0)"/>
      <use xlink:href="#DejaVuSans-36" transform="translate(435.107422 0)"/>
     </g>
    </g>
    <g id="line2d_40">
     <path d="M 350.4 149.84125 
L 360.4 149.84125 
L 370.4 149.84125 
" style="fill: none; stroke: #9467bd; stroke-width: 1.5; stroke-linecap: square"/>
     <g>
      <use xlink:href="#md72fa0c87d" x="360.4" y="149.84125" style="fill: #9467bd; stroke: #9467bd"/>
     </g>
    </g>
    <g id="text_20">
     <!-- DQSZ=32 -->
     <g transform="translate(378.4 153.34125) scale(0.1 -0.1)">
      <defs>
       <path id="DejaVuSans-33" d="M 2597 2516 
Q 3050 2419 3304 2112 
Q 3559 1806 3559 1356 
Q 3559 666 3084 287 
Q 2609 -91 1734 -91 
Q 1441 -91 1130 -33 
Q 819 25 488 141 
L 488 750 
Q 750 597 1062 519 
Q 1375 441 1716 441 
Q 2309 441 2620 675 
Q 2931 909 2931 1356 
Q 2931 1769 2642 2001 
Q 2353 2234 1838 2234 
L 1294 2234 
L 1294 2753 
L 1863 2753 
Q 2328 2753 2575 2939 
Q 2822 3125 2822 3475 
Q 2822 3834 2567 4026 
Q 2313 4219 1838 4219 
Q 1578 4219 1281 4162 
Q 984 4106 628 3988 
L 628 4550 
Q 988 4650 1302 4700 
Q 1616 4750 1894 4750 
Q 2613 4750 3031 4423 
Q 3450 4097 3450 3541 
Q 3450 3153 3228 2886 
Q 3006 2619 2597 2516 
z
" transform="scale(0.015625)"/>
      </defs>
      <use xlink:href="#DejaVuSans-44"/>
      <use xlink:href="#DejaVuSans-51" transform="translate(77.001953 0)"/>
      <use xlink:href="#DejaVuSans-53" transform="translate(155.712891 0)"/>
      <use xlink:href="#DejaVuSans-5a" transform="translate(219.189453 0)"/>
      <use xlink:href="#DejaVuSans-3d" transform="translate(287.695312 0)"/>
      <use xlink:href="#DejaVuSans-33" transform="translate(371.484375 0)"/>
      <use xlink:href="#DejaVuSans-32" transform="translate(435.107422 0)"/>
     </g>
    </g>
    <g id="line2d_41">
     <path d="M 350.4 164.519375 
L 360.4 164.519375 
L 370.4 164.519375 
" style="fill: none; stroke: #8c564b; stroke-width: 1.5; stroke-linecap: square"/>
     <g>
      <use xlink:href="#m36b6938313" x="360.4" y="164.519375" style="fill: #8c564b; stroke: #8c564b"/>
     </g>
    </g>
    <g id="text_21">
     <!-- DQSZ=64 -->
     <g transform="translate(378.4 168.019375) scale(0.1 -0.1)">
      <use xlink:href="#DejaVuSans-44"/>
      <use xlink:href="#DejaVuSans-51" transform="translate(77.001953 0)"/>
      <use xlink:href="#DejaVuSans-53" transform="translate(155.712891 0)"/>
      <use xlink:href="#DejaVuSans-5a" transform="translate(219.189453 0)"/>
      <use xlink:href="#DejaVuSans-3d" transform="translate(287.695312 0)"/>
      <use xlink:href="#DejaVuSans-36" transform="translate(371.484375 0)"/>
      <use xlink:href="#DejaVuSans-34" transform="translate(435.107422 0)"/>
     </g>
    </g>
    <g id="line2d_42">
     <path d="M 350.4 179.1975 
L 360.4 179.1975 
L 370.4 179.1975 
" style="fill: none; stroke: #e377c2; stroke-width: 1.5; stroke-linecap: square"/>
     <g>
      <use xlink:href="#m432f9bed41" x="360.4" y="179.1975" style="fill: #e377c2; stroke: #e377c2"/>
     </g>
    </g>
    <g id="text_22">
     <!-- DQSZ=128 -->
     <g transform="translate(378.4 182.6975) scale(0.1 -0.1)">
      <use xlink:href="#DejaVuSans-44"/>
      <use xlink:href="#DejaVuSans-51" transform="translate(77.001953 0)"/>
      <use xlink:href="#DejaVuSans-53" transform="translate(155.712891 0)"/>
      <use xlink:href="#DejaVuSans-5a" transform="translate(219.189453 0)"/>
      <use xlink:href="#DejaVuSans-3d" transform="translate(287.695312 0)"/>
      <use xlink:href="#DejaVuSans-31" transform="translate(371.484375 0)"/>
      <use xlink:href="#DejaVuSans-32" transform="translate(435.107422 0)"/>
      <use xlink:href="#DejaVuSans-38" transform="translate(498.730469 0)"/>
     </g>
    </g>
    <g id="line2d_43">
     <path d="M 350.4 193.875625 
L 360.4 193.875625 
L 370.4 193.875625 
" style="fill: none; stroke: #7f7f7f; stroke-width: 1.5; stroke-linecap: square"/>
     <g>
      <use xlink:href="#m8eb96892dd" x="360.4" y="193.875625" style="fill: #7f7f7f; stroke: #7f7f7f"/>
     </g>
    </g>
    <g id="text_23">
     <!-- DQSZ=256 -->
     <g transform="translate(378.4 197.375625) scale(0.1 -0.1)">
      <defs>
       <path id="DejaVuSans-35" d="M 691 4666 
L 3169 4666 
L 3169 4134 
L 1269 4134 
L 1269 2991 
Q 1406 3038 1543 3061 
Q 1681 3084 1819 3084 
Q 2600 3084 3056 2656 
Q 3513 2228 3513 1497 
Q 3513 744 3044 326 
Q 2575 -91 1722 -91 
Q 1428 -91 1123 -41 
Q 819 9 494 109 
L 494 744 
Q 775 591 1075 516 
Q 1375 441 1709 441 
Q 2250 441 2565 725 
Q 2881 1009 2881 1497 
Q 2881 1984 2565 2268 
Q 2250 2553 1709 2553 
Q 1456 2553 1204 2497 
Q 953 2441 691 2322 
L 691 4666 
z
" transform="scale(0.015625)"/>
      </defs>
      <use xlink:href="#DejaVuSans-44"/>
      <use xlink:href="#DejaVuSans-51" transform="translate(77.001953 0)"/>
      <use xlink:href="#DejaVuSans-53" transform="translate(155.712891 0)"/>
      <use xlink:href="#DejaVuSans-5a" transform="translate(219.189453 0)"/>
      <use xlink:href="#DejaVuSans-3d" transform="translate(287.695312 0)"/>
      <use xlink:href="#DejaVuSans-32" transform="translate(371.484375 0)"/>
      <use xlink:href="#DejaVuSans-35" transform="translate(435.107422 0)"/>
      <use xlink:href="#DejaVuSans-36" transform="translate(498.730469 0)"/>
     </g>
    </g>
    <g id="line2d_44">
     <path d="M 350.4 208.55375 
L 360.4 208.55375 
L 370.4 208.55375 
" style="fill: none; stroke: #bcbd22; stroke-width: 1.5; stroke-linecap: square"/>
     <g>
      <use xlink:href="#mdb7bc26f0f" x="360.4" y="208.55375" style="fill: #bcbd22; stroke: #bcbd22"/>
     </g>
    </g>
    <g id="text_24">
     <!-- DQSZ=512 -->
     <g transform="translate(378.4 212.05375) scale(0.1 -0.1)">
      <use xlink:href="#DejaVuSans-44"/>
      <use xlink:href="#DejaVuSans-51" transform="translate(77.001953 0)"/>
      <use xlink:href="#DejaVuSans-53" transform="translate(155.712891 0)"/>
      <use xlink:href="#DejaVuSans-5a" transform="translate(219.189453 0)"/>
      <use xlink:href="#DejaVuSans-3d" transform="translate(287.695312 0)"/>
      <use xlink:href="#DejaVuSans-35" transform="translate(371.484375 0)"/>
      <use xlink:href="#DejaVuSans-31" transform="translate(435.107422 0)"/>
      <use xlink:href="#DejaVuSans-32" transform="translate(498.730469 0)"/>
     </g>
    </g>
    <g id="line2d_45">
     <path d="M 350.4 223.231875 
L 360.4 223.231875 
L 370.4 223.231875 
" style="fill: none; stroke: #17becf; stroke-width: 1.5; stroke-linecap: square"/>
     <g>
      <use xlink:href="#m03412f5598" x="360.4" y="223.231875" style="fill: #17becf; stroke: #17becf"/>
     </g>
    </g>
    <g id="text_25">
     <!-- DQSZ=1024 -->
     <g transform="translate(378.4 226.731875) scale(0.1 -0.1)">
      <use xlink:href="#DejaVuSans-44"/>
      <use xlink:href="#DejaVuSans-51" transform="translate(77.001953 0)"/>
      <use xlink:href="#DejaVuSans-53" transform="translate(155.712891 0)"/>
      <use xlink:href="#DejaVuSans-5a" transform="translate(219.189453 0)"/>
      <use xlink:href="#DejaVuSans-3d" transform="translate(287.695312 0)"/>
      <use xlink:href="#DejaVuSans-31" transform="translate(371.484375 0)"/>
      <use xlink:href="#DejaVuSans-30" transform="translate(435.107422 0)"/>
      <use xlink:href="#DejaVuSans-32" transform="translate(498.730469 0)"/>
      <use xlink:href="#DejaVuSans-34" transform="translate(562.353516 0)"/>
     </g>
    </g>
    <g id="line2d_46">
     <path d="M 350.4 237.91 
L 360.4 237.91 
L 370.4 237.91 
" style="fill: none; stroke: #1f77b4; stroke-width: 1.5; stroke-linecap: square"/>
     <g>
      <use xlink:href="#m185e42d5eb" x="360.4" y="237.91" style="fill: #1f77b4; stroke: #1f77b4"/>
     </g>
    </g>
    <g id="text_26">
     <!-- DQSZ=2048 -->
     <g transform="translate(378.4 241.41) scale(0.1 -0.1)">
      <use xlink:href="#DejaVuSans-44"/>
      <use xlink:href="#DejaVuSans-51" transform="translate(77.001953 0)"/>
      <use xlink:href="#DejaVuSans-53" transform="translate(155.712891 0)"/>
      <use xlink:href="#DejaVuSans-5a" transform="translate(219.189453 0)"/>
      <use xlink:href="#DejaVuSans-3d" transform="translate(287.695312 0)"/>
      <use xlink:href="#DejaVuSans-32" transform="translate(371.484375 0)"/>
      <use xlink:href="#DejaVuSans-30" transform="translate(435.107422 0)"/>
      <use xlink:href="#DejaVuSans-34" transform="translate(498.730469 0)"/>
      <use xlink:href="#DejaVuSans-38" transform="translate(562.353516 0)"/>
     </g>
    </g>
   </g>
  </g>
 </g>
 <defs>
  <clipPath id="p1772c24427">
   <rect x="50.87" y="26.88" width="399.13" height="276.76"/>
  </clipPath>
 </defs>
</svg>
